<?xml version="1.0" encoding="UTF-8"?>
<svg xmlns="http://www.w3.org/2000/svg" width="1600" height="1200" viewBox="0 0 1600 1200" fill="none">
  <defs>
    <linearGradient id="collection-hubs-bg" x1="0" y1="0" x2="1600" y2="1200" gradientUnits="userSpaceOnUse">
      <stop offset="0" stop-color="#F7FAFD"/>
      <stop offset="1" stop-color="#EAEFF5"/>
    </linearGradient>
    <radialGradient id="collection-hubs-glow" cx="0" cy="0" r="1" gradientUnits="userSpaceOnUse" gradientTransform="translate(1088 336.00000000000006) rotate(130) scale(608 408.00000000000006)">
      <stop stop-color="#FFFFFF" stop-opacity="0.95"/>
      <stop offset="1" stop-color="#FFFFFF" stop-opacity="0"/>
    </radialGradient>
    <radialGradient id="collection-hubs-amber" cx="0" cy="0" r="1" gradientUnits="userSpaceOnUse" gradientTransform="translate(1312 888) rotate(130) scale(288 144)">
      <stop stop-color="#D7A24B" stop-opacity="0.26"/>
      <stop offset="1" stop-color="#D7A24B" stop-opacity="0"/>
    </radialGradient>
    <linearGradient id="collection-hubs-panel" x1="0" y1="0" x2="0" y2="1">
      <stop stop-color="#FFFFFF"/>
      <stop offset="1" stop-color="#EEF3F8"/>
    </linearGradient>
    <linearGradient id="collection-hubs-metal" x1="0" y1="0" x2="1" y2="1">
      <stop stop-color="#F8FBFF"/>
      <stop offset="0.45" stop-color="#C9D3DF"/>
      <stop offset="1" stop-color="#7E91AF"/>
    </linearGradient>
    <linearGradient id="collection-hubs-metal-dark" x1="0" y1="0" x2="1" y2="1">
      <stop stop-color="#3B4758"/>
      <stop offset="1" stop-color="#111827"/>
    </linearGradient>
    <filter id="collection-hubs-blur" x="-20%" y="-20%" width="140%" height="140%">
      <feGaussianBlur stdDeviation="28"/>
    </filter>
    <filter id="collection-hubs-shadow" x="-40%" y="-40%" width="180%" height="200%">
      <feDropShadow dx="0" dy="24" stdDeviation="26" flood-color="#000814" flood-opacity="0.22"/>
    </filter>
    <pattern id="collection-hubs-grid" width="84" height="84" patternUnits="userSpaceOnUse">
      <path d="M84 0H0V84" stroke="#D9E1EA" stroke-opacity=".4" stroke-width="1"/>
    </pattern>
  </defs>
  <rect width="1600" height="1200" fill="url(#collection-hubs-bg)"/>
  <rect width="1600" height="1200" fill="url(#collection-hubs-grid)" opacity=".55"/>
  <rect x="96" y="96" width="1408" height="960" rx="72" fill="#FBFDFF" fill-opacity=".68" stroke="#E3E8EF" stroke-opacity="1"/>
  <ellipse cx="832" cy="996" rx="480" ry="96" fill="#0B1120" fill-opacity=".08" filter="url(#collection-hubs-blur)"/>
  <ellipse cx="832" cy="384" rx="544" ry="264" fill="url(#collection-hubs-glow)"/>
  <ellipse cx="1312" cy="888" rx="288" ry="144" fill="url(#collection-hubs-amber)"/>
    <g transform="translate(288 504) rotate(-12 224.00000000000003 108)">
      <ellipse cx="224.00000000000003" cy="198.72" rx="250.88000000000005" ry="38.879999999999995" fill="#0B1120" fill-opacity=".16" filter="url(#collection-hubs-blur)"/>
      <g filter="url(#collection-hubs-shadow)">
        <rect x="0" y="17.28" width="448.00000000000006" height="172.8" rx="28" fill="url(#collection-hubs-metal)" stroke="#D8E0E8"/>
        <rect x="26.880000000000003" y="30.240000000000002" width="394.24000000000007" height="25.919999999999998" rx="12.959999999999999" fill="rgba(255,255,255,.8)" opacity=".8"/>
        <rect x="44.80000000000001" y="25.919999999999998" width="232.96000000000004" height="17.28" rx="8.64" fill="#F4D28A" opacity=".42"/>
        <rect x="53.760000000000005" y="155.51999999999998" width="340.4800000000001" height="12.959999999999999" rx="6.4799999999999995" fill="rgba(15,23,42,.08)"/>
        <rect x="71.68" y="101.52" width="38.88640000000001" height="14" rx="7" fill="#1E293B" fill-opacity=".82"/><rect x="134.40000000000003" y="101.52" width="38.88640000000001" height="14" rx="7" fill="#1E293B" fill-opacity=".82"/><rect x="197.12000000000003" y="101.52" width="38.88640000000001" height="14" rx="7" fill="#1E293B" fill-opacity=".82"/><rect x="259.84000000000003" y="101.52" width="38.88640000000001" height="14" rx="7" fill="#1E293B" fill-opacity=".82"/>
      </g>
      <path d="M403.20000000000005 112.32000000000001 C 456.9600000000001 90.72, 519.6800000000001 38.879999999999995, 546.5600000000001 25.919999999999998" stroke="#162033" stroke-width="17.28" stroke-linecap="round" opacity=".9"/><circle cx="546.5600000000001" cy="25.919999999999998" r="12.959999999999999" fill="#162033"/>
    </g>    <g transform="translate(704 384) rotate(8 240 120)">
      <ellipse cx="240" cy="220.8" rx="268.8" ry="43.199999999999996" fill="#0B1120" fill-opacity=".16" filter="url(#collection-hubs-blur)"/>
      <g filter="url(#collection-hubs-shadow)">
        <rect x="0" y="19.2" width="480" height="192" rx="28" fill="url(#collection-hubs-metal)" stroke="#D8E0E8"/>
        <rect x="28.799999999999997" y="33.6" width="422.4" height="28.799999999999997" rx="14.399999999999999" fill="rgba(255,255,255,.8)" opacity=".8"/>
        
        <rect x="57.599999999999994" y="172.79999999999998" width="364.8" height="14.399999999999999" rx="7.199999999999999" fill="rgba(15,23,42,.08)"/>
        <rect x="76.8" y="112.8" width="41.664" height="14" rx="7" fill="#1E293B" fill-opacity=".82"/><rect x="144" y="112.8" width="41.664" height="14" rx="7" fill="#1E293B" fill-opacity=".82"/><rect x="211.2" y="112.8" width="41.664" height="14" rx="7" fill="#1E293B" fill-opacity=".82"/><rect x="278.40000000000003" y="112.8" width="41.664" height="14" rx="7" fill="#1E293B" fill-opacity=".82"/><rect x="345.6" y="112.8" width="41.664" height="14" rx="7" fill="#1E293B" fill-opacity=".82"/>
      </g>
      
    </g>
</svg>
