<?xml version="1.0" encoding="UTF-8"?>
<svg xmlns="http://www.w3.org/2000/svg" width="1600" height="1200" viewBox="0 0 1600 1200" fill="none">
  <defs>
    <linearGradient id="collection-dock-bg" x1="0" y1="0" x2="1600" y2="1200" gradientUnits="userSpaceOnUse">
      <stop offset="0" stop-color="#F7FAFD"/>
      <stop offset="1" stop-color="#EAEFF5"/>
    </linearGradient>
    <radialGradient id="collection-dock-glow" cx="0" cy="0" r="1" gradientUnits="userSpaceOnUse" gradientTransform="translate(1088 336.00000000000006) rotate(130) scale(608 408.00000000000006)">
      <stop stop-color="#FFFFFF" stop-opacity="0.95"/>
      <stop offset="1" stop-color="#FFFFFF" stop-opacity="0"/>
    </radialGradient>
    <radialGradient id="collection-dock-amber" cx="0" cy="0" r="1" gradientUnits="userSpaceOnUse" gradientTransform="translate(1312 888) rotate(130) scale(288 144)">
      <stop stop-color="#D7A24B" stop-opacity="0.26"/>
      <stop offset="1" stop-color="#D7A24B" stop-opacity="0"/>
    </radialGradient>
    <linearGradient id="collection-dock-panel" x1="0" y1="0" x2="0" y2="1">
      <stop stop-color="#FFFFFF"/>
      <stop offset="1" stop-color="#EEF3F8"/>
    </linearGradient>
    <linearGradient id="collection-dock-metal" x1="0" y1="0" x2="1" y2="1">
      <stop stop-color="#F8FBFF"/>
      <stop offset="0.45" stop-color="#C9D3DF"/>
      <stop offset="1" stop-color="#7E91AF"/>
    </linearGradient>
    <linearGradient id="collection-dock-metal-dark" x1="0" y1="0" x2="1" y2="1">
      <stop stop-color="#3B4758"/>
      <stop offset="1" stop-color="#111827"/>
    </linearGradient>
    <filter id="collection-dock-blur" x="-20%" y="-20%" width="140%" height="140%">
      <feGaussianBlur stdDeviation="28"/>
    </filter>
    <filter id="collection-dock-shadow" x="-40%" y="-40%" width="180%" height="200%">
      <feDropShadow dx="0" dy="24" stdDeviation="26" flood-color="#000814" flood-opacity="0.22"/>
    </filter>
    <pattern id="collection-dock-grid" width="84" height="84" patternUnits="userSpaceOnUse">
      <path d="M84 0H0V84" stroke="#D9E1EA" stroke-opacity=".4" stroke-width="1"/>
    </pattern>
  </defs>
  <rect width="1600" height="1200" fill="url(#collection-dock-bg)"/>
  <rect width="1600" height="1200" fill="url(#collection-dock-grid)" opacity=".55"/>
  <rect x="96" y="96" width="1408" height="960" rx="72" fill="#FBFDFF" fill-opacity=".68" stroke="#E3E8EF" stroke-opacity="1"/>
  <ellipse cx="832" cy="996" rx="480" ry="96" fill="#0B1120" fill-opacity=".08" filter="url(#collection-dock-blur)"/>
  <ellipse cx="832" cy="384" rx="544" ry="264" fill="url(#collection-dock-glow)"/>
  <ellipse cx="1312" cy="888" rx="288" ry="144" fill="url(#collection-dock-amber)"/>
    <g transform="translate(240 336.00000000000006)">
      <rect x="53.76" y="0" width="483.84" height="233.28000000000003" rx="17.28" fill="url(#collection-dock-panel)" stroke="#D6DEE8"/>
      <rect x="87.36" y="21.6" width="416.64" height="181.44" rx="12.959999999999999" fill="#F3F7FB"/>
      <rect x="0" y="233.28000000000003" width="672" height="43.2" rx="17.28" fill="url(#collection-dock-metal)"/>
      <rect x="255.36" y="246.23999999999998" width="107.52" height="6.4799999999999995" rx="3.024" fill="#90A0B5"/>
    </g>    <g transform="translate(832 672.0000000000001) rotate(-4 208 96)">
      <ellipse cx="208" cy="176.64000000000001" rx="232.96000000000004" ry="34.56" fill="#0B1120" fill-opacity=".16" filter="url(#collection-dock-blur)"/>
      <g filter="url(#collection-dock-shadow)">
        <rect x="0" y="15.36" width="416" height="153.60000000000002" rx="28" fill="url(#collection-dock-metal-dark)" stroke="#465267"/>
        <rect x="24.96" y="26.880000000000003" width="366.08" height="23.04" rx="11.52" fill="rgba(255,255,255,.12)" opacity=".8"/>
        <rect x="41.6" y="23.04" width="216.32" height="15.36" rx="7.68" fill="#F4D28A" opacity=".42"/>
        <rect x="49.92" y="138.24" width="316.16" height="11.52" rx="5.76" fill="rgba(15,23,42,.08)"/>
        <rect x="66.56" y="90.24" width="36.1088" height="14" rx="7" fill="#0A1020" fill-opacity=".82"/><rect x="124.80000000000001" y="90.24" width="36.1088" height="14" rx="7" fill="#0A1020" fill-opacity=".82"/><rect x="183.04000000000002" y="90.24" width="36.1088" height="14" rx="7" fill="#0A1020" fill-opacity=".82"/><rect x="241.28000000000003" y="90.24" width="36.1088" height="14" rx="7" fill="#0A1020" fill-opacity=".82"/><rect x="299.52000000000004" y="90.24" width="36.1088" height="14" rx="7" fill="#0A1020" fill-opacity=".82"/>
      </g>
      <path d="M374.40000000000003 99.84 C 424.32 80.64, 482.55999999999995 34.56, 507.52 23.04" stroke="#162033" stroke-width="15.36" stroke-linecap="round" opacity=".9"/><circle cx="507.52" cy="23.04" r="11.52" fill="#162033"/>
    </g>
</svg>
