<?xml version="1.0" encoding="UTF-8"?>
<svg id="Layer_1" xmlns="http://www.w3.org/2000/svg" xmlns:xlink="http://www.w3.org/1999/xlink" version="1.1" viewBox="0 0 1600 1200">
  <!-- Generator: Adobe Illustrator 30.2.1, SVG Export Plug-In . SVG Version: 2.1.1 Build 1)  -->
  <defs>
    <style>
      .st0 {
        fill: url(#linear-gradient2);
      }

      .st1 {
        fill: url(#linear-gradient1);
      }

      .st2 {
        fill: url(#linear-gradient3);
      }

      .st3 {
        fill: url(#linear-gradient5);
      }

      .st4 {
        fill: url(#linear-gradient4);
      }

      .st5 {
        fill-opacity: .2;
      }

      .st5, .st6 {
        fill: #f8fafc;
      }

      .st6 {
        fill-opacity: .3;
      }

      .st7 {
        fill: #d7dee9;
      }

      .st8 {
        fill: url(#linear-gradient);
      }

      .st9 {
        fill-opacity: .9;
      }

      .st9, .st10 {
        fill: #facc15;
      }

      .st10 {
        fill-opacity: .9;
      }

      .st11 {
        fill: #1a2536;
        fill-opacity: .4;
      }

      .st12 {
        fill: #0b1221;
      }

      .st12, .st13 {
        fill-opacity: .4;
      }

      .st14 {
        fill: #d8e0ea;
      }

      .st13 {
        fill: #273245;
      }

      .st15 {
        fill: #fff;
        fill-opacity: .4;
      }
    </style>
    <linearGradient id="linear-gradient" x1="-.5" y1="599.5" x2="1599.5" y2="599.5" gradientUnits="userSpaceOnUse">
      <stop offset="0" stop-color="#969eaa"/>
      <stop offset=".6" stop-color="#364152"/>
      <stop offset="1" stop-color="#111827"/>
    </linearGradient>
    <linearGradient id="linear-gradient1" x1="-1.6" y1="215.1" x2="1619.7" y2="-2.1" gradientTransform="translate(0 1200) scale(1 -1)" gradientUnits="userSpaceOnUse">
      <stop offset="0" stop-color="#d5deea" stop-opacity=".1"/>
      <stop offset="1" stop-color="#93a2b5" stop-opacity=".2"/>
    </linearGradient>
    <linearGradient id="linear-gradient2" x1="714.9" y1="656.8" x2="1257.8" y2="294.9" gradientTransform="translate(0 1200) scale(1 -1)" gradientUnits="userSpaceOnUse">
      <stop offset="0" stop-color="#b8c2d0"/>
      <stop offset=".5" stop-color="#677387"/>
      <stop offset="1" stop-color="#1f2937"/>
    </linearGradient>
    <linearGradient id="linear-gradient3" x1="745.1" y1="607.4" x2="1216.4" y2="351.9" gradientTransform="translate(0 1200) scale(1 -1)" gradientUnits="userSpaceOnUse">
      <stop offset="0" stop-color="#a2aec0"/>
      <stop offset=".5" stop-color="#556173"/>
      <stop offset="1" stop-color="#1e293b"/>
    </linearGradient>
    <linearGradient id="linear-gradient4" x1="330.8" y1="407" x2="741.3" y2="144.3" gradientTransform="translate(0 1200) scale(1 -1)" gradientUnits="userSpaceOnUse">
      <stop offset="0" stop-color="#d2dae6"/>
      <stop offset=".5" stop-color="#7d889a"/>
      <stop offset="1" stop-color="#384355"/>
    </linearGradient>
    <linearGradient id="linear-gradient5" x1="348.2" y1="368.9" x2="717.9" y2="186.3" xlink:href="#linear-gradient2"/>
  </defs>
  <rect class="st8" x="-.5" y="-.5" width="1600" height="1200"/>
  <path class="st1" d="M-2,988c264-100.5,544.3-133.2,831.7-109.8,282.7,23.4,551.3,114.5,789.6,231.3v95.8H-2v-217.3Z"/>
  <g>
    <rect class="st0" x="681.6" y="532.5" width="598.4" height="375.7" rx="92" ry="92"/>
    <rect class="st2" x="747.1" y="593.7" width="467.4" height="253.4" rx="62" ry="62"/>
    <path class="st6" d="M811.5,652.7h233.7c5.4,0,9.8,4.4,9.8,9.8h0c0,5.4-4.4,9.8-9.8,9.8h-233.7c-5.4,0-9.8-4.4-9.8-9.8h0c0-5.4,4.4-9.8,9.8-9.8Z"/>
    <path class="st5" d="M810.4,705.1h168.2c4.8,0,8.7,3.9,8.7,8.7h0c0,4.8-3.9,8.7-8.7,8.7h-168.2c-4.8,0-8.7-3.9-8.7-8.7h0c0-4.8,3.9-8.7,8.7-8.7Z"/>
    <path class="st11" d="M815.9,766.2h80.8c6.6,0,12,5.4,12,12h0c0,6.6-5.4,12-12,12h-80.8c-6.6,0-12-5.4-12-12h0c0-6.6,5.4-12,12-12Z"/>
    <path class="st11" d="M940.4,766.2h104.8c6.6,0,12,5.4,12,12h0c0,6.6-5.4,12-12,12h-104.8c-6.6,0-12-5.4-12-12h0c0-6.6,5.4-12,12-12Z"/>
    <path class="st11" d="M1088.9,766.2h52.4c6.6,0,12,5.4,12,12h0c0,6.6-5.4,12-12,12h-52.4c-6.6,0-12-5.4-12-12h0c0-6.6,5.4-12,12-12Z"/>
    <path class="st14" d="M1188.3,711.6h0c9.6,0,17.5,7.8,17.5,17.5v78.6c0,9.6-7.8,17.5-17.5,17.5h0c-9.6,0-17.5-7.8-17.5-17.5v-78.6c0-9.6,7.8-17.5,17.5-17.5Z"/>
  </g>
  <g>
    <rect class="st4" x="303.7" y="785.9" width="458.7" height="273" rx="72" ry="72"/>
    <rect class="st3" x="349.6" y="831.8" width="366.9" height="181.3" rx="46" ry="46"/>
    <path class="st13" d="M414,936.6h63.3c5.4,0,9.8,4.4,9.8,9.8h0c0,5.4-4.4,9.8-9.8,9.8h-63.3c-5.4,0-9.8-4.4-9.8-9.8h0c0-5.4,4.4-9.8,9.8-9.8Z"/>
    <path class="st13" d="M518.9,936.6h83c5.4,0,9.8,4.4,9.8,9.8h0c0,5.4-4.4,9.8-9.8,9.8h-83c-5.4,0-9.8-4.4-9.8-9.8h0c0-5.4,4.4-9.8,9.8-9.8Z"/>
    <path class="st13" d="M643.3,936.6h41.5c5.4,0,9.8,4.4,9.8,9.8h0c0,5.4-4.4,9.8-9.8,9.8h-41.5c-5.4,0-9.8-4.4-9.8-9.8h0c0-5.4,4.4-9.8,9.8-9.8Z"/>
    <path class="st7" d="M713.2,886.4h0c9,0,16.4,7.3,16.4,16.4v67.7c0,9-7.3,16.4-16.4,16.4h0c-9,0-16.4-7.3-16.4-16.4v-67.7c0-9,7.3-16.4,16.4-16.4Z"/>
  </g>
  <g>
    <rect class="st12" x="1052.9" y="388.4" width="268.6" height="170.4" rx="28" ry="28"/>
    <path class="st9" d="M1109.6,434.3h117.9c3.6,0,6.6,2.9,6.6,6.6h0c0,3.6-2.9,6.6-6.6,6.6h-117.9c-3.6,0-6.6-2.9-6.6-6.6h0c0-3.6,2.9-6.6,6.6-6.6Z"/>
    <path class="st15" d="M1108.6,471.4h176.9c3,0,5.5,2.4,5.5,5.5h0c0,3-2.4,5.5-5.5,5.5h-176.9c-3,0-5.5-2.4-5.5-5.5h0c0-3,2.4-5.5,5.5-5.5Z"/>
  </g>
  <circle class="st10" cx="303.7" cy="790.3" r="26.2"/>
</svg>