<svg width="1600" height="1200" viewBox="0 0 1600 1200" fill="none" xmlns="http://www.w3.org/2000/svg">
  <defs>
    <linearGradient id="bg-docks" x1="160" y1="90" x2="1380" y2="1110" gradientUnits="userSpaceOnUse">
      <stop stop-color="#EEF2F7"/>
      <stop offset="1" stop-color="#CBD4E0"/>
    </linearGradient>
    <radialGradient id="glow-docks" cx="0" cy="0" r="1" gradientUnits="userSpaceOnUse" gradientTransform="translate(1188 218) rotate(130.947) scale(520 360)">
      <stop stop-color="#FFF6D1"/>
      <stop offset="1" stop-color="#FFF6D1" stop-opacity="0"/>
    </radialGradient>
    <linearGradient id="dock-body" x1="770" y1="322" x2="1148" y2="902" gradientUnits="userSpaceOnUse">
      <stop stop-color="#8893A6"/>
      <stop offset="1" stop-color="#556073"/>
    </linearGradient>
  </defs>
  <rect width="1600" height="1200" rx="56" fill="url(#bg-docks)"/>
  <rect x="88" y="88" width="1424" height="1024" rx="52" fill="#F4F7FB" stroke="#E1E8F1"/>
  <ellipse cx="1188" cy="218" rx="520" ry="360" fill="url(#glow-docks)"/>
  <path d="M92 974C278 896 476 846 732 840C1002 836 1214 888 1508 1034V1112H92V974Z" fill="#D5DDE8"/>
  <rect x="786" y="312" width="388" height="610" rx="120" fill="url(#dock-body)"/>
  <rect x="854" y="400" width="252" height="386" rx="64" fill="#657086"/>
  <rect x="918" y="502" width="128" height="22" rx="11" fill="#AAB5C8"/>
  <rect x="906" y="556" width="154" height="18" rx="9" fill="#9CA8BC"/>
  <rect x="896" y="606" width="174" height="18" rx="9" fill="#909CB1"/>
  <rect x="1108" y="558" width="30" height="112" rx="15" fill="#C5CEDB"/>
  <rect x="1108" y="702" width="30" height="112" rx="15" fill="#BFC8D7"/>
  <rect x="1098" y="856" width="40" height="24" rx="12" fill="#C7D0DC"/>
  <rect x="518" y="766" width="356" height="190" rx="54" fill="#6A758D"/>
  <rect x="564" y="808" width="264" height="104" rx="30" fill="#75809A"/>
  <path d="M514 976C642 940 822 934 948 964C1068 994 1178 1050 1260 1110H514V976Z" fill="#C9D2DF"/>
  <circle cx="432" cy="896" r="22" fill="#F3CC47" fill-opacity="0.92"/>
  <path d="M1142 1006C1248 980 1338 988 1456 1046C1374 1080 1296 1094 1220 1090C1156 1090 1096 1072 1040 1048C1074 1038 1108 1028 1142 1006Z" fill="#F3CC47" fill-opacity="0.42"/>
</svg>
