<?xml version="1.0" encoding="UTF-8"?>
<svg xmlns="http://www.w3.org/2000/svg" width="1600" height="1200" viewBox="0 0 1600 1200" fill="none">
  <defs>
    <linearGradient id="collection-power-bg" x1="0" y1="0" x2="1600" y2="1200" gradientUnits="userSpaceOnUse">
      <stop offset="0" stop-color="#F7FAFD"/>
      <stop offset="1" stop-color="#EAEFF5"/>
    </linearGradient>
    <radialGradient id="collection-power-glow" cx="0" cy="0" r="1" gradientUnits="userSpaceOnUse" gradientTransform="translate(1088 336.00000000000006) rotate(130) scale(608 408.00000000000006)">
      <stop stop-color="#FFFFFF" stop-opacity="0.95"/>
      <stop offset="1" stop-color="#FFFFFF" stop-opacity="0"/>
    </radialGradient>
    <radialGradient id="collection-power-amber" cx="0" cy="0" r="1" gradientUnits="userSpaceOnUse" gradientTransform="translate(1312 888) rotate(130) scale(288 144)">
      <stop stop-color="#D7A24B" stop-opacity="0.26"/>
      <stop offset="1" stop-color="#D7A24B" stop-opacity="0"/>
    </radialGradient>
    <linearGradient id="collection-power-panel" x1="0" y1="0" x2="0" y2="1">
      <stop stop-color="#FFFFFF"/>
      <stop offset="1" stop-color="#EEF3F8"/>
    </linearGradient>
    <linearGradient id="collection-power-metal" x1="0" y1="0" x2="1" y2="1">
      <stop stop-color="#F8FBFF"/>
      <stop offset="0.45" stop-color="#C9D3DF"/>
      <stop offset="1" stop-color="#7E91AF"/>
    </linearGradient>
    <linearGradient id="collection-power-metal-dark" x1="0" y1="0" x2="1" y2="1">
      <stop stop-color="#3B4758"/>
      <stop offset="1" stop-color="#111827"/>
    </linearGradient>
    <filter id="collection-power-blur" x="-20%" y="-20%" width="140%" height="140%">
      <feGaussianBlur stdDeviation="28"/>
    </filter>
    <filter id="collection-power-shadow" x="-40%" y="-40%" width="180%" height="200%">
      <feDropShadow dx="0" dy="24" stdDeviation="26" flood-color="#000814" flood-opacity="0.22"/>
    </filter>
    <pattern id="collection-power-grid" width="84" height="84" patternUnits="userSpaceOnUse">
      <path d="M84 0H0V84" stroke="#D9E1EA" stroke-opacity=".4" stroke-width="1"/>
    </pattern>
  </defs>
  <rect width="1600" height="1200" fill="url(#collection-power-bg)"/>
  <rect width="1600" height="1200" fill="url(#collection-power-grid)" opacity=".55"/>
  <rect x="96" y="96" width="1408" height="960" rx="72" fill="#FBFDFF" fill-opacity=".68" stroke="#E3E8EF" stroke-opacity="1"/>
  <ellipse cx="832" cy="996" rx="480" ry="96" fill="#0B1120" fill-opacity=".08" filter="url(#collection-power-blur)"/>
  <ellipse cx="832" cy="384" rx="544" ry="264" fill="url(#collection-power-glow)"/>
  <ellipse cx="1312" cy="888" rx="288" ry="144" fill="url(#collection-power-amber)"/>
<g transform="translate(416 360)">
      <rect x="0" y="0" width="288" height="336.00000000000006" rx="36" fill="url(#collection-power-metal-dark)" filter="url(#collection-power-shadow)"/>
      <rect x="48" y="60" width="192" height="24" rx="10" fill="#F4D28A" opacity=".6"/>
      <rect x="288" y="96" width="28.799999999999997" height="108" rx="6" fill="#A9B6C7"/>
      <rect x="288" y="192" width="28.799999999999997" height="108" rx="6" fill="#A9B6C7"/>
    </g><g transform="translate(768 528) rotate(8)">
      <rect x="0" y="0" width="320" height="192" rx="28" fill="url(#collection-power-metal)" stroke="#D8E0E8" filter="url(#collection-power-shadow)"/>
      <rect x="48" y="60" width="128" height="24" rx="8" fill="#D7A24B" opacity=".8"/>
      <rect x="80" y="96" width="69.44000000000001" height="14" rx="7" fill="#0B1120" fill-opacity=".82"/><rect x="192" y="96" width="69.44000000000001" height="14" rx="7" fill="#0B1120" fill-opacity=".82"/>
    </g>
</svg>
