<svg width="1600" height="1200" viewBox="0 0 1600 1200" fill="none" xmlns="http://www.w3.org/2000/svg">
  <rect width="1600" height="1200" rx="56" fill="#F4F7FB"/>
  <rect x="78" y="82" width="1444" height="1036" rx="48" fill="url(#shell)" stroke="#E5EBF3"/>
  <ellipse cx="1190" cy="206" rx="462" ry="314" fill="url(#glow)"/>
  <ellipse cx="1136" cy="1008" rx="538" ry="170" fill="url(#baseGlow)"/>
  <rect x="132" y="180" width="224" height="8" rx="4" fill="url(#accent)"/>
  <path d="M106 932C332 846 572 818 818 838C1060 858 1290 936 1494 1036V1118H106V932Z" fill="url(#plane)"/>
  <g filter="url(#shadowLead)">
    <rect x="756" y="432" width="548" height="344" rx="92" fill="url(#leadBody)"/>
    <rect x="816" y="488" width="428" height="232" rx="62" fill="url(#leadFace)"/>
    <rect x="866" y="542" width="232" height="18" rx="9" fill="#F8FAFC" fill-opacity="0.34"/>
    <rect x="866" y="590" width="170" height="16" rx="8" fill="#F8FAFC" fill-opacity="0.18"/>
    <rect x="868" y="646" width="96" height="22" rx="11" fill="#1A2536" fill-opacity="0.44"/>
    <rect x="982" y="646" width="118" height="22" rx="11" fill="#1A2536" fill-opacity="0.44"/>
    <rect x="1118" y="646" width="70" height="22" rx="11" fill="#1A2536" fill-opacity="0.44"/>
    <rect x="1204" y="596" width="32" height="104" rx="16" fill="#D8E0EA"/>
  </g>
  <g filter="url(#shadowSecondary)">
    <rect x="410" y="664" width="420" height="250" rx="72" fill="url(#secondaryBody)"/>
    <rect x="452" y="706" width="336" height="166" rx="46" fill="url(#secondaryFace)"/>
    <rect x="502" y="802" width="76" height="18" rx="9" fill="#273245" fill-opacity="0.42"/>
    <rect x="598" y="802" width="94" height="18" rx="9" fill="#273245" fill-opacity="0.42"/>
    <rect x="712" y="802" width="56" height="18" rx="9" fill="#273245" fill-opacity="0.42"/>
    <rect x="770" y="756" width="30" height="92" rx="15" fill="#D7DEE9"/>
  </g>
  <g filter="url(#shadowAdapter)">
    <rect x="1096" y="300" width="246" height="156" rx="28" fill="url(#adapterCard)"/>
    <rect x="1142" y="342" width="120" height="12" rx="6" fill="#FACC15" fill-opacity="0.86"/>
    <rect x="1142" y="376" width="172" height="10" rx="5" fill="#FFFFFF" fill-opacity="0.36"/>
  </g>
  <path d="M1194 920C1268 896 1360 898 1444 934" stroke="url(#cable)" stroke-width="14" stroke-linecap="round"/>
  <circle cx="382" cy="864" r="24" fill="#FACC15" fill-opacity="0.88"/>
  <circle cx="792" cy="448" r="10" fill="#FFF4C7"/>
  <defs>
    <linearGradient id="shell" x1="212" y1="88" x2="1386" y2="1118" gradientUnits="userSpaceOnUse">
      <stop stop-color="#F7FAFD"/>
      <stop offset="1" stop-color="#DCE4EF"/>
    </linearGradient>
    <radialGradient id="glow" cx="0" cy="0" r="1" gradientUnits="userSpaceOnUse" gradientTransform="translate(1190 206) rotate(142.35) scale(520.11 356.021)">
      <stop stop-color="#FFF8DA"/>
      <stop offset="1" stop-color="#FFF8DA" stop-opacity="0"/>
    </radialGradient>
    <radialGradient id="baseGlow" cx="0" cy="0" r="1" gradientUnits="userSpaceOnUse" gradientTransform="translate(1136 1008) rotate(90) scale(170 538)">
      <stop stop-color="#FACC15" stop-opacity="0.18"/>
      <stop offset="1" stop-color="#FACC15" stop-opacity="0"/>
    </radialGradient>
    <linearGradient id="accent" x1="132" y1="184" x2="356" y2="184" gradientUnits="userSpaceOnUse">
      <stop stop-color="#FACC15"/>
      <stop offset="1" stop-color="#FACC15" stop-opacity="0"/>
    </linearGradient>
    <linearGradient id="plane" x1="106" y1="932" x2="1494" y2="1118" gradientUnits="userSpaceOnUse">
      <stop stop-color="#D5DEEA" stop-opacity="0.14"/>
      <stop offset="1" stop-color="#93A2B5" stop-opacity="0.18"/>
    </linearGradient>
    <linearGradient id="leadBody" x1="786" y1="448" x2="1278" y2="776" gradientUnits="userSpaceOnUse">
      <stop stop-color="#D8DFE8"/>
      <stop offset="0.54" stop-color="#8995A8"/>
      <stop offset="1" stop-color="#4C576B"/>
    </linearGradient>
    <linearGradient id="leadFace" x1="816" y1="488" x2="1244" y2="720" gradientUnits="userSpaceOnUse">
      <stop stop-color="#FFFFFF"/>
      <stop offset="0.46" stop-color="#D8E0EA"/>
      <stop offset="1" stop-color="#BBC5D3"/>
    </linearGradient>
    <linearGradient id="secondaryBody" x1="434" y1="676" x2="806" y2="914" gradientUnits="userSpaceOnUse">
      <stop stop-color="#BAC5D4"/>
      <stop offset="0.5" stop-color="#718095"/>
      <stop offset="1" stop-color="#435063"/>
    </linearGradient>
    <linearGradient id="secondaryFace" x1="452" y1="706" x2="788" y2="872" gradientUnits="userSpaceOnUse">
      <stop stop-color="#ECF2F8"/>
      <stop offset="0.48" stop-color="#C5D0DE"/>
      <stop offset="1" stop-color="#9EACBE"/>
    </linearGradient>
    <linearGradient id="adapterCard" x1="1106" y1="308" x2="1336" y2="456" gradientUnits="userSpaceOnUse">
      <stop stop-color="#E7EEF7" stop-opacity="0.92"/>
      <stop offset="1" stop-color="#C9D4E3" stop-opacity="0.5"/>
    </linearGradient>
    <linearGradient id="cable" x1="1194" y1="926" x2="1444" y2="926" gradientUnits="userSpaceOnUse">
      <stop stop-color="#FACC15" stop-opacity="0.74"/>
      <stop offset="1" stop-color="#94A3B8" stop-opacity="0.24"/>
    </linearGradient>
    <filter id="shadowLead" x="704" y="394" width="654" height="436" filterUnits="userSpaceOnUse" color-interpolation-filters="sRGB">
      <feFlood flood-opacity="0" result="BackgroundImageFix"/>
      <feColorMatrix in="SourceAlpha" type="matrix" values="0 0 0 0 0 0 0 0 0 0 0 0 0 0 0 0 0 0 127 0" result="hardAlpha"/>
      <feOffset dx="-14" dy="22"/>
      <feGaussianBlur stdDeviation="19"/>
      <feColorMatrix type="matrix" values="0 0 0 0 0.0588235 0 0 0 0 0.0901961 0 0 0 0 0.160784 0 0 0 0.16 0"/>
      <feBlend mode="normal" in2="BackgroundImageFix" result="effect1_dropShadow"/>
      <feBlend mode="normal" in="SourceGraphic" in2="effect1_dropShadow" result="shape"/>
    </filter>
    <filter id="shadowSecondary" x="372" y="638" width="504" height="320" filterUnits="userSpaceOnUse" color-interpolation-filters="sRGB">
      <feFlood flood-opacity="0" result="BackgroundImageFix"/>
      <feColorMatrix in="SourceAlpha" type="matrix" values="0 0 0 0 0 0 0 0 0 0 0 0 0 0 0 0 0 0 127 0" result="hardAlpha"/>
      <feOffset dx="-10" dy="18"/>
      <feGaussianBlur stdDeviation="14"/>
      <feColorMatrix type="matrix" values="0 0 0 0 0.0588235 0 0 0 0 0.0901961 0 0 0 0 0.160784 0 0 0 0.12 0"/>
      <feBlend mode="normal" in2="BackgroundImageFix" result="effect1_dropShadow"/>
      <feBlend mode="normal" in="SourceGraphic" in2="effect1_dropShadow" result="shape"/>
    </filter>
    <filter id="shadowAdapter" x="1072" y="284" width="302" height="204" filterUnits="userSpaceOnUse" color-interpolation-filters="sRGB">
      <feFlood flood-opacity="0" result="BackgroundImageFix"/>
      <feColorMatrix in="SourceAlpha" type="matrix" values="0 0 0 0 0 0 0 0 0 0 0 0 0 0 0 0 0 0 127 0" result="hardAlpha"/>
      <feOffset dy="14"/>
      <feGaussianBlur stdDeviation="12"/>
      <feColorMatrix type="matrix" values="0 0 0 0 0.0588235 0 0 0 0 0.0901961 0 0 0 0 0.160784 0 0 0 0.1 0"/>
      <feBlend mode="normal" in2="BackgroundImageFix" result="effect1_dropShadow"/>
      <feBlend mode="normal" in="SourceGraphic" in2="effect1_dropShadow" result="shape"/>
    </filter>
  </defs>
</svg>
