<svg width="1600" height="1200" viewBox="0 0 1600 1200" fill="none" xmlns="http://www.w3.org/2000/svg">
  <defs>
    <linearGradient id="bg-hubs" x1="200" y1="60" x2="1320" y2="1120" gradientUnits="userSpaceOnUse">
      <stop stop-color="#F7F9FC"/>
      <stop offset="1" stop-color="#D7DEE9"/>
    </linearGradient>
    <radialGradient id="glow-hubs" cx="0" cy="0" r="1" gradientUnits="userSpaceOnUse" gradientTransform="translate(1180 210) rotate(132.199) scale(470 330)">
      <stop stop-color="#FFF8DA"/>
      <stop offset="1" stop-color="#FFF8DA" stop-opacity="0"/>
    </radialGradient>
    <linearGradient id="body-hubs" x1="680" y1="470" x2="1090" y2="860" gradientUnits="userSpaceOnUse">
      <stop stop-color="#7F899B"/>
      <stop offset="1" stop-color="#4F596C"/>
    </linearGradient>
    <linearGradient id="mini-hubs" x1="420" y1="680" x2="780" y2="970" gradientUnits="userSpaceOnUse">
      <stop stop-color="#8F9AAF"/>
      <stop offset="1" stop-color="#5D6880"/>
    </linearGradient>
  </defs>
  <rect width="1600" height="1200" rx="56" fill="url(#bg-hubs)"/>
  <rect x="78" y="82" width="1444" height="1036" rx="48" fill="#F2F5FA" stroke="#E3EAF4"/>
  <ellipse cx="1180" cy="210" rx="470" ry="330" fill="url(#glow-hubs)"/>
  <path d="M108 944C314 838 560 786 794 812C1036 840 1260 944 1498 1066V1118H108V944Z" fill="#D2DAE6"/>
  <path d="M834 918C904 864 1012 838 1124 848C1248 860 1356 908 1456 992V1052H834V918Z" fill="#C6D0DE"/>
  <rect x="720" y="418" width="540" height="356" rx="86" fill="url(#body-hubs)"/>
  <rect x="772" y="472" width="436" height="248" rx="58" fill="#5D677A"/>
  <rect x="818" y="526" width="194" height="18" rx="9" fill="#98A3B7"/>
  <rect x="818" y="572" width="250" height="16" rx="8" fill="#8F9AAF"/>
  <rect x="818" y="616" width="182" height="16" rx="8" fill="#8590A6"/>
  <rect x="1100" y="548" width="28" height="92" rx="14" fill="#B7C0D0"/>
  <rect x="438" y="690" width="418" height="250" rx="72" fill="url(#mini-hubs)"/>
  <rect x="478" y="734" width="338" height="164" rx="46" fill="#667189"/>
  <rect x="522" y="842" width="76" height="18" rx="9" fill="#313B4D"/>
  <rect x="620" y="842" width="92" height="18" rx="9" fill="#344054"/>
  <rect x="730" y="842" width="60" height="18" rx="9" fill="#3B465A"/>
  <rect x="792" y="792" width="34" height="96" rx="17" fill="#D7DFEA"/>
  <circle cx="398" cy="846" r="26" fill="#F3CC47" fill-opacity="0.9"/>
  <path d="M1120 936C1188 922 1264 922 1348 946C1290 986 1222 1006 1144 1004C1082 1004 1028 988 984 960C1032 952 1078 944 1120 936Z" fill="#F3CC47" fill-opacity="0.45"/>
</svg>
