<svg width="1600" height="1200" viewBox="0 0 1600 1200" fill="none" xmlns="http://www.w3.org/2000/svg">
  <rect width="1600" height="1200" rx="56" fill="#F3F6FB"/>
  <rect x="78" y="82" width="1444" height="1036" rx="48" fill="url(#shell)" stroke="#E5EBF3"/>
  <ellipse cx="1208" cy="184" rx="446" ry="300" fill="url(#glow)"/>
  <ellipse cx="1092" cy="1020" rx="560" ry="176" fill="url(#baseGlow)"/>
  <rect x="132" y="180" width="248" height="8" rx="4" fill="url(#accent)"/>
  <path d="M126 948C360 860 600 836 842 850C1088 866 1308 944 1496 1046V1118H126V948Z" fill="url(#plane)"/>
  <g filter="url(#shadowMonitor)">
    <rect x="970" y="196" width="354" height="220" rx="30" fill="url(#monitor)"/>
    <rect x="1028" y="244" width="238" height="124" rx="20" fill="#F8FAFC" fill-opacity="0.18"/>
  </g>
  <g filter="url(#shadowDock)">
    <rect x="784" y="334" width="446" height="662" rx="86" fill="url(#dockBody)"/>
    <rect x="842" y="390" width="330" height="552" rx="60" fill="url(#dockFace)"/>
    <rect x="884" y="444" width="214" height="18" rx="9" fill="#F8FAFC" fill-opacity="0.32"/>
    <rect x="884" y="500" width="158" height="14" rx="7" fill="#F8FAFC" fill-opacity="0.18"/>
    <rect x="864" y="612" width="284" height="156" rx="46" fill="url(#screenGlow)"/>
    <rect x="916" y="654" width="180" height="72" rx="28" fill="#F8FAFC" fill-opacity="0.18"/>
    <rect x="824" y="758" width="30" height="104" rx="15" fill="#AAB5C6"/>
    <rect x="824" y="880" width="30" height="50" rx="15" fill="#AAB5C6"/>
    <rect x="1148" y="660" width="36" height="74" rx="18" fill="#9BA7BA"/>
    <rect x="1148" y="752" width="36" height="94" rx="18" fill="#9BA7BA"/>
    <rect x="1148" y="862" width="36" height="66" rx="18" fill="#9BA7BA"/>
  </g>
  <g filter="url(#shadowBase)">
    <rect x="510" y="760" width="420" height="134" rx="42" fill="url(#base)"/>
    <rect x="552" y="802" width="190" height="18" rx="9" fill="#132032" fill-opacity="0.4"/>
    <rect x="762" y="802" width="124" height="18" rx="9" fill="#132032" fill-opacity="0.32"/>
  </g>
  <path d="M1140 960C1222 932 1316 934 1404 968" stroke="url(#cable)" stroke-width="14" stroke-linecap="round"/>
  <circle cx="810" cy="362" r="10" fill="#FACC15"/>
  <defs>
    <linearGradient id="shell" x1="210" y1="88" x2="1390" y2="1120" gradientUnits="userSpaceOnUse">
      <stop stop-color="#F7FAFD"/>
      <stop offset="1" stop-color="#DBE3EE"/>
    </linearGradient>
    <radialGradient id="glow" cx="0" cy="0" r="1" gradientUnits="userSpaceOnUse" gradientTransform="translate(1208 184) rotate(144.806) scale(500.45 338.361)">
      <stop stop-color="#FFFFFF"/>
      <stop offset="1" stop-color="#FFFFFF" stop-opacity="0"/>
    </radialGradient>
    <radialGradient id="baseGlow" cx="0" cy="0" r="1" gradientUnits="userSpaceOnUse" gradientTransform="translate(1092 1020) rotate(90) scale(176 560)">
      <stop stop-color="#FACC15" stop-opacity="0.18"/>
      <stop offset="1" stop-color="#FACC15" stop-opacity="0"/>
    </radialGradient>
    <linearGradient id="accent" x1="132" y1="184" x2="380" y2="184" gradientUnits="userSpaceOnUse">
      <stop stop-color="#FACC15"/>
      <stop offset="1" stop-color="#FACC15" stop-opacity="0"/>
    </linearGradient>
    <linearGradient id="plane" x1="126" y1="948" x2="1496" y2="1118" gradientUnits="userSpaceOnUse">
      <stop stop-color="#D6DFEA" stop-opacity="0.14"/>
      <stop offset="1" stop-color="#96A5B7" stop-opacity="0.18"/>
    </linearGradient>
    <linearGradient id="monitor" x1="986" y1="206" x2="1310" y2="416" gradientUnits="userSpaceOnUse">
      <stop stop-color="#E4ECF5" stop-opacity="0.86"/>
      <stop offset="1" stop-color="#BCC8D8" stop-opacity="0.42"/>
    </linearGradient>
    <linearGradient id="dockBody" x1="820" y1="348" x2="1204" y2="996" gradientUnits="userSpaceOnUse">
      <stop stop-color="#D4DCE7"/>
      <stop offset="0.54" stop-color="#7B8799"/>
      <stop offset="1" stop-color="#334153"/>
    </linearGradient>
    <linearGradient id="dockFace" x1="842" y1="390" x2="1172" y2="942" gradientUnits="userSpaceOnUse">
      <stop stop-color="#AFBBCB"/>
      <stop offset="0.48" stop-color="#5C687B"/>
      <stop offset="1" stop-color="#212D3C"/>
    </linearGradient>
    <radialGradient id="screenGlow" cx="0" cy="0" r="1" gradientUnits="userSpaceOnUse" gradientTransform="translate(1006 690) rotate(90) scale(78 142)">
      <stop stop-color="#F8FAFC" stop-opacity="0.36"/>
      <stop offset="1" stop-color="#94A3B8" stop-opacity="0.16"/>
    </radialGradient>
    <linearGradient id="base" x1="528" y1="770" x2="918" y2="894" gradientUnits="userSpaceOnUse">
      <stop stop-color="#CBD5E1"/>
      <stop offset="1" stop-color="#7A889B"/>
    </linearGradient>
    <linearGradient id="cable" x1="1140" y1="964" x2="1404" y2="964" gradientUnits="userSpaceOnUse">
      <stop stop-color="#FACC15" stop-opacity="0.74"/>
      <stop offset="1" stop-color="#94A3B8" stop-opacity="0.24"/>
    </linearGradient>
    <filter id="shadowMonitor" x="944" y="172" width="428" height="292" filterUnits="userSpaceOnUse" color-interpolation-filters="sRGB">
      <feFlood flood-opacity="0" result="BackgroundImageFix"/>
      <feColorMatrix in="SourceAlpha" type="matrix" values="0 0 0 0 0 0 0 0 0 0 0 0 0 0 0 0 0 0 127 0" result="hardAlpha"/>
      <feOffset dy="16"/>
      <feGaussianBlur stdDeviation="13"/>
      <feColorMatrix type="matrix" values="0 0 0 0 0.0588235 0 0 0 0 0.0901961 0 0 0 0 0.160784 0 0 0 0.12 0"/>
      <feBlend mode="normal" in2="BackgroundImageFix" result="effect1_dropShadow"/>
      <feBlend mode="normal" in="SourceGraphic" in2="effect1_dropShadow" result="shape"/>
    </filter>
    <filter id="shadowDock" x="734" y="296" width="548" height="756" filterUnits="userSpaceOnUse" color-interpolation-filters="sRGB">
      <feFlood flood-opacity="0" result="BackgroundImageFix"/>
      <feColorMatrix in="SourceAlpha" type="matrix" values="0 0 0 0 0 0 0 0 0 0 0 0 0 0 0 0 0 0 127 0" result="hardAlpha"/>
      <feOffset dx="-18" dy="28"/>
      <feGaussianBlur stdDeviation="24"/>
      <feColorMatrix type="matrix" values="0 0 0 0 0.0588235 0 0 0 0 0.0901961 0 0 0 0 0.160784 0 0 0 0.2 0"/>
      <feBlend mode="normal" in2="BackgroundImageFix" result="effect1_dropShadow"/>
      <feBlend mode="normal" in="SourceGraphic" in2="effect1_dropShadow" result="shape"/>
    </filter>
    <filter id="shadowBase" x="484" y="738" width="474" height="188" filterUnits="userSpaceOnUse" color-interpolation-filters="sRGB">
      <feFlood flood-opacity="0" result="BackgroundImageFix"/>
      <feColorMatrix in="SourceAlpha" type="matrix" values="0 0 0 0 0 0 0 0 0 0 0 0 0 0 0 0 0 0 127 0" result="hardAlpha"/>
      <feOffset dy="18"/>
      <feGaussianBlur stdDeviation="13"/>
      <feColorMatrix type="matrix" values="0 0 0 0 0.0588235 0 0 0 0 0.0901961 0 0 0 0 0.160784 0 0 0 0.12 0"/>
      <feBlend mode="normal" in2="BackgroundImageFix" result="effect1_dropShadow"/>
      <feBlend mode="normal" in="SourceGraphic" in2="effect1_dropShadow" result="shape"/>
    </filter>
  </defs>
</svg>
