<?xml version="1.0" encoding="UTF-8"?>
<svg xmlns="http://www.w3.org/2000/svg" width="1600" height="1200" viewBox="0 0 1600 1200" fill="none">
  <defs>
    <linearGradient id="collection-accessories-bg" x1="0" y1="0" x2="1600" y2="1200" gradientUnits="userSpaceOnUse">
      <stop offset="0" stop-color="#F7FAFD"/>
      <stop offset="1" stop-color="#EAEFF5"/>
    </linearGradient>
    <radialGradient id="collection-accessories-glow" cx="0" cy="0" r="1" gradientUnits="userSpaceOnUse" gradientTransform="translate(1088 336.00000000000006) rotate(130) scale(608 408.00000000000006)">
      <stop stop-color="#FFFFFF" stop-opacity="0.95"/>
      <stop offset="1" stop-color="#FFFFFF" stop-opacity="0"/>
    </radialGradient>
    <radialGradient id="collection-accessories-amber" cx="0" cy="0" r="1" gradientUnits="userSpaceOnUse" gradientTransform="translate(1312 888) rotate(130) scale(288 144)">
      <stop stop-color="#D7A24B" stop-opacity="0.26"/>
      <stop offset="1" stop-color="#D7A24B" stop-opacity="0"/>
    </radialGradient>
    <linearGradient id="collection-accessories-panel" x1="0" y1="0" x2="0" y2="1">
      <stop stop-color="#FFFFFF"/>
      <stop offset="1" stop-color="#EEF3F8"/>
    </linearGradient>
    <linearGradient id="collection-accessories-metal" x1="0" y1="0" x2="1" y2="1">
      <stop stop-color="#F8FBFF"/>
      <stop offset="0.45" stop-color="#C9D3DF"/>
      <stop offset="1" stop-color="#7E91AF"/>
    </linearGradient>
    <linearGradient id="collection-accessories-metal-dark" x1="0" y1="0" x2="1" y2="1">
      <stop stop-color="#3B4758"/>
      <stop offset="1" stop-color="#111827"/>
    </linearGradient>
    <filter id="collection-accessories-blur" x="-20%" y="-20%" width="140%" height="140%">
      <feGaussianBlur stdDeviation="28"/>
    </filter>
    <filter id="collection-accessories-shadow" x="-40%" y="-40%" width="180%" height="200%">
      <feDropShadow dx="0" dy="24" stdDeviation="26" flood-color="#000814" flood-opacity="0.22"/>
    </filter>
    <pattern id="collection-accessories-grid" width="84" height="84" patternUnits="userSpaceOnUse">
      <path d="M84 0H0V84" stroke="#D9E1EA" stroke-opacity=".4" stroke-width="1"/>
    </pattern>
  </defs>
  <rect width="1600" height="1200" fill="url(#collection-accessories-bg)"/>
  <rect width="1600" height="1200" fill="url(#collection-accessories-grid)" opacity=".55"/>
  <rect x="96" y="96" width="1408" height="960" rx="72" fill="#FBFDFF" fill-opacity=".68" stroke="#E3E8EF" stroke-opacity="1"/>
  <ellipse cx="832" cy="996" rx="480" ry="96" fill="#0B1120" fill-opacity=".08" filter="url(#collection-accessories-blur)"/>
  <ellipse cx="832" cy="384" rx="544" ry="264" fill="url(#collection-accessories-glow)"/>
  <ellipse cx="1312" cy="888" rx="288" ry="144" fill="url(#collection-accessories-amber)"/>
<g transform="translate(352 408.00000000000006)">
      <circle cx="192" cy="216" r="180" stroke="#2C394A" stroke-width="18" fill="none" opacity=".9"/>
      <circle cx="192" cy="216" r="120" stroke="#8797AC" stroke-width="14" fill="none" opacity=".75"/>
      <rect x="400" y="96" width="192" height="96" rx="16" fill="url(#collection-accessories-metal)"/>
    </g>    <g transform="translate(768 600) rotate(-7 176 78)">
      <ellipse cx="176" cy="143.52" rx="197.12" ry="28.08" fill="#0B1120" fill-opacity=".16" filter="url(#collection-accessories-blur)"/>
      <g filter="url(#collection-accessories-shadow)">
        <rect x="0" y="12.48" width="352" height="124.80000000000001" rx="28" fill="url(#collection-accessories-metal)" stroke="#D8E0E8"/>
        <rect x="21.119999999999997" y="21.840000000000003" width="309.76" height="18.72" rx="9.36" fill="rgba(255,255,255,.8)" opacity=".8"/>
        
        <rect x="42.239999999999995" y="112.32" width="267.52" height="9.36" rx="4.68" fill="rgba(15,23,42,.08)"/>
        <rect x="56.32" y="73.32" width="30.5536" height="14" rx="7" fill="#1E293B" fill-opacity=".82"/><rect x="105.6" y="73.32" width="30.5536" height="14" rx="7" fill="#1E293B" fill-opacity=".82"/>
      </g>
      
    </g>
</svg>
