<?xml version="1.0" encoding="UTF-8"?>
<svg id="Layer_1" xmlns="http://www.w3.org/2000/svg" xmlns:xlink="http://www.w3.org/1999/xlink" version="1.1" viewBox="0 0 1600 1200">
  <!-- Generator: Adobe Illustrator 30.2.1, SVG Export Plug-In . SVG Version: 2.1.1 Build 1)  -->
  <defs>
    <style>
      .st0 {
        fill: url(#linear-gradient2);
      }

      .st1 {
        fill: url(#linear-gradient1);
      }

      .st2 {
        fill: url(#linear-gradient3);
      }

      .st3 {
        fill: url(#linear-gradient5);
      }

      .st4 {
        fill: url(#linear-gradient4);
      }

      .st5 {
        fill: #facc15;
      }

      .st6 {
        fill-opacity: .2;
      }

      .st6, .st7 {
        fill: #f8fafc;
      }

      .st7 {
        fill-opacity: .3;
      }

      .st8 {
        fill: url(#radial-gradient);
      }

      .st9 {
        fill: url(#linear-gradient);
      }

      .st10 {
        fill: #aab5c6;
      }

      .st11 {
        fill: #9ba7ba;
      }
    </style>
    <linearGradient id="linear-gradient" x1="0" y1="600" x2="1600" y2="600" gradientUnits="userSpaceOnUse">
      <stop offset="0" stop-color="#111827"/>
      <stop offset=".4" stop-color="#364152"/>
      <stop offset="1" stop-color="#969eaa"/>
    </linearGradient>
    <linearGradient id="linear-gradient1" x1="1.4" y1="207.9" x2="1601.4" y2="9.4" gradientTransform="translate(0 1200) scale(1 -1)" gradientUnits="userSpaceOnUse">
      <stop offset="0" stop-color="#d6dfea" stop-opacity=".1"/>
      <stop offset="1" stop-color="#96a5b7" stop-opacity=".2"/>
    </linearGradient>
    <linearGradient id="linear-gradient2" x1="1169" y1="928.1" x2="1493" y2="718.1" gradientTransform="translate(0 1200) scale(1 -1)" gradientUnits="userSpaceOnUse">
      <stop offset="0" stop-color="#1f2937"/>
      <stop offset=".6" stop-color="#677387"/>
      <stop offset="1" stop-color="#b8c2d0"/>
    </linearGradient>
    <linearGradient id="linear-gradient3" x1="1000.4" y1="782.6" x2="1384.4" y2="134.6" gradientTransform="translate(0 1200) scale(1 -1)" gradientUnits="userSpaceOnUse">
      <stop offset="0" stop-color="#d4dce7"/>
      <stop offset=".5" stop-color="#7b8799"/>
      <stop offset="1" stop-color="#334153"/>
    </linearGradient>
    <linearGradient id="linear-gradient4" x1="1023" y1="741" x2="1353" y2="189" gradientTransform="translate(0 1200) scale(1 -1)" gradientUnits="userSpaceOnUse">
      <stop offset="0" stop-color="#afbbcb"/>
      <stop offset=".5" stop-color="#5c687b"/>
      <stop offset="1" stop-color="#212d3c"/>
    </linearGradient>
    <radialGradient id="radial-gradient" cx="491.6" cy="939.8" fx="491.6" fy="939.8" r="1" gradientTransform="translate(-132264 -37584) rotate(90) scale(78 -142)" gradientUnits="userSpaceOnUse">
      <stop offset="0" stop-color="#f8fafc" stop-opacity=".4"/>
      <stop offset="1" stop-color="#94a3b8" stop-opacity=".2"/>
    </radialGradient>
    <linearGradient id="linear-gradient5" x1="710.2" y1="364.7" x2="1100.2" y2="240.7" gradientTransform="translate(0 1200) scale(1 -1)" gradientUnits="userSpaceOnUse">
      <stop offset="0" stop-color="#b8c2d0"/>
      <stop offset=".5" stop-color="#677387"/>
      <stop offset="1" stop-color="#1f2937"/>
    </linearGradient>
  </defs>
  <rect class="st9" width="1600" height="1200"/>
  <path class="st1" d="M0,1003.2c273.3-102.8,553.6-130.8,836.2-114.5,287.3,18.7,544.2,109.8,763.8,228.9v84.1H0v-198.5Z"/>
  <g>
    <rect class="st0" x="1151" y="265" width="354" height="220" rx="30" ry="30"/>
    <rect class="st6" x="1209" y="313" width="238" height="124" rx="20" ry="20"/>
  </g>
  <g>
    <rect class="st2" x="965" y="403" width="446" height="662" rx="86" ry="86"/>
    <rect class="st4" x="1023" y="459" width="330" height="552" rx="60" ry="60"/>
    <path class="st7" d="M1074,513h196c5,0,9,4,9,9h0c0,5-4,9-9,9h-196c-5,0-9-4-9-9h0c0-5,4-9,9-9Z"/>
    <path class="st6" d="M1072,569h144c3.9,0,7,3.1,7,7h0c0,3.9-3.1,7-7,7h-144c-3.9,0-7-3.1-7-7h0c0-3.9,3.1-7,7-7Z"/>
    <rect class="st8" x="1045" y="681" width="284" height="156" rx="46" ry="46"/>
    <rect class="st6" x="1097" y="723" width="180" height="72" rx="28" ry="28"/>
    <path class="st10" d="M1020,827h0c8.3,0,15,6.7,15,15v74c0,8.3-6.7,15-15,15h0c-8.3,0-15-6.7-15-15v-74c0-8.3,6.7-15,15-15Z"/>
    <path class="st10" d="M1020,949h0c8.3,0,15,6.7,15,15v20c0,8.3-6.7,15-15,15h0c-8.3,0-15-6.7-15-15v-20c0-8.3,6.7-15,15-15Z"/>
    <path class="st11" d="M1354.5,800.6h0c5.8,0,10.5,4.7,10.5,10.5v22.2c0,5.8-4.7,10.5-10.5,10.5h0c-5.8,0-10.5-4.7-10.5-10.5v-22.2c0-5.8,4.7-10.5,10.5-10.5Z"/>
    <path class="st11" d="M1354.5,854.4h0c5.8,0,10.5,4.7,10.5,10.5v33.9c0,5.8-4.7,10.5-10.5,10.5h0c-5.8,0-10.5-4.7-10.5-10.5v-33.9c0-5.8,4.7-10.5,10.5-10.5Z"/>
    <path class="st11" d="M1354.5,918.8h0c5.8,0,10.5,4.7,10.5,10.5v17.6c0,5.8-4.7,10.5-10.5,10.5h0c-5.8,0-10.5-4.7-10.5-10.5v-17.6c0-5.8,4.7-10.5,10.5-10.5Z"/>
  </g>
  <g>
    <rect class="st3" x="691" y="829" width="420" height="134" rx="42" ry="42"/>
    <path class="st6" d="M742,871h172c5,0,9,4,9,9h0c0,5-4,9-9,9h-172c-5,0-9-4-9-9h0c0-5,4-9,9-9Z"/>
    <path class="st6" d="M952,871h106c5,0,9,4,9,9h0c0,5-4,9-9,9h-106c-5,0-9-4-9-9h0c0-5,4-9,9-9Z"/>
  </g>
  <circle class="st5" cx="981" cy="409" r="28"/>
</svg>