<?xml version="1.0" encoding="UTF-8"?>
<svg id="Layer_1" xmlns="http://www.w3.org/2000/svg" xmlns:xlink="http://www.w3.org/1999/xlink" version="1.1" viewBox="0 0 1600 1200">
  <!-- Generator: Adobe Illustrator 30.2.1, SVG Export Plug-In . SVG Version: 2.1.1 Build 1)  -->
  <defs>
    <style>
      .st0 {
        fill: url(#linear-gradient2);
      }

      .st1 {
        fill: url(#linear-gradient1);
      }

      .st2 {
        fill: url(#linear-gradient9);
      }

      .st3 {
        fill: url(#linear-gradient3);
      }

      .st4 {
        fill: url(#linear-gradient6);
      }

      .st5 {
        fill: url(#linear-gradient7);
      }

      .st6 {
        fill: url(#linear-gradient8);
      }

      .st6, .st7, .st8, .st9 {
        opacity: .5;
      }

      .st7 {
        fill: url(#linear-gradient4);
      }

      .st8 {
        fill: url(#linear-gradient5);
      }

      .st10 {
        fill: #facc15;
      }

      .st11 {
        fill: url(#linear-gradient10);
      }

      .st12 {
        fill: url(#linear-gradient);
      }

      .st13 {
        fill-opacity: .4;
      }

      .st13, .st14, .st15 {
        fill: #1b2435;
      }

      .st14 {
        fill-opacity: .4;
      }

      .st15 {
        fill-opacity: .3;
      }

      .st9 {
        fill: url(#linear-gradient11);
      }
    </style>
    <linearGradient id="linear-gradient" x1="800" y1="1200" x2="800" y2="0" gradientUnits="userSpaceOnUse">
      <stop offset="0" stop-color="#111827"/>
      <stop offset=".4" stop-color="#364152"/>
      <stop offset="1" stop-color="#969eaa"/>
    </linearGradient>
    <linearGradient id="linear-gradient1" x1=".7" y1="211" x2="1602.7" y2="5.5" gradientTransform="translate(0 1200) scale(1 -1)" gradientUnits="userSpaceOnUse">
      <stop offset="0" stop-color="#d7e0eb" stop-opacity=".1"/>
      <stop offset="1" stop-color="#97a5b8" stop-opacity=".2"/>
    </linearGradient>
    <linearGradient id="linear-gradient2" x1="790.3" y1="973.8" x2="1303.6" y2="243.7" gradientTransform="translate(0 1200) scale(1 -1)" gradientUnits="userSpaceOnUse">
      <stop offset="0" stop-color="#1f2937"/>
      <stop offset=".6" stop-color="#677387"/>
      <stop offset="1" stop-color="#b8c2d0"/>
    </linearGradient>
    <linearGradient id="linear-gradient3" x1="837.2" y1="908.5" x2="1243.6" y2="327.5" gradientTransform="translate(0 1200) scale(1 -1)" gradientUnits="userSpaceOnUse">
      <stop offset="0" stop-color="#fff"/>
      <stop offset=".5" stop-color="#d9e1eb"/>
      <stop offset="1" stop-color="#bac5d4"/>
    </linearGradient>
    <linearGradient id="linear-gradient4" x1="926.6" y1="415.9" x2="1141.9" y2="415.9" gradientUnits="userSpaceOnUse">
      <stop offset="0" stop-color="#b8c2d0"/>
      <stop offset=".5" stop-color="#677387"/>
      <stop offset="1" stop-color="#1f2937"/>
    </linearGradient>
    <linearGradient id="linear-gradient5" y1="483.6" x2="1065" y2="483.6" xlink:href="#linear-gradient4"/>
    <linearGradient id="linear-gradient6" x1="499.1" y1="558.9" x2="790.4" y2="166.9" gradientTransform="translate(0 1200) scale(1 -1)" xlink:href="#linear-gradient4"/>
    <linearGradient id="linear-gradient7" x1="530.8" y1="518.6" x2="751.6" y2="219.5" gradientTransform="translate(0 1200) scale(1 -1)" gradientUnits="userSpaceOnUse">
      <stop offset="0" stop-color="#eef3f8"/>
      <stop offset="1" stop-color="#bbc6d4"/>
    </linearGradient>
    <linearGradient id="linear-gradient8" x1="582.8" y1="773.9" x2="702.4" y2="773.9" xlink:href="#linear-gradient4"/>
    <linearGradient id="linear-gradient9" x1="1278.1" y1="411.4" x2="1464.1" y2="151.4" gradientTransform="translate(0 1200) scale(1 -1)" gradientUnits="userSpaceOnUse">
      <stop offset="0" stop-color="#1f2937"/>
      <stop offset=".6" stop-color="#677387"/>
      <stop offset="1" stop-color="#b8c2d0"/>
    </linearGradient>
    <linearGradient id="linear-gradient10" x1="1297.8" y1="383.7" x2="1439.8" y2="185.7" gradientTransform="translate(0 1200) scale(1 -1)" gradientUnits="userSpaceOnUse">
      <stop offset="0" stop-color="#eef3f8"/>
      <stop offset="1" stop-color="#c4cedb"/>
    </linearGradient>
    <linearGradient id="linear-gradient11" x1="1327.8" y1="893.3" x2="1407.8" y2="893.3" xlink:href="#linear-gradient4"/>
  </defs>
  <rect class="st12" width="1600" height="1200"/>
  <path class="st1" d="M0,994.5c261.6-95.7,548.8-121.4,843-105.1,268.6,16.3,532.4,107.4,759,219.5v91.1H0v-205.5Z"/>
  <g>
    <rect class="st0" x="757.4" y="217.5" width="566" height="729" rx="72" ry="72"/>
    <rect class="st3" x="843.5" y="300.5" width="393.7" height="562.9" rx="48" ry="48"/>
    <path class="st7" d="M940.4,402h187.6c7.6,0,13.8,6.2,13.8,13.8h0c0,7.6-6.2,13.8-13.8,13.8h-187.6c-7.6,0-13.8-6.2-13.8-13.8h0c0-7.6,6.2-13.8,13.8-13.8Z"/>
    <path class="st8" d="M937.3,472.8h116.9c5.9,0,10.8,4.8,10.8,10.8h0c0,5.9-4.8,10.8-10.8,10.8h-116.9c-5.9,0-10.8-4.8-10.8-10.8h0c0-5.9,4.8-10.8,10.8-10.8Z"/>
    <path class="st13" d="M935.8,682h0c20.4,0,36.9,16.5,36.9,36.9v52.3c0,20.4-16.5,36.9-36.9,36.9h0c-20.4,0-36.9-16.5-36.9-36.9v-52.3c0-20.4,16.5-36.9,36.9-36.9Z"/>
    <path class="st13" d="M1049.6,682h0c20.4,0,36.9,16.5,36.9,36.9v52.3c0,20.4-16.5,36.9-36.9,36.9h0c-20.4,0-36.9-16.5-36.9-36.9v-52.3c0-20.4,16.5-36.9,36.9-36.9Z"/>
    <path class="st13" d="M1163.4,682h0c20.4,0,36.9,16.5,36.9,36.9v52.3c0,20.4-16.5,36.9-36.9,36.9h0c-20.4,0-36.9-16.5-36.9-36.9v-52.3c0-20.4,16.5-36.9,36.9-36.9Z"/>
  </g>
  <g>
    <rect class="st4" x="479.4" y="633.9" width="323.6" height="397" rx="48" ry="48"/>
    <rect class="st5" x="533.8" y="685.5" width="214.8" height="290.9" rx="32" ry="32"/>
    <path class="st6" d="M592.3,764.4h100.6c5.3,0,9.5,4.3,9.5,9.5h0c0,5.3-4.3,9.5-9.5,9.5h-100.6c-5.3,0-9.5-4.3-9.5-9.5h0c0-5.3,4.3-9.5,9.5-9.5Z"/>
    <path class="st14" d="M593.6,878.6h0c13.5,0,24.5,11,24.5,24.5v24.5c0,13.5-11,24.5-24.5,24.5h0c-13.5,0-24.5-11-24.5-24.5v-24.5c0-13.5,11-24.5,24.5-24.5Z"/>
    <path class="st14" d="M667.1,878.6h0c13.5,0,24.5,11,24.5,24.5v24.5c0,13.5-11,24.5-24.5,24.5h0c-13.5,0-24.5-11-24.5-24.5v-24.5c0-13.5,11-24.5,24.5-24.5Z"/>
  </g>
  <g>
    <rect class="st2" x="1261.8" y="780.3" width="214" height="270" rx="44" ry="44"/>
    <rect class="st11" x="1297.8" y="816.3" width="142" height="198" rx="30" ry="30"/>
    <path class="st9" d="M1334.8,886.3h66c3.9,0,7,3.1,7,7h0c0,3.9-3.1,7-7,7h-66c-3.9,0-7-3.1-7-7h0c0-3.9,3.1-7,7-7Z"/>
    <path class="st15" d="M1338.8,970.3h0c9.4,0,17,7.6,17,17v10c0,9.4-7.6,17-17,17h0c-9.4,0-17-7.6-17-17v-10c0-9.4,7.6-17,17-17Z"/>
    <path class="st15" d="M1388.8,970.3h0c9.4,0,17,7.6,17,17v10c0,9.4-7.6,17-17,17h0c-9.4,0-17-7.6-17-17v-10c0-9.4,7.6-17,17-17Z"/>
  </g>
  <circle class="st10" cx="757.4" cy="217.5" r="49"/>
</svg>