<?xml version="1.0" encoding="UTF-8"?>
<svg xmlns="http://www.w3.org/2000/svg" width="1600" height="1200" viewBox="0 0 1600 1200" fill="none">
  <defs>
    <linearGradient id="compare-dock-bg" x1="0" y1="0" x2="1600" y2="1200" gradientUnits="userSpaceOnUse">
      <stop offset="0" stop-color="#F7FAFD"/>
      <stop offset="1" stop-color="#EAEFF5"/>
    </linearGradient>
    <radialGradient id="compare-dock-glow" cx="0" cy="0" r="1" gradientUnits="userSpaceOnUse" gradientTransform="translate(1088 336.00000000000006) rotate(130) scale(608 408.00000000000006)">
      <stop stop-color="#FFFFFF" stop-opacity="0.95"/>
      <stop offset="1" stop-color="#FFFFFF" stop-opacity="0"/>
    </radialGradient>
    <radialGradient id="compare-dock-amber" cx="0" cy="0" r="1" gradientUnits="userSpaceOnUse" gradientTransform="translate(1312 888) rotate(130) scale(288 144)">
      <stop stop-color="#D7A24B" stop-opacity="0.26"/>
      <stop offset="1" stop-color="#D7A24B" stop-opacity="0"/>
    </radialGradient>
    <linearGradient id="compare-dock-panel" x1="0" y1="0" x2="0" y2="1">
      <stop stop-color="#FFFFFF"/>
      <stop offset="1" stop-color="#EEF3F8"/>
    </linearGradient>
    <linearGradient id="compare-dock-metal" x1="0" y1="0" x2="1" y2="1">
      <stop stop-color="#F8FBFF"/>
      <stop offset="0.45" stop-color="#C9D3DF"/>
      <stop offset="1" stop-color="#7E91AF"/>
    </linearGradient>
    <linearGradient id="compare-dock-metal-dark" x1="0" y1="0" x2="1" y2="1">
      <stop stop-color="#3B4758"/>
      <stop offset="1" stop-color="#111827"/>
    </linearGradient>
    <filter id="compare-dock-blur" x="-20%" y="-20%" width="140%" height="140%">
      <feGaussianBlur stdDeviation="28"/>
    </filter>
    <filter id="compare-dock-shadow" x="-40%" y="-40%" width="180%" height="200%">
      <feDropShadow dx="0" dy="24" stdDeviation="26" flood-color="#000814" flood-opacity="0.22"/>
    </filter>
    <pattern id="compare-dock-grid" width="84" height="84" patternUnits="userSpaceOnUse">
      <path d="M84 0H0V84" stroke="#D9E1EA" stroke-opacity=".4" stroke-width="1"/>
    </pattern>
  </defs>
  <rect width="1600" height="1200" fill="url(#compare-dock-bg)"/>
  <rect width="1600" height="1200" fill="url(#compare-dock-grid)" opacity=".55"/>
  <rect x="96" y="96" width="1408" height="960" rx="72" fill="#FBFDFF" fill-opacity=".68" stroke="#E3E8EF" stroke-opacity="1"/>
  <ellipse cx="832" cy="996" rx="480" ry="96" fill="#0B1120" fill-opacity=".08" filter="url(#compare-dock-blur)"/>
  <ellipse cx="832" cy="384" rx="544" ry="264" fill="url(#compare-dock-glow)"/>
  <ellipse cx="1312" cy="888" rx="288" ry="144" fill="url(#compare-dock-amber)"/>
    <g transform="translate(288 576) rotate(-2 448.00000000000006 96)">
      <ellipse cx="448.00000000000006" cy="176.64000000000001" rx="501.7600000000001" ry="34.56" fill="#0B1120" fill-opacity=".16" filter="url(#compare-dock-blur)"/>
      <g filter="url(#compare-dock-shadow)">
        <rect x="0" y="15.36" width="896.0000000000001" height="153.60000000000002" rx="28" fill="url(#compare-dock-metal-dark)" stroke="#465267"/>
        <rect x="53.760000000000005" y="26.880000000000003" width="788.4800000000001" height="23.04" rx="11.52" fill="rgba(255,255,255,.12)" opacity=".8"/>
        <rect x="89.60000000000002" y="23.04" width="465.9200000000001" height="15.36" rx="7.68" fill="#F4D28A" opacity=".42"/>
        <rect x="107.52000000000001" y="138.24" width="680.9600000000002" height="11.52" rx="5.76" fill="rgba(15,23,42,.08)"/>
        <rect x="143.36" y="90.24" width="77.77280000000002" height="14" rx="7" fill="#0A1020" fill-opacity=".82"/><rect x="268.80000000000007" y="90.24" width="77.77280000000002" height="14" rx="7" fill="#0A1020" fill-opacity=".82"/><rect x="394.24000000000007" y="90.24" width="77.77280000000002" height="14" rx="7" fill="#0A1020" fill-opacity=".82"/><rect x="519.6800000000001" y="90.24" width="77.77280000000002" height="14" rx="7" fill="#0A1020" fill-opacity=".82"/><rect x="645.1200000000001" y="90.24" width="77.77280000000002" height="14" rx="7" fill="#0A1020" fill-opacity=".82"/><rect x="770.5600000000002" y="90.24" width="77.77280000000002" height="14" rx="7" fill="#0A1020" fill-opacity=".82"/>
      </g>
      <path d="M806.4000000000001 99.84 C 913.9200000000002 80.64, 1039.3600000000001 34.56, 1093.1200000000001 23.04" stroke="#162033" stroke-width="15.36" stroke-linecap="round" opacity=".9"/><circle cx="1093.1200000000001" cy="23.04" r="11.52" fill="#162033"/>
    </g>
</svg>
