<?xml version="1.0" encoding="UTF-8"?>
<svg id="Layer_1" xmlns="http://www.w3.org/2000/svg" xmlns:xlink="http://www.w3.org/1999/xlink" version="1.1" viewBox="0 0 1600 1200">
  <!-- Generator: Adobe Illustrator 30.2.1, SVG Export Plug-In . SVG Version: 2.1.1 Build 1)  -->
  <defs>
    <style>
      .st0 {
        fill: url(#linear-gradient2);
      }

      .st1 {
        fill: url(#linear-gradient1);
      }

      .st2 {
        fill: url(#linear-gradient3);
      }

      .st3 {
        fill: url(#linear-gradient4);
      }

      .st4, .st5 {
        fill: #facc15;
      }

      .st6 {
        fill-opacity: .3;
      }

      .st6, .st7 {
        fill: #f8fafc;
      }

      .st7 {
        fill-opacity: .2;
      }

      .st8 {
        fill: url(#linear-gradient);
      }

      .st5 {
        fill-opacity: .8;
      }

      .st9 {
        fill: #111a2a;
        fill-opacity: .4;
      }
    </style>
    <linearGradient id="linear-gradient" x1="0" y1="600" x2="1600" y2="600" gradientUnits="userSpaceOnUse">
      <stop offset="0" stop-color="#111827"/>
      <stop offset=".4" stop-color="#364152"/>
      <stop offset="1" stop-color="#969eaa"/>
    </linearGradient>
    <linearGradient id="linear-gradient1" x1="2" y1="163.5" x2="1602" y2="22.8" gradientTransform="translate(0 1200) scale(1 -1)" gradientUnits="userSpaceOnUse">
      <stop offset="0" stop-color="#d8e0eb" stop-opacity=".1"/>
      <stop offset="1" stop-color="#97a5b8" stop-opacity=".2"/>
    </linearGradient>
    <linearGradient id="linear-gradient2" x1="732.5" y1="676.1" x2="1156.5" y2="412.1" gradientTransform="translate(0 1200) scale(1 -1)" gradientUnits="userSpaceOnUse">
      <stop offset="0" stop-color="#d4dce7"/>
      <stop offset=".5" stop-color="#8894a7"/>
      <stop offset="1" stop-color="#4a5669"/>
    </linearGradient>
    <linearGradient id="linear-gradient3" x1="760" y1="634" x2="1126" y2="456" gradientTransform="translate(0 1200) scale(1 -1)" gradientUnits="userSpaceOnUse">
      <stop offset="0" stop-color="#fff"/>
      <stop offset=".5" stop-color="#d7dfe9"/>
      <stop offset="1" stop-color="#b7c2d1"/>
    </linearGradient>
    <linearGradient id="linear-gradient4" x1="1070.8" y1="852" x2="1292.8" y2="696" gradientTransform="translate(0 1200) scale(1 -1)" gradientUnits="userSpaceOnUse">
      <stop offset="0" stop-color="#cad4e3"/>
      <stop offset="1" stop-color="#a9b6c8"/>
    </linearGradient>
  </defs>
  <rect class="st8" width="1600" height="1200"/>
  <path class="st1" d="M0,1059.3c217.9-74.9,463-118,735.3-115.7,276.9,2.3,531.1,61.3,864.7,183.8v72.6H0v-140.7Z"/>
  <g>
    <rect class="st0" x="714" y="520" width="458" height="270" rx="72" ry="72"/>
    <rect class="st2" x="760" y="566" width="366" height="178" rx="48" ry="48"/>
    <path class="st6" d="M821,620h190c3.9,0,7,3.1,7,7h0c0,3.9-3.1,7-7,7h-190c-3.9,0-7-3.1-7-7h0c0-3.9,3.1-7,7-7Z"/>
    <path class="st9" d="M824,668h96c5.5,0,10,4.5,10,10h0c0,5.5-4.5,10-10,10h-96c-5.5,0-10-4.5-10-10h0c0-5.5,4.5-10,10-10Z"/>
    <path class="st9" d="M958,668h64c5.5,0,10,4.5,10,10h0c0,5.5-4.5,10-10,10h-64c-5.5,0-10-4.5-10-10h0c0-5.5,4.5-10,10-10Z"/>
    <path class="st9" d="M1056,668h18c5.5,0,10,4.5,10,10h0c0,5.5-4.5,10-10,10h-18c-5.5,0-10-4.5-10-10h0c0-5.5,4.5-10,10-10Z"/>
  </g>
  <g>
    <rect class="st3" x="1054" y="340" width="250" height="168" rx="28" ry="28"/>
    <path class="st5" d="M1107,384h142c2.8,0,5,2.2,5,5h0c0,2.8-2.2,5-5,5h-142c-2.8,0-5-2.2-5-5h0c0-2.8,2.2-5,5-5Z"/>
    <path class="st7" d="M1107,416h100c2.8,0,5,2.2,5,5h0c0,2.8-2.2,5-5,5h-100c-2.8,0-5-2.2-5-5h0c0-2.8,2.2-5,5-5Z"/>
  </g>
  <circle class="st4" cx="746" cy="546" r="9"/>
</svg>