<svg width="1600" height="1200" viewBox="0 0 1600 1200" fill="none" xmlns="http://www.w3.org/2000/svg">
  <defs>
    <linearGradient id="bg-desk" x1="156" y1="90" x2="1402" y2="1108" gradientUnits="userSpaceOnUse">
      <stop stop-color="#EEF2F7"/>
      <stop offset="1" stop-color="#D4DCE7"/>
    </linearGradient>
    <radialGradient id="glow-desk" cx="0" cy="0" r="1" gradientUnits="userSpaceOnUse" gradientTransform="translate(1188 210) rotate(132.821) scale(480 330)">
      <stop stop-color="#FFF4C8"/>
      <stop offset="1" stop-color="#FFF4C8" stop-opacity="0"/>
    </radialGradient>
    <linearGradient id="device-desk" x1="726" y1="362" x2="1126" y2="922" gradientUnits="userSpaceOnUse">
      <stop stop-color="#8892A5"/>
      <stop offset="1" stop-color="#576274"/>
    </linearGradient>
  </defs>
  <rect width="1600" height="1200" rx="56" fill="url(#bg-desk)"/>
  <rect x="88" y="88" width="1424" height="1024" rx="52" fill="#F6F9FC" stroke="#E4EAF2"/>
  <ellipse cx="1188" cy="210" rx="480" ry="330" fill="url(#glow-desk)"/>
  <path d="M100 988C316 906 528 874 770 876C1034 878 1240 940 1500 1054V1112H100V988Z" fill="#D5DDE8"/>
  <rect x="748" y="346" width="404" height="618" rx="126" fill="url(#device-desk)"/>
  <rect x="820" y="438" width="260" height="430" rx="68" fill="#677287"/>
  <rect x="884" y="544" width="132" height="22" rx="11" fill="#AAB5C8"/>
  <rect x="872" y="598" width="156" height="18" rx="9" fill="#9EAABD"/>
  <rect x="862" y="648" width="176" height="18" rx="9" fill="#919DB1"/>
  <rect x="1082" y="560" width="32" height="118" rx="16" fill="#CBD4E0"/>
  <rect x="1082" y="710" width="32" height="118" rx="16" fill="#C0CAD7"/>
  <rect x="612" y="778" width="342" height="188" rx="58" fill="#6B768C"/>
  <rect x="656" y="822" width="254" height="100" rx="32" fill="#77829A"/>
  <path d="M1100 972C1200 950 1288 956 1398 1006C1324 1048 1246 1070 1162 1068C1088 1068 1018 1044 956 1008C1002 996 1050 986 1100 972Z" fill="#F3CC47" fill-opacity="0.4"/>
  <circle cx="490" cy="894" r="22" fill="#F3CC47" fill-opacity="0.92"/>
</svg>
