<svg width="1600" height="1200" viewBox="0 0 1600 1200" fill="none" xmlns="http://www.w3.org/2000/svg">
  <rect width="1600" height="1200" rx="56" fill="#F3F7FB"/>
  <rect x="88" y="88" width="1424" height="1024" rx="52" fill="url(#shell)" stroke="#E5EBF3"/>
  <ellipse cx="1206" cy="176" rx="450" ry="304" fill="url(#glow)"/>
  <ellipse cx="1136" cy="1008" rx="530" ry="170" fill="url(#baseGlow)"/>
  <rect x="132" y="182" width="214" height="8" rx="4" fill="url(#accent)"/>
  <path d="M96 988C292 912 514 880 762 884C1010 888 1228 944 1504 1048V1112H96V988Z" fill="url(#plane)"/>
  <g filter="url(#shadowMonitor)">
    <rect x="1010" y="220" width="300" height="194" rx="30" fill="url(#monitor)"/>
    <rect x="1062" y="262" width="196" height="110" rx="18" fill="#F8FAFC" fill-opacity="0.18"/>
  </g>
  <g filter="url(#shadowDock)">
    <rect x="784" y="346" width="430" height="636" rx="82" fill="url(#dockBody)"/>
    <rect x="836" y="396" width="326" height="534" rx="58" fill="url(#dockFace)"/>
    <rect x="878" y="448" width="214" height="18" rx="9" fill="#F8FAFC" fill-opacity="0.3"/>
    <rect x="878" y="502" width="158" height="14" rx="7" fill="#F8FAFC" fill-opacity="0.18"/>
    <rect x="858" y="614" width="282" height="154" rx="46" fill="url(#screenGlow)"/>
    <rect x="910" y="656" width="178" height="68" rx="26" fill="#F8FAFC" fill-opacity="0.18"/>
    <rect x="820" y="754" width="30" height="102" rx="15" fill="#A8B4C6"/>
    <rect x="820" y="876" width="30" height="48" rx="15" fill="#A8B4C6"/>
    <rect x="1138" y="656" width="34" height="74" rx="17" fill="#9AA6BA"/>
    <rect x="1138" y="748" width="34" height="92" rx="17" fill="#9AA6BA"/>
    <rect x="1138" y="856" width="34" height="68" rx="17" fill="#9AA6BA"/>
  </g>
  <path d="M1122 956C1204 930 1298 932 1388 966" stroke="url(#cable)" stroke-width="14" stroke-linecap="round"/>
  <circle cx="806" cy="372" r="10" fill="#FACC15"/>
  <defs>
    <linearGradient id="shell" x1="198" y1="100" x2="1402" y2="1124" gradientUnits="userSpaceOnUse">
      <stop stop-color="#F8FAFD"/>
      <stop offset="1" stop-color="#DEE6F1"/>
    </linearGradient>
    <radialGradient id="glow" cx="0" cy="0" r="1" gradientUnits="userSpaceOnUse" gradientTransform="translate(1206 176) rotate(145.126) scale(502.811 338.379)">
      <stop stop-color="#FFFFFF" stop-opacity="0.92"/>
      <stop offset="1" stop-color="#FFFFFF" stop-opacity="0"/>
    </radialGradient>
    <radialGradient id="baseGlow" cx="0" cy="0" r="1" gradientUnits="userSpaceOnUse" gradientTransform="translate(1136 1008) rotate(90) scale(170 530)">
      <stop stop-color="#FACC15" stop-opacity="0.18"/>
      <stop offset="1" stop-color="#FACC15" stop-opacity="0"/>
    </radialGradient>
    <linearGradient id="accent" x1="132" y1="186" x2="346" y2="186" gradientUnits="userSpaceOnUse">
      <stop stop-color="#FACC15"/>
      <stop offset="1" stop-color="#FACC15" stop-opacity="0"/>
    </linearGradient>
    <linearGradient id="plane" x1="96" y1="988" x2="1504" y2="1112" gradientUnits="userSpaceOnUse">
      <stop stop-color="#D6DFEA" stop-opacity="0.14"/>
      <stop offset="1" stop-color="#95A4B6" stop-opacity="0.18"/>
    </linearGradient>
    <linearGradient id="monitor" x1="1024" y1="230" x2="1298" y2="414" gradientUnits="userSpaceOnUse">
      <stop stop-color="#E5EDF6" stop-opacity="0.86"/>
      <stop offset="1" stop-color="#BDCAD9" stop-opacity="0.42"/>
    </linearGradient>
    <linearGradient id="dockBody" x1="812" y1="360" x2="1188" y2="982" gradientUnits="userSpaceOnUse">
      <stop stop-color="#D3DBE7"/>
      <stop offset="0.54" stop-color="#7C879A"/>
      <stop offset="1" stop-color="#344153"/>
    </linearGradient>
    <linearGradient id="dockFace" x1="836" y1="396" x2="1162" y2="930" gradientUnits="userSpaceOnUse">
      <stop stop-color="#AFBBCB"/>
      <stop offset="0.48" stop-color="#5C687B"/>
      <stop offset="1" stop-color="#212D3C"/>
    </linearGradient>
    <radialGradient id="screenGlow" cx="0" cy="0" r="1" gradientUnits="userSpaceOnUse" gradientTransform="translate(998 691) rotate(90) scale(77 141)">
      <stop stop-color="#F8FAFC" stop-opacity="0.36"/>
      <stop offset="1" stop-color="#94A3B8" stop-opacity="0.16"/>
    </radialGradient>
    <linearGradient id="cable" x1="1122" y1="962" x2="1388" y2="962" gradientUnits="userSpaceOnUse">
      <stop stop-color="#FACC15" stop-opacity="0.74"/>
      <stop offset="1" stop-color="#94A3B8" stop-opacity="0.24"/>
    </linearGradient>
    <filter id="shadowMonitor" x="984" y="190" width="352" height="256" filterUnits="userSpaceOnUse" color-interpolation-filters="sRGB">
      <feFlood flood-opacity="0" result="BackgroundImageFix"/>
      <feColorMatrix in="SourceAlpha" type="matrix" values="0 0 0 0 0 0 0 0 0 0 0 0 0 0 0 0 0 0 127 0" result="hardAlpha"/>
      <feOffset dy="16"/>
      <feGaussianBlur stdDeviation="13"/>
      <feColorMatrix type="matrix" values="0 0 0 0 0.0588235 0 0 0 0 0.0901961 0 0 0 0 0.160784 0 0 0 0.12 0"/>
      <feBlend mode="normal" in2="BackgroundImageFix" result="effect1_dropShadow"/>
      <feBlend mode="normal" in="SourceGraphic" in2="effect1_dropShadow" result="shape"/>
    </filter>
    <filter id="shadowDock" x="734" y="310" width="532" height="726" filterUnits="userSpaceOnUse" color-interpolation-filters="sRGB">
      <feFlood flood-opacity="0" result="BackgroundImageFix"/>
      <feColorMatrix in="SourceAlpha" type="matrix" values="0 0 0 0 0 0 0 0 0 0 0 0 0 0 0 0 0 0 127 0" result="hardAlpha"/>
      <feOffset dx="-18" dy="28"/>
      <feGaussianBlur stdDeviation="22"/>
      <feColorMatrix type="matrix" values="0 0 0 0 0.0588235 0 0 0 0 0.0901961 0 0 0 0 0.160784 0 0 0 0.2 0"/>
      <feBlend mode="normal" in2="BackgroundImageFix" result="effect1_dropShadow"/>
      <feBlend mode="normal" in="SourceGraphic" in2="effect1_dropShadow" result="shape"/>
    </filter>
  </defs>
</svg>
