<?xml version="1.0" encoding="UTF-8"?>
<svg id="Layer_1" xmlns="http://www.w3.org/2000/svg" xmlns:xlink="http://www.w3.org/1999/xlink" version="1.1" viewBox="0 0 1600 1200">
  <!-- Generator: Adobe Illustrator 30.2.1, SVG Export Plug-In . SVG Version: 2.1.1 Build 1)  -->
  <defs>
    <style>
      .st0 {
        fill: url(#linear-gradient2);
      }

      .st1 {
        fill: url(#linear-gradient1);
      }

      .st2 {
        fill: url(#linear-gradient3);
      }

      .st3 {
        fill: url(#linear-gradient4);
      }

      .st4 {
        fill-opacity: .2;
      }

      .st4, .st5 {
        fill: #f8fafc;
      }

      .st5, .st6 {
        fill-opacity: .3;
      }

      .st7 {
        fill: #172131;
        fill-opacity: .4;
      }

      .st8 {
        fill: url(#linear-gradient);
      }

      .st9 {
        fill-opacity: .9;
      }

      .st9, .st10 {
        fill: #facc15;
      }

      .st10 {
        fill-opacity: .8;
      }

      .st11 {
        fill: #d6dee8;
      }

      .st6 {
        fill: #fff;
      }
    </style>
    <linearGradient id="linear-gradient" x1="-.5" y1="599.5" x2="1599.5" y2="599.5" gradientUnits="userSpaceOnUse">
      <stop offset="0" stop-color="#111827"/>
      <stop offset=".4" stop-color="#364152"/>
      <stop offset="1" stop-color="#969eaa"/>
    </linearGradient>
    <linearGradient id="linear-gradient1" x1="1.7" y1="168.1" x2="1601.7" y2="24.5" gradientTransform="translate(0 1200) scale(1 -1)" gradientUnits="userSpaceOnUse">
      <stop offset="0" stop-color="#d5dde9" stop-opacity=".1"/>
      <stop offset="1" stop-color="#95a4b6" stop-opacity=".2"/>
    </linearGradient>
    <linearGradient id="linear-gradient2" x1="520.6" y1="715.8" x2="1028.6" y2="401.8" gradientTransform="translate(0 1200) scale(1 -1)" gradientUnits="userSpaceOnUse">
      <stop offset="0" stop-color="#d6dee8"/>
      <stop offset=".5" stop-color="#8894a7"/>
      <stop offset="1" stop-color="#516073"/>
    </linearGradient>
    <linearGradient id="linear-gradient3" x1="559" y1="666" x2="983" y2="456" gradientTransform="translate(0 1200) scale(1 -1)" gradientUnits="userSpaceOnUse">
      <stop offset="0" stop-color="#f9fbfd"/>
      <stop offset=".5" stop-color="#d7e0ea"/>
      <stop offset="1" stop-color="#bac5d4"/>
    </linearGradient>
    <linearGradient id="linear-gradient4" x1="968.4" y1="848.1" x2="1190.4" y2="702.1" gradientTransform="translate(0 1200) scale(1 -1)" gradientUnits="userSpaceOnUse">
      <stop offset="0" stop-color="#e7eef7" stop-opacity=".9"/>
      <stop offset="1" stop-color="#c9d4e3" stop-opacity=".5"/>
    </linearGradient>
  </defs>
  <rect class="st8" x="-.5" y="-.5" width="1600" height="1200"/>
  <path class="st1" d="M-.5,1056.4c230.2-86.6,483.2-127.6,765.8-120.8,284.9,9.1,526.5,72.9,834.2,191.5v72.9H-.5v-143.6Z"/>
  <g>
    <rect class="st0" x="491" y="474" width="560" height="330" rx="96" ry="96"/>
    <rect class="st2" x="559" y="534" width="424" height="210" rx="64" ry="64"/>
    <path class="st5" d="M626,594h180c5,0,9,4,9,9h0c0,5-4,9-9,9h-180c-5,0-9-4-9-9h0c0-5,4-9,9-9Z"/>
    <path class="st4" d="M625,640h234c4.4,0,8,3.6,8,8h0c0,4.4-3.6,8-8,8h-234c-4.4,0-8-3.6-8-8h0c0-4.4,3.6-8,8-8Z"/>
    <path class="st7" d="M628,686h68c6.1,0,11,4.9,11,11h0c0,6.1-4.9,11-11,11h-68c-6.1,0-11-4.9-11-11h0c0-6.1,4.9-11,11-11Z"/>
    <path class="st7" d="M736,686h90c6.1,0,11,4.9,11,11h0c0,6.1-4.9,11-11,11h-90c-6.1,0-11-4.9-11-11h0c0-6.1,4.9-11,11-11Z"/>
    <path class="st7" d="M864,686h44c6.1,0,11,4.9,11,11h0c0,6.1-4.9,11-11,11h-44c-6.1,0-11-4.9-11-11h0c0-6.1,4.9-11,11-11Z"/>
    <path class="st11" d="M949,634h0c8.8,0,16,7.2,16,16v72c0,8.8-7.2,16-16,16h0c-8.8,0-16-7.2-16-16v-72c0-8.8,7.2-16,16-16Z"/>
  </g>
  <g>
    <rect class="st3" x="955" y="344" width="240" height="156" rx="28" ry="28"/>
    <path class="st10" d="M1007,386h106c3.3,0,6,2.7,6,6h0c0,3.3-2.7,6-6,6h-106c-3.3,0-6-2.7-6-6h0c0-3.3,2.7-6,6-6Z"/>
    <path class="st6" d="M1006,420h158c2.8,0,5,2.2,5,5h0c0,2.8-2.2,5-5,5h-158c-2.8,0-5-2.2-5-5h0c0-2.8,2.2-5,5-5Z"/>
  </g>
  <circle class="st9" cx="559" cy="474" r="24"/>
</svg>