<?xml version="1.0" encoding="UTF-8"?>
<svg id="Layer_1" xmlns="http://www.w3.org/2000/svg" xmlns:xlink="http://www.w3.org/1999/xlink" version="1.1" viewBox="0 0 1600 1200">
  <!-- Generator: Adobe Illustrator 30.2.1, SVG Export Plug-In . SVG Version: 2.1.1 Build 1)  -->
  <defs>
    <style>
      .st0 {
        fill: url(#linear-gradient2);
      }

      .st1 {
        fill: url(#linear-gradient1);
      }

      .st2 {
        fill: url(#linear-gradient3);
      }

      .st3 {
        fill: url(#linear-gradient4);
      }

      .st4 {
        fill: #facc15;
      }

      .st5 {
        fill-opacity: .2;
      }

      .st5, .st6 {
        fill: #f8fafc;
      }

      .st6 {
        fill-opacity: .3;
      }

      .st7 {
        fill: url(#radial-gradient);
      }

      .st8 {
        fill: url(#linear-gradient);
      }

      .st9 {
        fill: #a8b4c6;
      }

      .st10 {
        fill: #9aa6ba;
      }
    </style>
    <linearGradient id="linear-gradient" x1="0" y1="600" x2="1600" y2="600" gradientUnits="userSpaceOnUse">
      <stop offset="0" stop-color="#111827"/>
      <stop offset=".4" stop-color="#364152"/>
      <stop offset="1" stop-color="#969eaa"/>
    </linearGradient>
    <linearGradient id="linear-gradient1" x1="2.1" y1="158.2" x2="1602.1" y2="17.3" gradientTransform="translate(0 1200) scale(1 -1)" gradientUnits="userSpaceOnUse">
      <stop offset="0" stop-color="#d6dfea" stop-opacity=".1"/>
      <stop offset="1" stop-color="#95a4b6" stop-opacity=".2"/>
    </linearGradient>
    <linearGradient id="linear-gradient2" x1="1107" y1="1046.7" x2="1435" y2="826.4" gradientTransform="translate(0 1200) scale(1 -1)" gradientUnits="userSpaceOnUse">
      <stop offset="0" stop-color="#e5edf6" stop-opacity=".9"/>
      <stop offset="1" stop-color="#bdcad9" stop-opacity=".4"/>
    </linearGradient>
    <linearGradient id="linear-gradient3" x1="855.1" y1="894.6" x2="1306.4" y2="147.9" gradientTransform="translate(0 1200) scale(1 -1)" gradientUnits="userSpaceOnUse">
      <stop offset="0" stop-color="#d3dbe7"/>
      <stop offset=".5" stop-color="#7c879a"/>
      <stop offset="1" stop-color="#344153"/>
    </linearGradient>
    <linearGradient id="linear-gradient4" x1="881.4" y1="849" x2="1272" y2="209.2" gradientTransform="translate(0 1200) scale(1 -1)" gradientUnits="userSpaceOnUse">
      <stop offset="0" stop-color="#afbbcb"/>
      <stop offset=".5" stop-color="#5c687b"/>
      <stop offset="1" stop-color="#212d3c"/>
    </linearGradient>
    <radialGradient id="radial-gradient" cx="490.8" cy="939" fx="490.8" fy="939" r="1.2" gradientTransform="translate(-131330 -37089) rotate(90) scale(77 -141)" gradientUnits="userSpaceOnUse">
      <stop offset="0" stop-color="#f8fafc" stop-opacity=".4"/>
      <stop offset="1" stop-color="#94a3b8" stop-opacity=".2"/>
    </radialGradient>
  </defs>
  <rect class="st8" width="1600" height="1200"/>
  <path class="st1" d="M0,1066c222.7-86.4,475-122.7,756.8-118.2s529.5,68.2,843.2,186.4v72.7H0v-140.9Z"/>
  <g>
    <rect class="st0" x="1089.7" y="146.2" width="355.3" height="229.8" rx="30" ry="30"/>
    <rect class="st5" x="1151.3" y="195.9" width="232.1" height="130.3" rx="18" ry="18"/>
  </g>
  <g>
    <rect class="st2" x="822.1" y="295.4" width="509.3" height="753.3" rx="82" ry="82"/>
    <rect class="st3" x="883.7" y="354.6" width="386.1" height="632.5" rx="58" ry="58"/>
    <path class="st6" d="M944.1,416.2h232.1c5.9,0,10.7,4.8,10.7,10.7h0c0,5.9-4.8,10.7-10.7,10.7h-232.1c-5.9,0-10.7-4.8-10.7-10.7h0c0-5.9,4.8-10.7,10.7-10.7Z"/>
    <path class="st5" d="M941.7,480.2h170.6c4.6,0,8.3,3.7,8.3,8.3h0c0,4.6-3.7,8.3-8.3,8.3h-170.6c-4.6,0-8.3-3.7-8.3-8.3h0c0-4.6,3.7-8.3,8.3-8.3Z"/>
    <rect class="st7" x="909.7" y="612.8" width="334" height="182.4" rx="46" ry="46"/>
    <rect class="st5" x="971.3" y="662.6" width="210.8" height="80.5" rx="26" ry="26"/>
    <path class="st9" d="M882.5,778.7h0c9.8,0,17.8,8,17.8,17.8v85.3c0,9.8-8,17.8-17.8,17.8h0c-9.8,0-17.8-8-17.8-17.8v-85.3c0-9.8,8-17.8,17.8-17.8Z"/>
    <path class="st9" d="M882.5,923.2h0c9.8,0,17.8,8,17.8,17.8v21.3c0,9.8-8,17.8-17.8,17.8h0c-9.8,0-17.8-8-17.8-17.8v-21.3c0-9.8,8-17.8,17.8-17.8Z"/>
    <path class="st10" d="M1261.5,662.6h0c11.1,0,20.1,9,20.1,20.1v47.4c0,11.1-9,20.1-20.1,20.1h0c-11.1,0-20.1-9-20.1-20.1v-47.4c0-11.1,9-20.1,20.1-20.1Z"/>
    <path class="st10" d="M1261.5,771.6h0c11.1,0,20.1,9,20.1,20.1v68.7c0,11.1-9,20.1-20.1,20.1h0c-11.1,0-20.1-9-20.1-20.1v-68.7c0-11.1,9-20.1,20.1-20.1Z"/>
    <path class="st10" d="M1261.5,899.5h0c11.1,0,20.1,9,20.1,20.1v40.3c0,11.1-9,20.1-20.1,20.1h0c-11.1,0-20.1-9-20.1-20.1v-40.3c0-11.1,9-20.1,20.1-20.1Z"/>
  </g>
  <circle class="st4" cx="841" cy="314.2" r="53.2"/>
</svg>