<svg width="1600" height="1200" viewBox="0 0 1600 1200" fill="none" xmlns="http://www.w3.org/2000/svg">
  <rect width="1600" height="1200" rx="56" fill="#F5F7FB"/>
  <rect x="88" y="88" width="1424" height="1024" rx="52" fill="url(#shell)" stroke="#E5EBF3"/>
  <ellipse cx="1168" cy="212" rx="454" ry="310" fill="url(#glow)"/>
  <ellipse cx="1114" cy="1002" rx="520" ry="164" fill="url(#baseGlow)"/>
  <rect x="132" y="182" width="214" height="8" rx="4" fill="url(#accent)"/>
  <path d="M96 986C298 910 520 874 768 880C1018 888 1230 944 1500 1048V1112H96V986Z" fill="url(#plane)"/>
  <g filter="url(#shadowLead)">
    <rect x="592" y="454" width="560" height="330" rx="96" fill="url(#deviceBody)"/>
    <rect x="660" y="514" width="424" height="210" rx="64" fill="url(#deviceFace)"/>
    <rect x="718" y="574" width="198" height="18" rx="9" fill="#F8FAFC" fill-opacity="0.34"/>
    <rect x="718" y="620" width="250" height="16" rx="8" fill="#F8FAFC" fill-opacity="0.18"/>
    <rect x="718" y="666" width="90" height="22" rx="11" fill="#172131" fill-opacity="0.4"/>
    <rect x="826" y="666" width="112" height="22" rx="11" fill="#172131" fill-opacity="0.4"/>
    <rect x="954" y="666" width="66" height="22" rx="11" fill="#172131" fill-opacity="0.4"/>
    <rect x="1034" y="614" width="32" height="104" rx="16" fill="#D6DEE8"/>
  </g>
  <g filter="url(#shadowCard)">
    <rect x="1056" y="324" width="240" height="156" rx="28" fill="url(#card)"/>
    <rect x="1102" y="366" width="118" height="12" rx="6" fill="#FACC15" fill-opacity="0.84"/>
    <rect x="1102" y="400" width="168" height="10" rx="5" fill="#FFFFFF" fill-opacity="0.34"/>
  </g>
  <circle cx="472" cy="864" r="24" fill="#FACC15" fill-opacity="0.88"/>
  <defs>
    <linearGradient id="shell" x1="168" y1="96" x2="1402" y2="1098" gradientUnits="userSpaceOnUse">
      <stop stop-color="#F8FAFD"/>
      <stop offset="1" stop-color="#DDE4EF"/>
    </linearGradient>
    <radialGradient id="glow" cx="0" cy="0" r="1" gradientUnits="userSpaceOnUse" gradientTransform="translate(1168 212) rotate(142.11) scale(502.542 340.639)">
      <stop stop-color="#FFF7D1"/>
      <stop offset="1" stop-color="#FFF7D1" stop-opacity="0"/>
    </radialGradient>
    <radialGradient id="baseGlow" cx="0" cy="0" r="1" gradientUnits="userSpaceOnUse" gradientTransform="translate(1114 1002) rotate(90) scale(164 520)">
      <stop stop-color="#FACC15" stop-opacity="0.18"/>
      <stop offset="1" stop-color="#FACC15" stop-opacity="0"/>
    </radialGradient>
    <linearGradient id="accent" x1="132" y1="186" x2="346" y2="186" gradientUnits="userSpaceOnUse">
      <stop stop-color="#FACC15"/>
      <stop offset="1" stop-color="#FACC15" stop-opacity="0"/>
    </linearGradient>
    <linearGradient id="plane" x1="96" y1="986" x2="1500" y2="1112" gradientUnits="userSpaceOnUse">
      <stop stop-color="#D5DDE9" stop-opacity="0.14"/>
      <stop offset="1" stop-color="#95A4B6" stop-opacity="0.18"/>
    </linearGradient>
    <linearGradient id="deviceBody" x1="618" y1="470" x2="1126" y2="784" gradientUnits="userSpaceOnUse">
      <stop stop-color="#D6DEE8"/>
      <stop offset="0.54" stop-color="#8894A7"/>
      <stop offset="1" stop-color="#516073"/>
    </linearGradient>
    <linearGradient id="deviceFace" x1="660" y1="514" x2="1084" y2="724" gradientUnits="userSpaceOnUse">
      <stop stop-color="#F9FBFD"/>
      <stop offset="0.48" stop-color="#D7E0EA"/>
      <stop offset="1" stop-color="#BAC5D4"/>
    </linearGradient>
    <linearGradient id="card" x1="1068" y1="334" x2="1290" y2="480" gradientUnits="userSpaceOnUse">
      <stop stop-color="#E7EEF7" stop-opacity="0.92"/>
      <stop offset="1" stop-color="#C9D4E3" stop-opacity="0.5"/>
    </linearGradient>
    <filter id="shadowLead" x="544" y="418" width="654" height="418" filterUnits="userSpaceOnUse" color-interpolation-filters="sRGB">
      <feFlood flood-opacity="0" result="BackgroundImageFix"/>
      <feColorMatrix in="SourceAlpha" type="matrix" values="0 0 0 0 0 0 0 0 0 0 0 0 0 0 0 0 0 0 127 0" result="hardAlpha"/>
      <feOffset dx="-14" dy="22"/>
      <feGaussianBlur stdDeviation="18"/>
      <feColorMatrix type="matrix" values="0 0 0 0 0.0588235 0 0 0 0 0.0901961 0 0 0 0 0.160784 0 0 0 0.16 0"/>
      <feBlend mode="normal" in2="BackgroundImageFix" result="effect1_dropShadow"/>
      <feBlend mode="normal" in="SourceGraphic" in2="effect1_dropShadow" result="shape"/>
    </filter>
    <filter id="shadowCard" x="1032" y="308" width="294" height="204" filterUnits="userSpaceOnUse" color-interpolation-filters="sRGB">
      <feFlood flood-opacity="0" result="BackgroundImageFix"/>
      <feColorMatrix in="SourceAlpha" type="matrix" values="0 0 0 0 0 0 0 0 0 0 0 0 0 0 0 0 0 0 127 0" result="hardAlpha"/>
      <feOffset dy="14"/>
      <feGaussianBlur stdDeviation="12"/>
      <feColorMatrix type="matrix" values="0 0 0 0 0.0588235 0 0 0 0 0.0901961 0 0 0 0 0.160784 0 0 0 0.1 0"/>
      <feBlend mode="normal" in2="BackgroundImageFix" result="effect1_dropShadow"/>
      <feBlend mode="normal" in="SourceGraphic" in2="effect1_dropShadow" result="shape"/>
    </filter>
  </defs>
</svg>
