<?xml version="1.0" encoding="UTF-8"?>
<svg width="150px" height="150px" viewBox="0 0 150 150" version="1.1" xmlns="http://www.w3.org/2000/svg" xmlns:xlink="http://www.w3.org/1999/xlink">
    <title>Favicon</title>
    <defs>
        <path d="M0,0 L150,0 L150,150 L0,150 L0,0 Z" id="path-1"></path>
    </defs>
    <g id="Favicon" stroke="none" fill="none" xlink:href="#path-1" fill-rule="evenodd">
        <use fill="#FADB08" xlink:href="#path-1"></use>
        <g id="Group" stroke-width="1" transform="translate(4, 55)" fill="#000000">
            <path d="M74.8557116,8.69444112 L46.598778,8.69444112 L46.598778,4.57949797e-13 L81.997574,4.57949797e-13 C85.723763,4.57949797e-13 88.8289206,3.10515754 88.8289206,6.83134659 C88.8289206,9.00495687 87.5868576,11.1785671 86.0342788,12.4206302 L60.2614712,29.4989966 L89.4499521,29.4989966 L89.4499521,38.1934378 L52.8090931,38.1934378 C49.082904,38.1934378 45.9777465,35.0882802 45.9777465,31.3620912 C45.9777465,28.8779651 47.2198095,26.7043549 49.082904,25.7728076 L74.8557116,8.69444112 Z" id="Path" fill-rule="nonzero"></path>
            <path d="M8.38392536,25.4622918 L8.38392536,23.2886816 L43.4722056,23.2886816 L43.4722056,14.5942404 L8.38392536,14.5942404 L8.38392536,12.4206302 C8.38392536,10.2470199 9.93650413,8.69444112 12.1101144,8.69444112 L43.4722056,8.69444112 L43.4722056,0 L9.93650413,0 C4.65773631,0 0,4.34722056 0,9.62598838 L0,28.5674494 C0,33.8462172 4.96825207,38.1934378 9.93650413,38.1934378 L43.7827213,38.1934378 L43.7827213,29.1884809 L12.4206302,29.1884809 C10.2470199,29.1884809 8.38392536,27.6359021 8.38392536,25.4622918 Z" id="Path" fill-rule="nonzero"></path>
            <path d="M143,39.124985 L134.92659,30.7410597 C134.92659,30.1200282 135.237106,29.4989966 135.237106,28.8779651 L135.237106,9.93650413 C135.237106,4.65773631 130.268854,0.310515754 125.300602,0.310515754 L101.390889,0.310515754 C96.1121211,0.310515754 91.4543848,4.65773631 91.4543848,9.93650413 L91.4543848,28.8779651 C91.4543848,34.156733 96.4226369,38.5039535 101.390889,38.5039535 L125.300602,38.5039535 C126.232149,38.5039535 127.474212,38.1934378 128.40576,37.882922 L130.57937,39.4355008 L143,39.124985 Z M126.853181,24.2202288 C126.232149,23.5991973 125.921634,23.2886816 124.990086,22.3571343 C123.126992,22.3571343 117.848224,22.3571343 114.122035,22.3571343 C115.053582,23.2886816 118.779771,26.3938391 121.574413,28.8779651 L103.875015,28.8779651 C101.701405,28.8779651 100.148826,27.3253864 100.148826,25.1517761 L100.148826,12.4206302 C100.148826,10.2470199 101.701405,8.69444112 103.875015,8.69444112 L123.126992,8.69444112 C125.300602,8.69444112 126.853181,10.2470199 126.853181,12.4206302 L126.853181,24.2202288 Z" id="Shape" fill-rule="nonzero"></path>
        </g>
    </g>
</svg>