<?xml version="1.0" encoding="UTF-8"?>
<svg xmlns="http://www.w3.org/2000/svg" width="1800" height="2400" viewBox="0 0 1800 2400" fill="none">
  <defs>
    <linearGradient id="hero-mobile-bg" x1="0" y1="0" x2="1800" y2="2400" gradientUnits="userSpaceOnUse">
      <stop offset="0" stop-color="#0A1020"/>
      <stop offset="1" stop-color="#141D2F"/>
    </linearGradient>
    <radialGradient id="hero-mobile-glow" cx="0" cy="0" r="1" gradientUnits="userSpaceOnUse" gradientTransform="translate(1224 672.0000000000001) rotate(130) scale(684 816.0000000000001)">
      <stop stop-color="#22304A" stop-opacity="0.38"/>
      <stop offset="1" stop-color="#22304A" stop-opacity="0"/>
    </radialGradient>
    <radialGradient id="hero-mobile-amber" cx="0" cy="0" r="1" gradientUnits="userSpaceOnUse" gradientTransform="translate(1476 1776) rotate(130) scale(324 288)">
      <stop stop-color="#D7A24B" stop-opacity="0.26"/>
      <stop offset="1" stop-color="#D7A24B" stop-opacity="0"/>
    </radialGradient>
    <linearGradient id="hero-mobile-panel" x1="0" y1="0" x2="0" y2="1">
      <stop stop-color="#FFFFFF"/>
      <stop offset="1" stop-color="#EEF3F8"/>
    </linearGradient>
    <linearGradient id="hero-mobile-metal" x1="0" y1="0" x2="1" y2="1">
      <stop stop-color="#F8FBFF"/>
      <stop offset="0.45" stop-color="#C9D3DF"/>
      <stop offset="1" stop-color="#7E91AF"/>
    </linearGradient>
    <linearGradient id="hero-mobile-metal-dark" x1="0" y1="0" x2="1" y2="1">
      <stop stop-color="#3B4758"/>
      <stop offset="1" stop-color="#111827"/>
    </linearGradient>
    <filter id="hero-mobile-blur" x="-20%" y="-20%" width="140%" height="140%">
      <feGaussianBlur stdDeviation="28"/>
    </filter>
    <filter id="hero-mobile-shadow" x="-40%" y="-40%" width="180%" height="200%">
      <feDropShadow dx="0" dy="24" stdDeviation="26" flood-color="#000814" flood-opacity="0.22"/>
    </filter>
    <pattern id="hero-mobile-grid" width="84" height="84" patternUnits="userSpaceOnUse">
      <path d="M84 0H0V84" stroke="#D9E1EA" stroke-opacity=".08" stroke-width="1"/>
    </pattern>
  </defs>
  <rect width="1800" height="2400" fill="url(#hero-mobile-bg)"/>
  <rect width="1800" height="2400" fill="url(#hero-mobile-grid)" opacity=".38"/>
  <rect x="108" y="192" width="1584" height="1920" rx="144" fill="#0F172A" fill-opacity=".22" stroke="rgba(255,255,255,.08)" stroke-opacity=".4"/>
  <ellipse cx="936" cy="1992" rx="540" ry="192" fill="#0B1120" fill-opacity=".22" filter="url(#hero-mobile-blur)"/>
  <ellipse cx="936" cy="768" rx="612" ry="528" fill="url(#hero-mobile-glow)"/>
  <ellipse cx="1476" cy="1776" rx="324" ry="288" fill="url(#hero-mobile-amber)"/>
    <g transform="translate(162 1344.0000000000002) rotate(-14 234 120)">
      <ellipse cx="234" cy="220.8" rx="262.08000000000004" ry="43.199999999999996" fill="#0B1120" fill-opacity=".16" filter="url(#hero-mobile-blur)"/>
      <g filter="url(#hero-mobile-shadow)">
        <rect x="0" y="19.2" width="468" height="192" rx="28" fill="url(#hero-mobile-metal)" stroke="#D8E0E8"/>
        <rect x="28.08" y="33.6" width="411.84" height="28.799999999999997" rx="14.399999999999999" fill="rgba(255,255,255,.8)" opacity=".8"/>
        <rect x="46.800000000000004" y="28.799999999999997" width="243.36" height="19.2" rx="9.6" fill="#F4D28A" opacity=".42"/>
        <rect x="56.16" y="172.79999999999998" width="355.68" height="14.399999999999999" rx="7.199999999999999" fill="rgba(15,23,42,.08)"/>
        <rect x="74.88" y="112.8" width="40.622400000000006" height="14" rx="7" fill="#1E293B" fill-opacity=".82"/><rect x="140.4" y="112.8" width="40.622400000000006" height="14" rx="7" fill="#1E293B" fill-opacity=".82"/><rect x="205.92000000000002" y="112.8" width="40.622400000000006" height="14" rx="7" fill="#1E293B" fill-opacity=".82"/><rect x="271.44000000000005" y="112.8" width="40.622400000000006" height="14" rx="7" fill="#1E293B" fill-opacity=".82"/>
      </g>
      <path d="M421.2 124.80000000000001 C 477.36 100.8, 542.88 43.199999999999996, 570.96 28.799999999999997" stroke="#162033" stroke-width="19.2" stroke-linecap="round" opacity=".9"/><circle cx="570.96" cy="28.799999999999997" r="14.399999999999999" fill="#162033"/>
    </g>
    <g transform="translate(684 1152) rotate(4 288 144)">
      <ellipse cx="288" cy="264.96000000000004" rx="322.56000000000006" ry="51.839999999999996" fill="#0B1120" fill-opacity=".16" filter="url(#hero-mobile-blur)"/>
      <g filter="url(#hero-mobile-shadow)">
        <rect x="0" y="23.04" width="576" height="230.4" rx="28" fill="url(#hero-mobile-metal)" stroke="#D8E0E8"/>
        <rect x="34.56" y="40.32000000000001" width="506.88" height="34.56" rx="17.28" fill="rgba(255,255,255,.8)" opacity=".8"/>
        <rect x="57.6" y="34.56" width="299.52" height="23.04" rx="11.52" fill="#F4D28A" opacity=".42"/>
        <rect x="69.12" y="207.35999999999999" width="437.76" height="17.28" rx="8.64" fill="rgba(15,23,42,.08)"/>
        <rect x="92.16" y="135.35999999999999" width="49.99680000000001" height="14" rx="7" fill="#1E293B" fill-opacity=".82"/><rect x="172.8" y="135.35999999999999" width="49.99680000000001" height="14" rx="7" fill="#1E293B" fill-opacity=".82"/><rect x="253.44000000000003" y="135.35999999999999" width="49.99680000000001" height="14" rx="7" fill="#1E293B" fill-opacity=".82"/><rect x="334.08000000000004" y="135.35999999999999" width="49.99680000000001" height="14" rx="7" fill="#1E293B" fill-opacity=".82"/><rect x="414.72" y="135.35999999999999" width="49.99680000000001" height="14" rx="7" fill="#1E293B" fill-opacity=".82"/>
      </g>
      <path d="M518.4 149.76 C 587.52 120.96, 668.16 51.839999999999996, 702.72 34.56" stroke="#162033" stroke-width="23.04" stroke-linecap="round" opacity=".9"/><circle cx="702.72" cy="34.56" r="17.28" fill="#162033"/>
    </g>
    <g transform="translate(1044 480)">
      <rect x="37.44" y="0" width="336.96" height="285.12" rx="21.12" fill="url(#hero-mobile-panel)" stroke="#D6DEE8"/>
      <rect x="60.84" y="26.400000000000002" width="290.16" height="221.76" rx="15.84" fill="#F3F7FB"/>
      <rect x="0" y="285.12" width="468" height="52.800000000000004" rx="21.12" fill="url(#hero-mobile-metal)"/>
      <rect x="177.84" y="300.96" width="74.88" height="7.92" rx="3.696" fill="#90A0B5"/>
    </g>
    <g transform="translate(1188 1367.9999999999998) rotate(-3 180 120)">
      <ellipse cx="180" cy="220.8" rx="201.60000000000002" ry="43.199999999999996" fill="#0B1120" fill-opacity=".16" filter="url(#hero-mobile-blur)"/>
      <g filter="url(#hero-mobile-shadow)">
        <rect x="0" y="19.2" width="360" height="192" rx="28" fill="url(#hero-mobile-metal-dark)" stroke="#465267"/>
        <rect x="21.599999999999998" y="33.6" width="316.8" height="28.799999999999997" rx="14.399999999999999" fill="rgba(255,255,255,.12)" opacity=".8"/>
        
        <rect x="43.199999999999996" y="172.79999999999998" width="273.6" height="14.399999999999999" rx="7.199999999999999" fill="rgba(15,23,42,.08)"/>
        <rect x="57.6" y="112.8" width="31.248000000000005" height="14" rx="7" fill="#0A1020" fill-opacity=".82"/><rect x="108" y="112.8" width="31.248000000000005" height="14" rx="7" fill="#0A1020" fill-opacity=".82"/><rect x="158.4" y="112.8" width="31.248000000000005" height="14" rx="7" fill="#0A1020" fill-opacity=".82"/><rect x="208.8" y="112.8" width="31.248000000000005" height="14" rx="7" fill="#0A1020" fill-opacity=".82"/><rect x="259.20000000000005" y="112.8" width="31.248000000000005" height="14" rx="7" fill="#0A1020" fill-opacity=".82"/><rect x="309.6" y="112.8" width="31.248000000000005" height="14" rx="7" fill="#0A1020" fill-opacity=".82"/>
      </g>
      <path d="M324 124.80000000000001 C 367.2 100.8, 417.59999999999997 43.199999999999996, 439.2 28.799999999999997" stroke="#162033" stroke-width="19.2" stroke-linecap="round" opacity=".9"/><circle cx="439.2" cy="28.799999999999997" r="14.399999999999999" fill="#162033"/>
    </g>
</svg>
