<?xml version="1.0" encoding="UTF-8"?>
<svg xmlns="http://www.w3.org/2000/svg" width="3600" height="2250" viewBox="0 0 3600 2250" fill="none">
  <defs>
    <linearGradient id="hero-home-bg" x1="0" y1="0" x2="3600" y2="2250" gradientUnits="userSpaceOnUse">
      <stop offset="0" stop-color="#0A1020"/>
      <stop offset="1" stop-color="#141D2F"/>
    </linearGradient>
    <radialGradient id="hero-home-glow" cx="0" cy="0" r="1" gradientUnits="userSpaceOnUse" gradientTransform="translate(2448 630.0000000000001) rotate(130) scale(1368 765)">
      <stop stop-color="#22304A" stop-opacity="0.38"/>
      <stop offset="1" stop-color="#22304A" stop-opacity="0"/>
    </radialGradient>
    <radialGradient id="hero-home-amber" cx="0" cy="0" r="1" gradientUnits="userSpaceOnUse" gradientTransform="translate(2952 1665) rotate(130) scale(648 270)">
      <stop stop-color="#D7A24B" stop-opacity="0.26"/>
      <stop offset="1" stop-color="#D7A24B" stop-opacity="0"/>
    </radialGradient>
    <linearGradient id="hero-home-panel" x1="0" y1="0" x2="0" y2="1">
      <stop stop-color="#FFFFFF"/>
      <stop offset="1" stop-color="#EEF3F8"/>
    </linearGradient>
    <linearGradient id="hero-home-metal" x1="0" y1="0" x2="1" y2="1">
      <stop stop-color="#F8FBFF"/>
      <stop offset="0.45" stop-color="#C9D3DF"/>
      <stop offset="1" stop-color="#7E91AF"/>
    </linearGradient>
    <linearGradient id="hero-home-metal-dark" x1="0" y1="0" x2="1" y2="1">
      <stop stop-color="#3B4758"/>
      <stop offset="1" stop-color="#111827"/>
    </linearGradient>
    <filter id="hero-home-blur" x="-20%" y="-20%" width="140%" height="140%">
      <feGaussianBlur stdDeviation="28"/>
    </filter>
    <filter id="hero-home-shadow" x="-40%" y="-40%" width="180%" height="200%">
      <feDropShadow dx="0" dy="24" stdDeviation="26" flood-color="#000814" flood-opacity="0.22"/>
    </filter>
    <pattern id="hero-home-grid" width="84" height="84" patternUnits="userSpaceOnUse">
      <path d="M84 0H0V84" stroke="#D9E1EA" stroke-opacity=".08" stroke-width="1"/>
    </pattern>
  </defs>
  <rect width="3600" height="2250" fill="url(#hero-home-bg)"/>
  <rect width="3600" height="2250" fill="url(#hero-home-grid)" opacity=".38"/>
  <rect x="216" y="180" width="3168" height="1800" rx="135" fill="#0F172A" fill-opacity=".22" stroke="rgba(255,255,255,.08)" stroke-opacity=".4"/>
  <ellipse cx="1872" cy="1867.5" rx="1080" ry="180" fill="#0B1120" fill-opacity=".22" filter="url(#hero-home-blur)"/>
  <ellipse cx="1872" cy="720" rx="1224" ry="495" fill="url(#hero-home-glow)"/>
  <ellipse cx="2952" cy="1665" rx="648" ry="270" fill="url(#hero-home-amber)"/>
    <g transform="translate(324 1260.0000000000002) rotate(-14 468 112.5)">
      <ellipse cx="468" cy="207" rx="524.1600000000001" ry="40.5" fill="#0B1120" fill-opacity=".16" filter="url(#hero-home-blur)"/>
      <g filter="url(#hero-home-shadow)">
        <rect x="0" y="18" width="936" height="180" rx="28" fill="url(#hero-home-metal)" stroke="#D8E0E8"/>
        <rect x="56.16" y="31.500000000000004" width="823.68" height="27" rx="13.5" fill="rgba(255,255,255,.8)" opacity=".8"/>
        <rect x="93.60000000000001" y="27" width="486.72" height="18" rx="9" fill="#F4D28A" opacity=".42"/>
        <rect x="112.32" y="162" width="711.36" height="13.5" rx="6.75" fill="rgba(15,23,42,.08)"/>
        <rect x="149.76" y="105.75" width="81.24480000000001" height="14" rx="7" fill="#1E293B" fill-opacity=".82"/><rect x="280.8" y="105.75" width="81.24480000000001" height="14" rx="7" fill="#1E293B" fill-opacity=".82"/><rect x="411.84000000000003" y="105.75" width="81.24480000000001" height="14" rx="7" fill="#1E293B" fill-opacity=".82"/><rect x="542.8800000000001" y="105.75" width="81.24480000000001" height="14" rx="7" fill="#1E293B" fill-opacity=".82"/>
      </g>
      <path d="M842.4 117 C 954.72 94.5, 1085.76 40.5, 1141.92 27" stroke="#162033" stroke-width="18" stroke-linecap="round" opacity=".9"/><circle cx="1141.92" cy="27" r="13.5" fill="#162033"/>
    </g>
    <g transform="translate(1368 1080) rotate(4 576 135)">
      <ellipse cx="576" cy="248.4" rx="645.1200000000001" ry="48.6" fill="#0B1120" fill-opacity=".16" filter="url(#hero-home-blur)"/>
      <g filter="url(#hero-home-shadow)">
        <rect x="0" y="21.6" width="1152" height="216" rx="28" fill="url(#hero-home-metal)" stroke="#D8E0E8"/>
        <rect x="69.12" y="37.800000000000004" width="1013.76" height="32.4" rx="16.2" fill="rgba(255,255,255,.8)" opacity=".8"/>
        <rect x="115.2" y="32.4" width="599.04" height="21.6" rx="10.8" fill="#F4D28A" opacity=".42"/>
        <rect x="138.24" y="194.4" width="875.52" height="16.2" rx="8.1" fill="rgba(15,23,42,.08)"/>
        <rect x="184.32" y="126.89999999999999" width="99.99360000000001" height="14" rx="7" fill="#1E293B" fill-opacity=".82"/><rect x="345.6" y="126.89999999999999" width="99.99360000000001" height="14" rx="7" fill="#1E293B" fill-opacity=".82"/><rect x="506.88000000000005" y="126.89999999999999" width="99.99360000000001" height="14" rx="7" fill="#1E293B" fill-opacity=".82"/><rect x="668.1600000000001" y="126.89999999999999" width="99.99360000000001" height="14" rx="7" fill="#1E293B" fill-opacity=".82"/><rect x="829.44" y="126.89999999999999" width="99.99360000000001" height="14" rx="7" fill="#1E293B" fill-opacity=".82"/>
      </g>
      <path d="M1036.8 140.4 C 1175.04 113.39999999999999, 1336.32 48.6, 1405.44 32.4" stroke="#162033" stroke-width="21.6" stroke-linecap="round" opacity=".9"/><circle cx="1405.44" cy="32.4" r="16.2" fill="#162033"/>
    </g>
    <g transform="translate(2088 450)">
      <rect x="74.88" y="0" width="673.92" height="267.3" rx="19.8" fill="url(#hero-home-panel)" stroke="#D6DEE8"/>
      <rect x="121.68" y="24.75" width="580.32" height="207.9" rx="14.85" fill="#F3F7FB"/>
      <rect x="0" y="267.3" width="936" height="49.5" rx="19.8" fill="url(#hero-home-metal)"/>
      <rect x="355.68" y="282.15" width="149.76" height="7.425" rx="3.465" fill="#90A0B5"/>
    </g>
    <g transform="translate(2376 1282.5) rotate(-3 360 112.5)">
      <ellipse cx="360" cy="207" rx="403.20000000000005" ry="40.5" fill="#0B1120" fill-opacity=".16" filter="url(#hero-home-blur)"/>
      <g filter="url(#hero-home-shadow)">
        <rect x="0" y="18" width="720" height="180" rx="28" fill="url(#hero-home-metal-dark)" stroke="#465267"/>
        <rect x="43.199999999999996" y="31.500000000000004" width="633.6" height="27" rx="13.5" fill="rgba(255,255,255,.12)" opacity=".8"/>
        
        <rect x="86.39999999999999" y="162" width="547.2" height="13.5" rx="6.75" fill="rgba(15,23,42,.08)"/>
        <rect x="115.2" y="105.75" width="62.49600000000001" height="14" rx="7" fill="#0A1020" fill-opacity=".82"/><rect x="216" y="105.75" width="62.49600000000001" height="14" rx="7" fill="#0A1020" fill-opacity=".82"/><rect x="316.8" y="105.75" width="62.49600000000001" height="14" rx="7" fill="#0A1020" fill-opacity=".82"/><rect x="417.6" y="105.75" width="62.49600000000001" height="14" rx="7" fill="#0A1020" fill-opacity=".82"/><rect x="518.4000000000001" y="105.75" width="62.49600000000001" height="14" rx="7" fill="#0A1020" fill-opacity=".82"/><rect x="619.2" y="105.75" width="62.49600000000001" height="14" rx="7" fill="#0A1020" fill-opacity=".82"/>
      </g>
      <path d="M648 117 C 734.4 94.5, 835.1999999999999 40.5, 878.4 27" stroke="#162033" stroke-width="18" stroke-linecap="round" opacity=".9"/><circle cx="878.4" cy="27" r="13.5" fill="#162033"/>
    </g>
</svg>
