<svg width="3600" height="2250" viewBox="0 0 3600 2250" fill="none" xmlns="http://www.w3.org/2000/svg">
  <rect width="3600" height="2250" rx="96" fill="#0E1320"/>
  <rect width="3600" height="2250" rx="96" fill="url(#bg)"/>
  <g opacity="0.92">
    <ellipse cx="3320" cy="264" rx="840" ry="520" fill="url(#glowTop)"/>
    <ellipse cx="2504" cy="1966" rx="1080" ry="348" fill="url(#deskGlow)"/>
    <ellipse cx="1180" cy="1648" rx="980" ry="680" fill="url(#quietGlow)"/>
  </g>
  <path d="M1624 1492C2116 1378 2942 1396 3460 1588V2250H1422L1624 1492Z" fill="url(#deskPlane)"/>
  <path d="M1878 1466C2374 1386 2916 1412 3362 1588L3122 1702C2680 1550 2266 1514 1836 1586L1878 1466Z" fill="url(#deskEdge)" opacity="0.82"/>
  <g opacity="0.8">
    <rect x="244" y="326" width="640" height="10" rx="5" fill="url(#quietAccent)"/>
    <rect x="244" y="1658" width="780" height="2" rx="1" fill="url(#quietLine)"/>
    <rect x="244" y="1720" width="592" height="2" rx="1" fill="url(#quietLineSoft)"/>
  </g>
  <g filter="url(#shadowLarge)">
    <path d="M2384 656C2410 622 2454 604 2498 604H3072C3152 604 3218 670 3218 750V1460C3218 1540 3152 1606 3072 1606H2498C2418 1606 2352 1540 2352 1460V734C2352 706 2362 678 2384 656Z" fill="url(#dockBody)"/>
    <path d="M2434 744C2434 692 2476 650 2528 650H3030C3082 650 3124 692 3124 744V1370C3124 1422 3082 1464 3030 1464H2528C2476 1464 2434 1422 2434 1370V744Z" fill="url(#dockFace)"/>
    <rect x="2488" y="712" width="458" height="18" rx="9" fill="url(#dockHighlight)" opacity="0.74"/>
    <rect x="2488" y="786" width="384" height="18" rx="9" fill="#E2E8F0" fill-opacity="0.32"/>
    <rect x="2488" y="842" width="280" height="18" rx="9" fill="#E2E8F0" fill-opacity="0.24"/>
    <rect x="2470" y="966" width="626" height="242" rx="72" fill="url(#screenGlow)" fill-opacity="0.84"/>
    <rect x="2538" y="1008" width="490" height="158" rx="54" fill="#E2E8F0" fill-opacity="0.18"/>
    <g opacity="0.86">
      <rect x="2440" y="1114" width="34" height="118" rx="17" fill="#AAB5C6"/>
      <rect x="2440" y="1266" width="34" height="164" rx="17" fill="#AAB5C6"/>
      <rect x="3100" y="980" width="42" height="92" rx="21" fill="#9FACC1"/>
      <rect x="3100" y="1090" width="42" height="70" rx="21" fill="#9FACC1"/>
      <rect x="3100" y="1180" width="42" height="118" rx="21" fill="#9FACC1"/>
      <rect x="3100" y="1320" width="42" height="96" rx="21" fill="#9FACC1"/>
    </g>
  </g>
  <g filter="url(#shadowMedium)">
    <path d="M1890 1326C1912 1292 1952 1270 1992 1270H2576C2650 1270 2710 1330 2710 1404V1668C2710 1742 2650 1802 2576 1802H1992C1918 1802 1858 1742 1858 1668V1402C1858 1376 1866 1350 1890 1326Z" fill="url(#hubBody)"/>
    <rect x="1916" y="1320" width="706" height="398" rx="68" fill="url(#hubFace)"/>
    <rect x="1964" y="1368" width="548" height="16" rx="8" fill="#F8FAFC" fill-opacity="0.38"/>
    <rect x="1964" y="1426" width="420" height="14" rx="7" fill="#F8FAFC" fill-opacity="0.24"/>
    <g opacity="0.9">
      <rect x="1980" y="1624" width="110" height="28" rx="14" fill="#0B1221" fill-opacity="0.48"/>
      <rect x="2116" y="1624" width="144" height="28" rx="14" fill="#0B1221" fill-opacity="0.48"/>
      <rect x="2284" y="1624" width="74" height="28" rx="14" fill="#0B1221" fill-opacity="0.48"/>
      <rect x="2382" y="1624" width="74" height="28" rx="14" fill="#0B1221" fill-opacity="0.48"/>
    </g>
    <rect x="2568" y="1446" width="184" height="62" rx="31" transform="rotate(90 2568 1446)" fill="#B9C2D2" fill-opacity="0.9"/>
  </g>
  <g filter="url(#shadowSmall)">
    <path d="M2776 1544C2800 1510 2840 1490 2882 1490H3188C3248 1490 3296 1538 3296 1598V1822C3296 1882 3248 1930 3188 1930H2882C2822 1930 2774 1882 2774 1822V1612C2774 1588 2780 1564 2796 1546L2776 1544Z" fill="url(#chargerBody)"/>
    <rect x="2820" y="1540" width="406" height="314" rx="56" fill="url(#chargerFace)"/>
    <rect x="2880" y="1602" width="182" height="18" rx="9" fill="#F8FAFC" fill-opacity="0.38"/>
    <rect x="2880" y="1652" width="120" height="14" rx="7" fill="#F8FAFC" fill-opacity="0.24"/>
    <g opacity="0.88">
      <rect x="2890" y="1762" width="74" height="28" rx="14" fill="#0B1221" fill-opacity="0.42"/>
      <rect x="2982" y="1762" width="74" height="28" rx="14" fill="#0B1221" fill-opacity="0.42"/>
      <rect x="3074" y="1762" width="74" height="28" rx="14" fill="#0B1221" fill-opacity="0.42"/>
      <rect x="3166" y="1762" width="40" height="28" rx="14" fill="#0B1221" fill-opacity="0.42"/>
    </g>
  </g>
  <g opacity="0.84" filter="url(#shadowCable)">
    <path d="M2586 1772C2688 1742 2826 1744 2948 1794C3044 1832 3144 1836 3236 1808C3286 1792 3338 1764 3382 1718" stroke="url(#cableStroke)" stroke-width="18" stroke-linecap="round"/>
  </g>
  <g opacity="0.92">
    <circle cx="2344" cy="874" r="10" fill="#FACC15"/>
    <circle cx="2480" cy="906" r="6" fill="#FFF7D1"/>
    <circle cx="3030" cy="604" r="12" fill="#FFF5CA" fill-opacity="0.78"/>
  </g>
  <defs>
    <linearGradient id="bg" x1="404" y1="174" x2="3272" y2="2034" gradientUnits="userSpaceOnUse">
      <stop stop-color="#111827"/>
      <stop offset="0.42" stop-color="#364152"/>
      <stop offset="1" stop-color="#969EAA"/>
    </linearGradient>
    <radialGradient id="glowTop" cx="0" cy="0" r="1" gradientUnits="userSpaceOnUse" gradientTransform="translate(3320 264) rotate(142.649) scale(997.71 676.209)">
      <stop stop-color="#F8FAFC" stop-opacity="0.84"/>
      <stop offset="1" stop-color="#F8FAFC" stop-opacity="0"/>
    </radialGradient>
    <radialGradient id="deskGlow" cx="0" cy="0" r="1" gradientUnits="userSpaceOnUse" gradientTransform="translate(2504 1966) rotate(90) scale(348 1080)">
      <stop stop-color="#FACC15" stop-opacity="0.18"/>
      <stop offset="1" stop-color="#FACC15" stop-opacity="0"/>
    </radialGradient>
    <radialGradient id="quietGlow" cx="0" cy="0" r="1" gradientUnits="userSpaceOnUse" gradientTransform="translate(1180 1648) rotate(65.1541) scale(1186.23 1340.12)">
      <stop stop-color="#273548" stop-opacity="0.38"/>
      <stop offset="1" stop-color="#273548" stop-opacity="0"/>
    </radialGradient>
    <linearGradient id="deskPlane" x1="1678" y1="1454" x2="3474" y2="2260" gradientUnits="userSpaceOnUse">
      <stop stop-color="#556173" stop-opacity="0.22"/>
      <stop offset="1" stop-color="#F8FAFC" stop-opacity="0.04"/>
    </linearGradient>
    <linearGradient id="deskEdge" x1="1836" y1="1528" x2="3362" y2="1528" gradientUnits="userSpaceOnUse">
      <stop stop-color="#FACC15" stop-opacity="0"/>
      <stop offset="0.44" stop-color="#FACC15" stop-opacity="0.32"/>
      <stop offset="1" stop-color="#F8FAFC" stop-opacity="0.06"/>
    </linearGradient>
    <linearGradient id="quietAccent" x1="244" y1="331" x2="884" y2="331" gradientUnits="userSpaceOnUse">
      <stop stop-color="#FACC15"/>
      <stop offset="1" stop-color="#FACC15" stop-opacity="0"/>
    </linearGradient>
    <linearGradient id="quietLine" x1="244" y1="1659" x2="1024" y2="1659" gradientUnits="userSpaceOnUse">
      <stop stop-color="#E2E8F0" stop-opacity="0.38"/>
      <stop offset="1" stop-color="#E2E8F0" stop-opacity="0"/>
    </linearGradient>
    <linearGradient id="quietLineSoft" x1="244" y1="1721" x2="836" y2="1721" gradientUnits="userSpaceOnUse">
      <stop stop-color="#E2E8F0" stop-opacity="0.22"/>
      <stop offset="1" stop-color="#E2E8F0" stop-opacity="0"/>
    </linearGradient>
    <linearGradient id="dockBody" x1="2392" y1="620" x2="3174" y2="1606" gradientUnits="userSpaceOnUse">
      <stop stop-color="#CBD5E1"/>
      <stop offset="0.58" stop-color="#6A7688"/>
      <stop offset="1" stop-color="#2A3445"/>
    </linearGradient>
    <linearGradient id="dockFace" x1="2434" y1="650" x2="3124" y2="1464" gradientUnits="userSpaceOnUse">
      <stop stop-color="#A2AEC0"/>
      <stop offset="0.48" stop-color="#556173"/>
      <stop offset="1" stop-color="#1E293B"/>
    </linearGradient>
    <linearGradient id="dockHighlight" x1="2488" y1="721" x2="2946" y2="721" gradientUnits="userSpaceOnUse">
      <stop stop-color="#F8FAFC" stop-opacity="0.66"/>
      <stop offset="1" stop-color="#F8FAFC" stop-opacity="0"/>
    </linearGradient>
    <radialGradient id="screenGlow" cx="0" cy="0" r="1" gradientUnits="userSpaceOnUse" gradientTransform="translate(2784 1087) rotate(90) scale(121 313)">
      <stop stop-color="#F8FAFC" stop-opacity="0.42"/>
      <stop offset="1" stop-color="#94A3B8" stop-opacity="0.18"/>
    </radialGradient>
    <linearGradient id="hubBody" x1="1878" y1="1284" x2="2680" y2="1802" gradientUnits="userSpaceOnUse">
      <stop stop-color="#D2DAE6"/>
      <stop offset="0.5" stop-color="#7D889A"/>
      <stop offset="1" stop-color="#384355"/>
    </linearGradient>
    <linearGradient id="hubFace" x1="1916" y1="1320" x2="2622" y2="1718" gradientUnits="userSpaceOnUse">
      <stop stop-color="#B8C2D0"/>
      <stop offset="0.45" stop-color="#677387"/>
      <stop offset="1" stop-color="#1F2937"/>
    </linearGradient>
    <linearGradient id="chargerBody" x1="2794" y1="1512" x2="3270" y2="1930" gradientUnits="userSpaceOnUse">
      <stop stop-color="#D9E1EC"/>
      <stop offset="0.5" stop-color="#8792A4"/>
      <stop offset="1" stop-color="#3A4458"/>
    </linearGradient>
    <linearGradient id="chargerFace" x1="2820" y1="1540" x2="3226" y2="1854" gradientUnits="userSpaceOnUse">
      <stop stop-color="#BCC6D4"/>
      <stop offset="0.5" stop-color="#6C778A"/>
      <stop offset="1" stop-color="#243042"/>
    </linearGradient>
    <linearGradient id="cableStroke" x1="2586" y1="1762" x2="3382" y2="1762" gradientUnits="userSpaceOnUse">
      <stop stop-color="#FACC15" stop-opacity="0.72"/>
      <stop offset="0.48" stop-color="#FDE68A" stop-opacity="0.52"/>
      <stop offset="1" stop-color="#CBD5E1" stop-opacity="0.22"/>
    </linearGradient>
    <filter id="shadowLarge" x="2256" y="548" width="986" height="1118" filterUnits="userSpaceOnUse" color-interpolation-filters="sRGB">
      <feFlood flood-opacity="0" result="BackgroundImageFix"/>
      <feColorMatrix in="SourceAlpha" type="matrix" values="0 0 0 0 0 0 0 0 0 0 0 0 0 0 0 0 0 0 127 0" result="hardAlpha"/>
      <feOffset dx="-20" dy="32"/>
      <feGaussianBlur stdDeviation="38"/>
      <feColorMatrix type="matrix" values="0 0 0 0 0.0431373 0 0 0 0 0.0705882 0 0 0 0 0.129412 0 0 0 0.28 0"/>
      <feBlend mode="normal" in2="BackgroundImageFix" result="effect1_dropShadow_hero"/>
      <feBlend mode="normal" in="SourceGraphic" in2="effect1_dropShadow_hero" result="shape"/>
    </filter>
    <filter id="shadowMedium" x="1768" y="1214" width="1030" height="684" filterUnits="userSpaceOnUse" color-interpolation-filters="sRGB">
      <feFlood flood-opacity="0" result="BackgroundImageFix"/>
      <feColorMatrix in="SourceAlpha" type="matrix" values="0 0 0 0 0 0 0 0 0 0 0 0 0 0 0 0 0 0 127 0" result="hardAlpha"/>
      <feOffset dx="-16" dy="24"/>
      <feGaussianBlur stdDeviation="28"/>
      <feColorMatrix type="matrix" values="0 0 0 0 0.0431373 0 0 0 0 0.0705882 0 0 0 0 0.129412 0 0 0 0.22 0"/>
      <feBlend mode="normal" in2="BackgroundImageFix" result="effect1_dropShadow_hero"/>
      <feBlend mode="normal" in="SourceGraphic" in2="effect1_dropShadow_hero" result="shape"/>
    </filter>
    <filter id="shadowSmall" x="2704" y="1450" width="664" height="560" filterUnits="userSpaceOnUse" color-interpolation-filters="sRGB">
      <feFlood flood-opacity="0" result="BackgroundImageFix"/>
      <feColorMatrix in="SourceAlpha" type="matrix" values="0 0 0 0 0 0 0 0 0 0 0 0 0 0 0 0 0 0 127 0" result="hardAlpha"/>
      <feOffset dx="-12" dy="20"/>
      <feGaussianBlur stdDeviation="22"/>
      <feColorMatrix type="matrix" values="0 0 0 0 0.0431373 0 0 0 0 0.0705882 0 0 0 0 0.129412 0 0 0 0.18 0"/>
      <feBlend mode="normal" in2="BackgroundImageFix" result="effect1_dropShadow_hero"/>
      <feBlend mode="normal" in="SourceGraphic" in2="effect1_dropShadow_hero" result="shape"/>
    </filter>
    <filter id="shadowCable" x="2549" y="1668" width="870" height="188" filterUnits="userSpaceOnUse" color-interpolation-filters="sRGB">
      <feFlood flood-opacity="0" result="BackgroundImageFix"/>
      <feColorMatrix in="SourceAlpha" type="matrix" values="0 0 0 0 0 0 0 0 0 0 0 0 0 0 0 0 0 0 127 0" result="hardAlpha"/>
      <feOffset dy="10"/>
      <feGaussianBlur stdDeviation="8"/>
      <feColorMatrix type="matrix" values="0 0 0 0 0.0431373 0 0 0 0 0.0705882 0 0 0 0 0.129412 0 0 0 0.2 0"/>
      <feBlend mode="normal" in2="BackgroundImageFix" result="effect1_dropShadow_hero"/>
      <feBlend mode="normal" in="SourceGraphic" in2="effect1_dropShadow_hero" result="shape"/>
    </filter>
  </defs>
</svg>
