<?xml version="1.0" encoding="UTF-8"?>
<svg id="Layer_1" xmlns="http://www.w3.org/2000/svg" xmlns:xlink="http://www.w3.org/1999/xlink" version="1.1" viewBox="0 0 3600 2250">
  <!-- Generator: Adobe Illustrator 30.2.1, SVG Export Plug-In . SVG Version: 2.1.1 Build 1)  -->
  <defs>
    <style>
      .st0 {
        fill-opacity: .3;
      }

      .st0, .st1, .st2 {
        fill: #e2e8f0;
      }

      .st1, .st3 {
        fill-opacity: .2;
      }

      .st2 {
        fill-opacity: .2;
      }

      .st4, .st5 {
        fill: none;
      }

      .st6 {
        fill: url(#linear-gradient2);
      }

      .st7 {
        fill: url(#linear-gradient1);
      }

      .st8 {
        fill: url(#linear-gradient3);
      }

      .st9 {
        fill: url(#linear-gradient8);
      }

      .st10 {
        fill: url(#linear-gradient7);
      }

      .st11 {
        fill: url(#linear-gradient5);
      }

      .st12 {
        fill: url(#linear-gradient4);
      }

      .st13 {
        fill: #f1c516;
      }

      .st3, .st14 {
        fill: #f8fafc;
      }

      .st14 {
        fill-opacity: .4;
      }

      .st15 {
        fill: url(#radial-gradient);
      }

      .st16 {
        fill: url(#linear-gradient);
      }

      .st17 {
        fill: url(#radial-gradient2);
        fill-opacity: .8;
      }

      .st5 {
        stroke: url(#linear-gradient9);
        stroke-linecap: round;
        stroke-width: 18px;
      }

      .st18 {
        fill: #9facc1;
      }

      .st19 {
        fill: #dedede;
      }

      .st20 {
        fill: #aab5c6;
      }

      .st21 {
        fill-opacity: .4;
      }

      .st21, .st22 {
        fill: #0b1221;
      }

      .st22 {
        fill-opacity: .5;
      }

      .st23 {
        opacity: .9;
      }

      .st24 {
        opacity: .9;
      }

      .st25 {
        opacity: .9;
      }

      .st26 {
        opacity: .9;
      }

      .st27 {
        opacity: .8;
      }

      .st28 {
        fill: #b9c2d2;
        fill-opacity: .9;
      }

      .st29 {
        fill: url(#radial-gradient1);
      }

      .st30 {
        fill: url(#linear-gradient6);
        isolation: isolate;
        opacity: .7;
      }

      .st31 {
        clip-path: url(#clippath);
      }
    </style>
    <clipPath id="clippath">
      <rect class="st4" width="3600" height="2250"/>
    </clipPath>
    <linearGradient id="linear-gradient" x1="0" y1="1125" x2="3600" y2="1125" gradientUnits="userSpaceOnUse">
      <stop offset="0" stop-color="#2a3445"/>
      <stop offset=".4" stop-color="#6a7688"/>
      <stop offset="1" stop-color="#cbd5e1"/>
    </linearGradient>
    <linearGradient id="linear-gradient1" x1="358.2" y1="2060.1" x2="3276.7" y2="167.3" gradientTransform="translate(0 2250) scale(1 -1)" gradientUnits="userSpaceOnUse">
      <stop offset="0" stop-color="#111827"/>
      <stop offset=".4" stop-color="#364152"/>
      <stop offset="1" stop-color="#969eaa"/>
    </linearGradient>
    <radialGradient id="radial-gradient" cx="1495.4" cy="1464.5" fx="1495.4" fy="1464.5" r="1" gradientTransform="translate(587883.7 -1691854.7) rotate(142.6) scale(997.7 -676.2)" gradientUnits="userSpaceOnUse">
      <stop offset="0" stop-color="#f8fafc" stop-opacity=".8"/>
      <stop offset="1" stop-color="#f8fafc" stop-opacity="0"/>
    </radialGradient>
    <radialGradient id="radial-gradient1" cx="1491" cy="1465.8" fx="1491" fy="1465.8" r="1" gradientTransform="translate(-1580362 -517163) rotate(90) scale(348 -1080)" gradientUnits="userSpaceOnUse">
      <stop offset="0" stop-color="#facc15" stop-opacity=".2"/>
      <stop offset="1" stop-color="#facc15" stop-opacity="0"/>
    </radialGradient>
    <linearGradient id="linear-gradient2" x1="2217.3" y1="1330.3" x2="2536.2" y2="1050.3" gradientTransform="translate(0 2250) scale(1 -1)" gradientUnits="userSpaceOnUse">
      <stop offset="0" stop-color="#d9e1ec"/>
      <stop offset=".5" stop-color="#8792a4"/>
      <stop offset="1" stop-color="#3a4458"/>
    </linearGradient>
    <linearGradient id="linear-gradient3" x1="2236.7" y1="1301.4" x2="2495.7" y2="1101" gradientTransform="translate(0 2250) scale(1 -1)" gradientUnits="userSpaceOnUse">
      <stop offset="0" stop-color="#bcc6d4"/>
      <stop offset=".5" stop-color="#6c778a"/>
      <stop offset="1" stop-color="#243042"/>
    </linearGradient>
    <linearGradient id="linear-gradient4" x1="2541.7" y1="1778.6" x2="3323.7" y2="792.6" gradientTransform="translate(0 2250) scale(1 -1)" gradientUnits="userSpaceOnUse">
      <stop offset="0" stop-color="#cbd5e1"/>
      <stop offset=".6" stop-color="#6a7688"/>
      <stop offset="1" stop-color="#2a3445"/>
    </linearGradient>
    <linearGradient id="linear-gradient5" x1="2578.5" y1="1744.5" x2="3268.5" y2="930.5" gradientTransform="translate(0 2250) scale(1 -1)" gradientUnits="userSpaceOnUse">
      <stop offset="0" stop-color="#a2aec0"/>
      <stop offset=".5" stop-color="#556173"/>
      <stop offset="1" stop-color="#1e293b"/>
    </linearGradient>
    <linearGradient id="linear-gradient6" x1="2632.5" y1="1673.5" x2="3090.5" y2="1673.5" gradientTransform="translate(0 2250) scale(1 -1)" gradientUnits="userSpaceOnUse">
      <stop offset="0" stop-color="#f8fafc" stop-opacity=".7"/>
      <stop offset="1" stop-color="#f8fafc" stop-opacity="0"/>
    </linearGradient>
    <radialGradient id="radial-gradient2" cx="1486.3" cy="1462.7" fx="1486.3" fy="1462.7" r="1" gradientTransform="translate(-454893 -178904) rotate(90) scale(121 -313)" gradientUnits="userSpaceOnUse">
      <stop offset="0" stop-color="#f8fafc" stop-opacity=".4"/>
      <stop offset="1" stop-color="#94a3b8" stop-opacity=".2"/>
    </radialGradient>
    <linearGradient id="linear-gradient7" x1="2171.7" y1="940.2" x2="2973.7" y2="422.2" gradientTransform="translate(0 2250) scale(1 -1)" gradientUnits="userSpaceOnUse">
      <stop offset="0" stop-color="#d2dae6"/>
      <stop offset=".5" stop-color="#7d889a"/>
      <stop offset="1" stop-color="#384355"/>
    </linearGradient>
    <linearGradient id="linear-gradient8" x1="2205.1" y1="897" x2="2911.1" y2="499" gradientTransform="translate(0 2250) scale(1 -1)" gradientUnits="userSpaceOnUse">
      <stop offset="0" stop-color="#b8c2d0"/>
      <stop offset=".5" stop-color="#677387"/>
      <stop offset="1" stop-color="#1f2937"/>
    </linearGradient>
    <linearGradient id="linear-gradient9" x1="2548.8" y1="482" x2="3344.8" y2="482" gradientTransform="translate(0 2250) scale(1 -1)" gradientUnits="userSpaceOnUse">
      <stop offset="0" stop-color="#facc15" stop-opacity=".7"/>
      <stop offset=".5" stop-color="#fde68a" stop-opacity=".5"/>
      <stop offset="1" stop-color="#cbd5e1" stop-opacity=".2"/>
    </linearGradient>
  </defs>
  <g class="st31">
    <g>
      <rect class="st16" width="3600" height="2250"/>
      <rect class="st7" width="3600" height="2250"/>
      <g class="st24">
        <ellipse class="st15" cx="2659.2" cy="524.2" rx="840" ry="520"/>
        <ellipse class="st29" cx="2686.7" cy="1712.3" rx="1080" ry="348"/>
      </g>
      <g>
        <path class="st6" d="M2200.7,946.3c16.1-22.8,42.9-36.2,71-36.2h205c40.2,0,72.3,32.2,72.3,72.3v150.1c0,40.2-32.2,72.3-72.3,72.3h-205c-40.2,0-72.3-32.2-72.3-72.3v-140.7c0-16.1,4-32.2,14.7-44.2l-13.4-1.3Z"/>
        <rect class="st8" x="2230.2" y="943.6" width="272" height="210.3" rx="56" ry="56"/>
        <path class="st14" d="M2276.4,985.1h109.9c3.3,0,6,2.7,6,6h0c0,3.3-2.7,6-6,6h-109.9c-3.3,0-6-2.7-6-6h0c0-3.3,2.7-6,6-6Z"/>
        <path class="st3" d="M2275.1,1018.6h71c2.6,0,4.7,2.1,4.7,4.7h0c0,2.6-2.1,4.7-4.7,4.7h-71c-2.6,0-4.7-2.1-4.7-4.7h0c0-2.6,2.1-4.7,4.7-4.7Z"/>
        <g class="st26">
          <path class="st21" d="M2286.5,1092.3h30.8c5.2,0,9.4,4.2,9.4,9.4h0c0,5.2-4.2,9.4-9.4,9.4h-30.8c-5.2,0-9.4-4.2-9.4-9.4h0c0-5.2,4.2-9.4,9.4-9.4Z"/>
          <path class="st21" d="M2348.1,1092.3h30.8c5.2,0,9.4,4.2,9.4,9.4h0c0,5.2-4.2,9.4-9.4,9.4h-30.8c-5.2,0-9.4-4.2-9.4-9.4h0c0-5.2,4.2-9.4,9.4-9.4Z"/>
          <path class="st21" d="M2409.7,1092.3h30.8c5.2,0,9.4,4.2,9.4,9.4h0c0,5.2-4.2,9.4-9.4,9.4h-30.8c-5.2,0-9.4-4.2-9.4-9.4h0c0-5.2,4.2-9.4,9.4-9.4Z"/>
          <path class="st21" d="M2471.4,1092.3h8c5.2,0,9.4,4.2,9.4,9.4h0c0,5.2-4.2,9.4-9.4,9.4h-8c-5.2,0-9.4-4.2-9.4-9.4h0c0-5.2,4.2-9.4,9.4-9.4Z"/>
        </g>
      </g>
      <g>
        <path class="st13" d="M2799.8,1806.5c342.5-61.8,570-389.6,508.2-732.1l-1240.2,223.9c61.8,342.5,389.6,570,732.1,508.2Z"/>
        <path class="st13" d="M2575.9,566.3c341.9-61.7,670.3,166.2,732.1,508.2l-61.1,11c-55.6-308.2-351.7-513.7-659.9-458.1-308.2,55.7-513.7,351.7-458.1,659.9l-61.1,11c-61.7-341.9,166.2-670.3,508.2-732.1Z"/>
      </g>
      <path class="st19" d="M2690.4,460.7c401.3,0,727.8,326.5,727.8,727.8s-326.5,727.8-727.8,727.8-727.8-326.5-727.8-727.8,326.5-727.8,727.8-727.8ZM2690.4,1909.4c397.5,0,720.9-323.4,720.9-720.9s-323.4-720.9-720.9-720.9-720.9,323.4-720.9,720.9,323.4,720.9,720.9,720.9Z"/>
      <path class="st19" d="M2690.4,369c451.9,0,819.5,367.6,819.5,819.5s-367.6,819.5-819.5,819.5-819.5-367.6-819.5-819.5,367.6-819.5,819.5-819.5ZM2690.4,2002.1c448.6,0,813.6-365,813.6-813.6s-365-813.6-813.6-813.6-813.6,365-813.6,813.6,365,813.6,813.6,813.6Z"/>
      <path class="st19" d="M2690.4,277.3c502.4,0,911.2,408.8,911.2,911.2s-408.8,911.2-911.2,911.2-911.2-408.8-911.2-911.2,408.8-911.2,911.2-911.2ZM2690.4,2094.9c499.7,0,906.3-406.6,906.3-906.3s-406.6-906.3-906.3-906.3-906.3,406.6-906.3,906.3,406.6,906.3,906.3,906.3Z"/>
      <path class="st19" d="M2690.4,185.7c553,0,1002.9,449.9,1002.9,1002.9s-449.9,1002.9-1002.9,1002.9-1002.9-449.9-1002.9-1002.9,449.9-1002.9,1002.9-1002.9ZM2690.4,2187.6c550.9,0,999-448.2,999-999s-448.2-999-999-999-999,448.2-999,999,448.2,999,999,999Z"/>
      <path class="st19" d="M2690.4,94c292.4,0,567.2,113.9,773.9,320.6,206.7,206.7,320.6,481.6,320.6,773.9s-113.9,567.2-320.6,774c-206.7,206.7-481.6,320.6-773.9,320.6s-567.2-113.9-774-320.6c-206.7-206.7-320.6-481.6-320.6-774s113.9-567.2,320.6-773.9c206.7-206.7,481.6-320.6,774-320.6ZM2690.4,2280.3c602,0,1091.8-489.8,1091.8-1091.8S3292.4,96.8,2690.4,96.8s-1091.8,489.8-1091.8,1091.8,489.8,1091.8,1091.8,1091.8Z"/>
      <path class="st19" d="M2690.4,2.3c160.1,0,315.5,31.4,461.7,93.2,141.2,59.7,268.1,145.3,377,254.2,108.9,108.9,194.5,235.8,254.2,377,61.9,146.2,93.2,301.6,93.2,461.7s-31.4,315.5-93.2,461.7c-59.7,141.3-145.3,268.1-254.2,377-108.9,108.9-235.8,194.5-377,254.2-146.2,61.9-301.6,93.2-461.7,93.2s-315.5-31.4-461.7-93.2c-141.3-59.7-268.1-145.3-377-254.2-108.9-108.9-194.5-235.8-254.2-377-61.9-146.2-93.2-301.6-93.2-461.7s31.4-315.5,93.2-461.7c59.7-141.2,145.3-268.1,254.2-377,108.9-108.9,235.8-194.5,377-254.2,146.2-61.9,301.6-93.2,461.7-93.2ZM2690.4,2373c653.1,0,1184.5-531.4,1184.5-1184.5S3343.5,4.1,2690.4,4.1s-1184.5,531.3-1184.5,1184.5,531.4,1184.5,1184.5,1184.5Z"/>
      <circle class="st13" cx="1996.9" cy="1403.6" r="41.2"/>
      <path class="st13" d="M2803.7,476.6c0-11.4,9.2-20.6,20.6-20.6s20.6,9.2,20.6,20.6-9.2,20.6-20.6,20.6-20.6-9.2-20.6-20.6Z"/>
      <g>
        <path class="st12" d="M2528.5,511.5c26-34,70-52,114-52h574c80,0,146,66,146,146v710c0,80-66,146-146,146h-574c-80,0-146-66-146-146v-726c0-28,10-56,32-78Z"/>
        <path class="st11" d="M2578.5,599.5c0-52,42-94,94-94h502c52,0,94,42,94,94v626c0,52-42,94-94,94h-502c-52,0-94-42-94-94v-626Z"/>
        <path class="st30" d="M2641.5,567.5h440c5,0,9,4,9,9h0c0,5-4,9-9,9h-440c-5,0-9-4-9-9h0c0-5,4-9,9-9Z"/>
        <path class="st0" d="M2641.5,641.5h366c5,0,9,4,9,9h0c0,5-4,9-9,9h-366c-5,0-9-4-9-9h0c0-5,4-9,9-9Z"/>
        <path class="st1" d="M2641.5,697.5h262c5,0,9,4,9,9h0c0,5-4,9-9,9h-262c-5,0-9-4-9-9h0c0-5,4-9,9-9Z"/>
        <rect class="st17" x="2614.5" y="821.5" width="626" height="242" rx="72" ry="72"/>
        <rect class="st2" x="2682.5" y="863.5" width="490" height="158" rx="54" ry="54"/>
        <g class="st25">
          <path class="st20" d="M2601.5,969.5h0c9.4,0,17,7.6,17,17v84c0,9.4-7.6,17-17,17h0c-9.4,0-17-7.6-17-17v-84c0-9.4,7.6-17,17-17Z"/>
          <path class="st20" d="M2601.5,1121.5h0c9.4,0,17,7.6,17,17v130c0,9.4-7.6,17-17,17h0c-9.4,0-17-7.6-17-17v-130c0-9.4,7.6-17,17-17Z"/>
          <path class="st18" d="M3265.5,835.5h0c11.6,0,21,9.4,21,21v50c0,11.6-9.4,21-21,21h0c-11.6,0-21-9.4-21-21v-50c0-11.6,9.4-21,21-21Z"/>
          <path class="st18" d="M3265.5,945.5h0c11.6,0,21,9.4,21,21v28c0,11.6-9.4,21-21,21h0c-11.6,0-21-9.4-21-21v-28c0-11.6,9.4-21,21-21Z"/>
          <path class="st18" d="M3265.5,1035.5h0c11.6,0,21,9.4,21,21v76c0,11.6-9.4,21-21,21h0c-11.6,0-21-9.4-21-21v-76c0-11.6,9.4-21,21-21Z"/>
          <path class="st18" d="M3265.5,1175.5h0c11.6,0,21,9.4,21,21v54c0,11.6-9.4,21-21,21h0c-11.6,0-21-9.4-21-21v-54c0-11.6,9.4-21,21-21Z"/>
        </g>
      </g>
      <g>
        <path class="st10" d="M2179.1,1359c22-34,62-56,102-56h584c74,0,134,60,134,134v264c0,74-60,134-134,134h-584c-74,0-134-60-134-134v-266c0-26,8-52,32-76Z"/>
        <rect class="st9" x="2205.1" y="1353" width="706" height="398" rx="68" ry="68"/>
        <path class="st14" d="M2261.1,1401h532c4.4,0,8,3.6,8,8h0c0,4.4-3.6,8-8,8h-532c-4.4,0-8-3.6-8-8h0c0-4.4,3.6-8,8-8Z"/>
        <path class="st3" d="M2260.1,1459h406c3.9,0,7,3.1,7,7h0c0,3.9-3.1,7-7,7h-406c-3.9,0-7-3.1-7-7h0c0-3.9,3.1-7,7-7Z"/>
        <g class="st23">
          <path class="st22" d="M2283.1,1657h82c7.7,0,14,6.3,14,14h0c0,7.7-6.3,14-14,14h-82c-7.7,0-14-6.3-14-14h0c0-7.7,6.3-14,14-14Z"/>
          <path class="st22" d="M2419.1,1657h116c7.7,0,14,6.3,14,14h0c0,7.7-6.3,14-14,14h-116c-7.7,0-14-6.3-14-14h0c0-7.7,6.3-14,14-14Z"/>
          <path class="st22" d="M2587.1,1657h46c7.7,0,14,6.3,14,14h0c0,7.7-6.3,14-14,14h-46c-7.7,0-14-6.3-14-14h0c0-7.7,6.3-14,14-14Z"/>
          <path class="st22" d="M2685.1,1657h46c7.7,0,14,6.3,14,14h0c0,7.7-6.3,14-14,14h-46c-7.7,0-14-6.3-14-14h0c0-7.7,6.3-14,14-14Z"/>
        </g>
        <path class="st28" d="M2857.1,1510v122c0,17.1-13.9,31-31,31h0c-17.1,0-31-13.9-31-31v-122c0-17.1,13.9-31,31-31h0c17.1,0,31,13.9,31,31Z"/>
      </g>
      <g class="st27">
        <path class="st5" d="M2548.8,1767.9c102-30,240-28,362,22,96,38,196,42,288,14,50-16,102-44,146-90"/>
      </g>
    </g>
  </g>
</svg>