<?xml version="1.0" encoding="UTF-8"?>
<svg id="Layer_1" xmlns="http://www.w3.org/2000/svg" xmlns:xlink="http://www.w3.org/1999/xlink" version="1.1" viewBox="0 0 1600 1200">
  <!-- Generator: Adobe Illustrator 30.2.1, SVG Export Plug-In . SVG Version: 2.1.1 Build 1)  -->
  <defs>
    <style>
      .st0 {
        fill: url(#linear-gradient2);
      }

      .st1 {
        fill: url(#linear-gradient1);
      }

      .st2 {
        fill: #facc15;
      }

      .st3 {
        fill: url(#linear-gradient);
      }

      .st4 {
        fill: #172031;
        fill-opacity: .5;
      }

      .st5 {
        fill: #d6dee8;
      }
    </style>
    <linearGradient id="linear-gradient" x1="-.5" y1="599.5" x2="1599.5" y2="599.5" gradientUnits="userSpaceOnUse">
      <stop offset="0" stop-color="#111827"/>
      <stop offset=".4" stop-color="#364152"/>
      <stop offset="1" stop-color="#969eaa"/>
    </linearGradient>
    <linearGradient id="linear-gradient1" x1="394.8" y1="771.4" x2="1192.8" y2="463.4" gradientTransform="translate(0 1200) scale(1 -1)" gradientUnits="userSpaceOnUse">
      <stop offset="0" stop-color="#d6dee8"/>
      <stop offset=".5" stop-color="#919cae"/>
      <stop offset="1" stop-color="#4d596c"/>
    </linearGradient>
    <linearGradient id="linear-gradient2" x1="430" y1="714" x2="1170" y2="516" gradientTransform="translate(0 1200) scale(1 -1)" gradientUnits="userSpaceOnUse">
      <stop offset="0" stop-color="#fff"/>
      <stop offset=".5" stop-color="#d3dbe6"/>
      <stop offset="1" stop-color="#bac5d4"/>
    </linearGradient>
  </defs>
  <rect class="st3" x="-.5" y="-.5" width="1600" height="1200"/>
  <g>
    <rect class="st1" x="368" y="430" width="864" height="310" rx="78" ry="78"/>
    <rect class="st0" x="430" y="486" width="740" height="198" rx="54" ry="54"/>
    <path class="st4" d="M536,562h82c12.2,0,22,9.8,22,22h0c0,12.2-9.8,22-22,22h-82c-12.2,0-22-9.8-22-22h0c0-12.2,9.8-22,22-22Z"/>
    <path class="st4" d="M686,562h116c12.2,0,22,9.8,22,22h0c0,12.2-9.8,22-22,22h-116c-12.2,0-22-9.8-22-22h0c0-12.2,9.8-22,22-22Z"/>
    <path class="st4" d="M872,562h50c12.2,0,22,9.8,22,22h0c0,12.2-9.8,22-22,22h-50c-12.2,0-22-9.8-22-22h0c0-12.2,9.8-22,22-22Z"/>
    <path class="st4" d="M990,562h50c12.2,0,22,9.8,22,22h0c0,12.2-9.8,22-22,22h-50c-12.2,0-22-9.8-22-22h0c0-12.2,9.8-22,22-22Z"/>
    <path class="st5" d="M1097,554h0c5,0,9,4,9,9v42c0,5-4,9-9,9h0c-5,0-9-4-9-9v-42c0-5,4-9,9-9Z"/>
  </g>
  <circle class="st2" cx="386" cy="446" r="30.9"/>
</svg>