<?xml version="1.0" encoding="UTF-8"?>
<svg id="Layer_1" xmlns="http://www.w3.org/2000/svg" xmlns:xlink="http://www.w3.org/1999/xlink" version="1.1" viewBox="0 0 1600 1200">
  <!-- Generator: Adobe Illustrator 30.2.1, SVG Export Plug-In . SVG Version: 2.1.1 Build 1)  -->
  <defs>
    <style>
      .st0 {
        fill: #dce4ee;
      }

      .st1 {
        fill: url(#linear-gradient2);
      }

      .st2 {
        fill: url(#linear-gradient1);
      }

      .st3 {
        fill: #facc15;
      }

      .st4 {
        fill: url(#linear-gradient);
      }

      .st5 {
        fill: #111a2a;
        fill-opacity: .4;
      }
    </style>
    <linearGradient id="linear-gradient" x1="0" y1="600" x2="1600" y2="600" gradientUnits="userSpaceOnUse">
      <stop offset="0" stop-color="#111827"/>
      <stop offset=".4" stop-color="#364152"/>
      <stop offset="1" stop-color="#969eaa"/>
    </linearGradient>
    <linearGradient id="linear-gradient1" x1="436.2" y1="742.3" x2="1152.2" y2="490.3" gradientTransform="translate(0 1200) scale(1 -1)" gradientUnits="userSpaceOnUse">
      <stop offset="0" stop-color="#d6dee8"/>
      <stop offset=".6" stop-color="#8a96a8"/>
      <stop offset="1" stop-color="#4d596d"/>
    </linearGradient>
    <linearGradient id="linear-gradient2" x1="468" y1="696" x2="1122" y2="536" gradientTransform="translate(0 1200) scale(1 -1)" gradientUnits="userSpaceOnUse">
      <stop offset="0" stop-color="#fff"/>
      <stop offset=".5" stop-color="#d5dde8"/>
      <stop offset="1" stop-color="#bcc7d5"/>
    </linearGradient>
  </defs>
  <rect class="st4" width="1600" height="1200"/>
  <g>
    <rect class="st2" x="416" y="458" width="758" height="252" rx="62" ry="62"/>
    <rect class="st1" x="468" y="504" width="654" height="160" rx="40" ry="40"/>
    <path class="st5" d="M561,564h104c5,0,9,4,9,9h0c0,5-4,9-9,9h-104c-5,0-9-4-9-9h0c0-5,4-9,9-9Z"/>
    <path class="st5" d="M699,564h126c5,0,9,4,9,9h0c0,5-4,9-9,9h-126c-5,0-9-4-9-9h0c0-5,4-9,9-9Z"/>
    <path class="st5" d="M859,564h56c5,0,9,4,9,9h0c0,5-4,9-9,9h-56c-5,0-9-4-9-9h0c0-5,4-9,9-9Z"/>
    <path class="st5" d="M949,564h56c5,0,9,4,9,9h0c0,5-4,9-9,9h-56c-5,0-9-4-9-9h0c0-5,4-9,9-9Z"/>
    <path class="st0" d="M1038,558h0c4.4,0,8,3.6,8,8v14c0,4.4-3.6,8-8,8h0c-4.4,0-8-3.6-8-8v-14c0-4.4,3.6-8,8-8Z"/>
  </g>
  <circle class="st3" cx="436" cy="470" r="10"/>
</svg>