<?xml version="1.0" encoding="UTF-8"?>
<svg id="Layer_1" xmlns="http://www.w3.org/2000/svg" xmlns:xlink="http://www.w3.org/1999/xlink" version="1.1" viewBox="0 0 1600 1200">
  <!-- Generator: Adobe Illustrator 30.2.1, SVG Export Plug-In . SVG Version: 2.1.1 Build 1)  -->
  <defs>
    <style>
      .st0 {
        fill: url(#linear-gradient2);
      }

      .st1 {
        fill: url(#linear-gradient1);
      }

      .st2 {
        fill: url(#linear-gradient3);
      }

      .st3 {
        fill: url(#linear-gradient4);
      }

      .st4 {
        fill: #facc15;
      }

      .st5 {
        fill-opacity: .1;
      }

      .st5, .st6, .st7 {
        fill: #f8fafc;
      }

      .st6 {
        fill-opacity: .2;
      }

      .st7 {
        fill-opacity: .3;
      }

      .st8 {
        fill: url(#radial-gradient);
      }

      .st9 {
        fill: url(#linear-gradient);
      }

      .st10 {
        fill: none;
        stroke: url(#linear-gradient5);
        stroke-linecap: round;
        stroke-width: 12px;
      }

      .st11 {
        fill: #162133;
        fill-opacity: .4;
      }
    </style>
    <linearGradient id="linear-gradient" x1="0" y1="600" x2="1600" y2="600" gradientUnits="userSpaceOnUse">
      <stop offset="0" stop-color="#111827"/>
      <stop offset=".4" stop-color="#364152"/>
      <stop offset="1" stop-color="#969eaa"/>
    </linearGradient>
    <radialGradient id="radial-gradient" cx="492.3" cy="941" fx="492.3" fy="941" r="1" gradientTransform="translate(-469314 -75834) rotate(90) scale(156 -500)" gradientUnits="userSpaceOnUse">
      <stop offset="0" stop-color="#facc15" stop-opacity=".2"/>
      <stop offset="1" stop-color="#facc15" stop-opacity="0"/>
    </radialGradient>
    <linearGradient id="linear-gradient1" x1="786.1" y1="937.4" x2="1262.1" y2="637.4" gradientTransform="translate(0 1200) scale(1 -1)" gradientUnits="userSpaceOnUse">
      <stop offset="0" stop-color="#cbd5e1"/>
      <stop offset=".6" stop-color="#7d889b"/>
      <stop offset="1" stop-color="#435063"/>
    </linearGradient>
    <linearGradient id="linear-gradient2" x1="345.3" y1="406.7" x2="1011.3" y2="260.7" gradientTransform="translate(0 1200) scale(1 -1)" gradientUnits="userSpaceOnUse">
      <stop offset="0" stop-color="#bdc7d4"/>
      <stop offset=".6" stop-color="#7f8a9d"/>
      <stop offset="1" stop-color="#536072"/>
    </linearGradient>
    <linearGradient id="linear-gradient3" x1="453.6" y1="678.6" x2="863.6" y2="430.6" gradientTransform="translate(0 1200) scale(1 -1)" gradientUnits="userSpaceOnUse">
      <stop offset="0" stop-color="#aab5c8"/>
      <stop offset=".5" stop-color="#5d697d"/>
      <stop offset="1" stop-color="#243041"/>
    </linearGradient>
    <linearGradient id="linear-gradient4" x1="862.8" y1="425.5" x2="1184.8" y2="259.5" gradientTransform="translate(0 1200) scale(1 -1)" gradientUnits="userSpaceOnUse">
      <stop offset="0" stop-color="#dce4ee"/>
      <stop offset=".5" stop-color="#98a4b6"/>
      <stop offset="1" stop-color="#566274"/>
    </linearGradient>
    <linearGradient id="linear-gradient5" x1="962.2" y1="356.7" x2="776.2" y2="508.7" gradientTransform="translate(0 1200) scale(1 -1)" gradientUnits="userSpaceOnUse">
      <stop offset="0" stop-color="#facc15" stop-opacity=".7"/>
      <stop offset="1" stop-color="#94a3b8" stop-opacity=".3"/>
    </linearGradient>
  </defs>
  <rect class="st9" width="1600" height="1200"/>
  <ellipse class="st8" cx="1192" cy="972" rx="500" ry="156"/>
  <g>
    <rect class="st1" x="760" y="254" width="520" height="312" rx="34" ry="34"/>
    <rect class="st6" x="822" y="314" width="396" height="192" rx="22" ry="22"/>
  </g>
  <g>
    <path class="st0" d="M356,790h592l78,124H278l78-124Z"/>
    <rect class="st2" x="428" y="512" width="450" height="260" rx="28" ry="28"/>
    <rect class="st5" x="482" y="562" width="342" height="160" rx="18" ry="18"/>
  </g>
  <g>
    <rect class="st3" x="850" y="766" width="334" height="176" rx="42" ry="42"/>
    <path class="st7" d="M895,806h232c5,0,9,4,9,9h0c0,5-4,9-9,9h-232c-5,0-9-4-9-9h0c0-5,4-9,9-9Z"/>
    <path class="st11" d="M898,858h56c6.6,0,12,5.4,12,12h0c0,6.6-5.4,12-12,12h-56c-6.6,0-12-5.4-12-12h0c0-6.6,5.4-12,12-12Z"/>
    <path class="st11" d="M994,858h76c6.6,0,12,5.4,12,12h0c0,6.6-5.4,12-12,12h-76c-6.6,0-12-5.4-12-12h0c0-6.6,5.4-12,12-12Z"/>
    <path class="st11" d="M1110,858h14c6.6,0,12,5.4,12,12h0c0,6.6-5.4,12-12,12h-14c-6.6,0-12-5.4-12-12h0c0-6.6,5.4-12,12-12Z"/>
  </g>
  <path class="st10" d="M960,846c-56-58-118-108-186-152"/>
  <circle class="st4" cx="870" cy="778" r="10"/>
</svg>