<?xml version="1.0" encoding="UTF-8"?>
<svg id="Layer_1" xmlns="http://www.w3.org/2000/svg" xmlns:xlink="http://www.w3.org/1999/xlink" version="1.1" viewBox="0 0 1600 1200">
  <!-- Generator: Adobe Illustrator 30.2.1, SVG Export Plug-In . SVG Version: 2.1.1 Build 1)  -->
  <defs>
    <style>
      .st0 {
        fill: url(#linear-gradient2);
      }

      .st1 {
        fill: url(#linear-gradient1);
      }

      .st2 {
        fill: url(#linear-gradient3);
      }

      .st3 {
        fill: url(#linear-gradient4);
      }

      .st4 {
        fill: #facc15;
      }

      .st5 {
        fill-opacity: .2;
      }

      .st5, .st6, .st7 {
        fill: #f8fafc;
      }

      .st6 {
        fill-opacity: .2;
      }

      .st7 {
        fill-opacity: .3;
      }

      .st8 {
        fill: url(#radial-gradient);
      }

      .st9 {
        fill: url(#linear-gradient);
      }

      .st10 {
        fill: none;
        stroke: url(#linear-gradient5);
        stroke-linecap: round;
        stroke-width: 12px;
      }

      .st11 {
        fill: #aab5c6;
      }

      .st12 {
        fill: #9da9bc;
      }
    </style>
    <linearGradient id="linear-gradient" x1=".5" y1="600.5" x2="1600.5" y2="600.5" gradientUnits="userSpaceOnUse">
      <stop offset="0" stop-color="#111827"/>
      <stop offset=".4" stop-color="#364152"/>
      <stop offset="1" stop-color="#969eaa"/>
    </linearGradient>
    <radialGradient id="radial-gradient" cx="492.5" cy="941" fx="492.5" fy="941" r="1" gradientTransform="translate(-488212 -82712) rotate(90) scale(170 -520)" gradientUnits="userSpaceOnUse">
      <stop offset="0" stop-color="#facc15" stop-opacity=".2"/>
      <stop offset="1" stop-color="#facc15" stop-opacity="0"/>
    </radialGradient>
    <linearGradient id="linear-gradient1" x1="856.1" y1="983.3" x2="1218.1" y2="751.3" gradientTransform="translate(0 1200) scale(1 -1)" gradientUnits="userSpaceOnUse">
      <stop offset="0" stop-color="#dce5f0" stop-opacity=".8"/>
      <stop offset="1" stop-color="#b8c4d3" stop-opacity=".4"/>
    </linearGradient>
    <linearGradient id="linear-gradient2" x1="435.5" y1="382.7" x2="815.5" y2="296.7" gradientTransform="translate(0 1200) scale(1 -1)" gradientUnits="userSpaceOnUse">
      <stop offset="0" stop-color="#c3cdd9"/>
      <stop offset=".6" stop-color="#7f8c9f"/>
      <stop offset="1" stop-color="#5b677a"/>
    </linearGradient>
    <linearGradient id="linear-gradient3" x1="971.5" y1="666.1" x2="1271.5" y2="170.1" gradientTransform="translate(0 1200) scale(1 -1)" gradientUnits="userSpaceOnUse">
      <stop offset="0" stop-color="#d2dae6"/>
      <stop offset=".5" stop-color="#7a8698"/>
      <stop offset="1" stop-color="#344152"/>
    </linearGradient>
    <linearGradient id="linear-gradient4" x1="998" y1="634" x2="1238" y2="214" gradientTransform="translate(0 1200) scale(1 -1)" gradientUnits="userSpaceOnUse">
      <stop offset="0" stop-color="#aeb9ca"/>
      <stop offset=".5" stop-color="#5a677b"/>
      <stop offset="1" stop-color="#223040"/>
    </linearGradient>
    <linearGradient id="linear-gradient5" x1="1019.7" y1="336" x2="609.7" y2="302" gradientTransform="translate(0 1200) scale(1 -1)" gradientUnits="userSpaceOnUse">
      <stop offset="0" stop-color="#facc15" stop-opacity=".7"/>
      <stop offset="1" stop-color="#94a3b8" stop-opacity=".3"/>
    </linearGradient>
  </defs>
  <rect class="st9" x=".5" y=".5" width="1600" height="1200"/>
  <ellipse class="st8" cx="1134" cy="1010" rx="520" ry="170"/>
  <g>
    <rect class="st1" x="836" y="208" width="394" height="244" rx="30" ry="30"/>
    <rect class="st6" x="890" y="256" width="286" height="148" rx="18" ry="18"/>
  </g>
  <g>
    <rect class="st0" x="418" y="816" width="412" height="88" rx="24" ry="24"/>
    <path class="st5" d="M462,844h324c2.2,0,4,1.8,4,4h0c0,2.2-1.8,4-4,4h-324c-2.2,0-4-1.8-4-4h0c0-2.2,1.8-4,4-4Z"/>
  </g>
  <g>
    <rect class="st2" x="952" y="520" width="332" height="512" rx="72" ry="72"/>
    <rect class="st3" x="998" y="566" width="240" height="420" rx="48" ry="48"/>
    <path class="st7" d="M1043,616h150c3.9,0,7,3.1,7,7h0c0,3.9-3.1,7-7,7h-150c-3.9,0-7-3.1-7-7h0c0-3.9,3.1-7,7-7Z"/>
    <path class="st11" d="M1024,738h0c7.7,0,14,6.3,14,14v68c0,7.7-6.3,14-14,14h0c-7.7,0-14-6.3-14-14v-68c0-7.7,6.3-14,14-14Z"/>
    <path class="st11" d="M1024,854h0c7.7,0,14,6.3,14,14v16c0,7.7-6.3,14-14,14h0c-7.7,0-14-6.3-14-14v-16c0-7.7,6.3-14,14-14Z"/>
    <path class="st12" d="M1218,712h0c8.8,0,16,7.2,16,16v46c0,8.8-7.2,16-16,16h0c-8.8,0-16-7.2-16-16v-46c0-8.8,7.2-16,16-16Z"/>
    <path class="st12" d="M1218,808h0c8.8,0,16,7.2,16,16v60c0,8.8-7.2,16-16,16h0c-8.8,0-16-7.2-16-16v-60c0-8.8,7.2-16,16-16Z"/>
  </g>
  <path class="st10" d="M1020,868c-78-8-158-8-232,14-64,18-122,26-178,20"/>
  <circle class="st4" cx="972" cy="552" r="10"/>
</svg>