<?xml version="1.0" encoding="UTF-8"?>
<svg xmlns="http://www.w3.org/2000/svg" width="1600" height="1200" viewBox="0 0 1600 1200" fill="none">
  <defs>
    <linearGradient id="pdp-multimedia-hero-bg" x1="0" y1="0" x2="1600" y2="1200" gradientUnits="userSpaceOnUse">
      <stop offset="0" stop-color="#F7FAFD"/>
      <stop offset="1" stop-color="#EAEFF5"/>
    </linearGradient>
    <radialGradient id="pdp-multimedia-hero-glow" cx="0" cy="0" r="1" gradientUnits="userSpaceOnUse" gradientTransform="translate(1088 336.00000000000006) rotate(130) scale(608 408.00000000000006)">
      <stop stop-color="#FFFFFF" stop-opacity="0.95"/>
      <stop offset="1" stop-color="#FFFFFF" stop-opacity="0"/>
    </radialGradient>
    <radialGradient id="pdp-multimedia-hero-amber" cx="0" cy="0" r="1" gradientUnits="userSpaceOnUse" gradientTransform="translate(1312 888) rotate(130) scale(288 144)">
      <stop stop-color="#D7A24B" stop-opacity="0.26"/>
      <stop offset="1" stop-color="#D7A24B" stop-opacity="0"/>
    </radialGradient>
    <linearGradient id="pdp-multimedia-hero-panel" x1="0" y1="0" x2="0" y2="1">
      <stop stop-color="#FFFFFF"/>
      <stop offset="1" stop-color="#EEF3F8"/>
    </linearGradient>
    <linearGradient id="pdp-multimedia-hero-metal" x1="0" y1="0" x2="1" y2="1">
      <stop stop-color="#F8FBFF"/>
      <stop offset="0.45" stop-color="#C9D3DF"/>
      <stop offset="1" stop-color="#7E91AF"/>
    </linearGradient>
    <linearGradient id="pdp-multimedia-hero-metal-dark" x1="0" y1="0" x2="1" y2="1">
      <stop stop-color="#3B4758"/>
      <stop offset="1" stop-color="#111827"/>
    </linearGradient>
    <filter id="pdp-multimedia-hero-blur" x="-20%" y="-20%" width="140%" height="140%">
      <feGaussianBlur stdDeviation="28"/>
    </filter>
    <filter id="pdp-multimedia-hero-shadow" x="-40%" y="-40%" width="180%" height="200%">
      <feDropShadow dx="0" dy="24" stdDeviation="26" flood-color="#000814" flood-opacity="0.22"/>
    </filter>
    <pattern id="pdp-multimedia-hero-grid" width="84" height="84" patternUnits="userSpaceOnUse">
      <path d="M84 0H0V84" stroke="#D9E1EA" stroke-opacity=".4" stroke-width="1"/>
    </pattern>
  </defs>
  <rect width="1600" height="1200" fill="url(#pdp-multimedia-hero-bg)"/>
  <rect width="1600" height="1200" fill="url(#pdp-multimedia-hero-grid)" opacity=".55"/>
  <rect x="96" y="96" width="1408" height="960" rx="72" fill="#FBFDFF" fill-opacity=".68" stroke="#E3E8EF" stroke-opacity="1"/>
  <ellipse cx="832" cy="996" rx="480" ry="96" fill="#0B1120" fill-opacity=".08" filter="url(#pdp-multimedia-hero-blur)"/>
  <ellipse cx="832" cy="384" rx="544" ry="264" fill="url(#pdp-multimedia-hero-glow)"/>
  <ellipse cx="1312" cy="888" rx="288" ry="144" fill="url(#pdp-multimedia-hero-amber)"/>
    <g transform="translate(320 408.00000000000006) rotate(4 432 132)">
      <ellipse cx="432" cy="242.88000000000002" rx="483.84000000000003" ry="47.519999999999996" fill="#0B1120" fill-opacity=".16" filter="url(#pdp-multimedia-hero-blur)"/>
      <g filter="url(#pdp-multimedia-hero-shadow)">
        <rect x="0" y="21.12" width="864" height="211.20000000000002" rx="28" fill="url(#pdp-multimedia-hero-metal)" stroke="#D8E0E8"/>
        <rect x="51.839999999999996" y="36.96" width="760.32" height="31.68" rx="15.84" fill="rgba(255,255,255,.8)" opacity=".8"/>
        <rect x="86.4" y="31.68" width="449.28000000000003" height="21.12" rx="10.56" fill="#F4D28A" opacity=".42"/>
        <rect x="103.67999999999999" y="190.07999999999998" width="656.64" height="15.84" rx="7.92" fill="rgba(15,23,42,.08)"/>
        <rect x="138.24" y="124.08" width="74.99520000000001" height="14" rx="7" fill="#1E293B" fill-opacity=".82"/><rect x="259.20000000000005" y="124.08" width="74.99520000000001" height="14" rx="7" fill="#1E293B" fill-opacity=".82"/><rect x="380.16" y="124.08" width="74.99520000000001" height="14" rx="7" fill="#1E293B" fill-opacity=".82"/><rect x="501.12" y="124.08" width="74.99520000000001" height="14" rx="7" fill="#1E293B" fill-opacity=".82"/><rect x="622.08" y="124.08" width="74.99520000000001" height="14" rx="7" fill="#1E293B" fill-opacity=".82"/>
      </g>
      <path d="M777.6 137.28 C 881.28 110.88, 1002.2399999999999 47.519999999999996, 1054.08 31.68" stroke="#162033" stroke-width="21.12" stroke-linecap="round" opacity=".9"/><circle cx="1054.08" cy="31.68" r="15.84" fill="#162033"/>
    </g>
</svg>
