<?xml version="1.0" encoding="UTF-8"?>
<svg xmlns="http://www.w3.org/2000/svg" width="1600" height="1200" viewBox="0 0 1600 1200" fill="none">
  <defs>
    <linearGradient id="pdp-dock-hero-bg" x1="0" y1="0" x2="1600" y2="1200" gradientUnits="userSpaceOnUse">
      <stop offset="0" stop-color="#F7FAFD"/>
      <stop offset="1" stop-color="#EAEFF5"/>
    </linearGradient>
    <radialGradient id="pdp-dock-hero-glow" cx="0" cy="0" r="1" gradientUnits="userSpaceOnUse" gradientTransform="translate(1088 336.00000000000006) rotate(130) scale(608 408.00000000000006)">
      <stop stop-color="#FFFFFF" stop-opacity="0.95"/>
      <stop offset="1" stop-color="#FFFFFF" stop-opacity="0"/>
    </radialGradient>
    <radialGradient id="pdp-dock-hero-amber" cx="0" cy="0" r="1" gradientUnits="userSpaceOnUse" gradientTransform="translate(1312 888) rotate(130) scale(288 144)">
      <stop stop-color="#D7A24B" stop-opacity="0.26"/>
      <stop offset="1" stop-color="#D7A24B" stop-opacity="0"/>
    </radialGradient>
    <linearGradient id="pdp-dock-hero-panel" x1="0" y1="0" x2="0" y2="1">
      <stop stop-color="#FFFFFF"/>
      <stop offset="1" stop-color="#EEF3F8"/>
    </linearGradient>
    <linearGradient id="pdp-dock-hero-metal" x1="0" y1="0" x2="1" y2="1">
      <stop stop-color="#F8FBFF"/>
      <stop offset="0.45" stop-color="#C9D3DF"/>
      <stop offset="1" stop-color="#7E91AF"/>
    </linearGradient>
    <linearGradient id="pdp-dock-hero-metal-dark" x1="0" y1="0" x2="1" y2="1">
      <stop stop-color="#3B4758"/>
      <stop offset="1" stop-color="#111827"/>
    </linearGradient>
    <filter id="pdp-dock-hero-blur" x="-20%" y="-20%" width="140%" height="140%">
      <feGaussianBlur stdDeviation="28"/>
    </filter>
    <filter id="pdp-dock-hero-shadow" x="-40%" y="-40%" width="180%" height="200%">
      <feDropShadow dx="0" dy="24" stdDeviation="26" flood-color="#000814" flood-opacity="0.22"/>
    </filter>
    <pattern id="pdp-dock-hero-grid" width="84" height="84" patternUnits="userSpaceOnUse">
      <path d="M84 0H0V84" stroke="#D9E1EA" stroke-opacity=".4" stroke-width="1"/>
    </pattern>
  </defs>
  <rect width="1600" height="1200" fill="url(#pdp-dock-hero-bg)"/>
  <rect width="1600" height="1200" fill="url(#pdp-dock-hero-grid)" opacity=".55"/>
  <rect x="96" y="96" width="1408" height="960" rx="72" fill="#FBFDFF" fill-opacity=".68" stroke="#E3E8EF" stroke-opacity="1"/>
  <ellipse cx="832" cy="996" rx="480" ry="96" fill="#0B1120" fill-opacity=".08" filter="url(#pdp-dock-hero-blur)"/>
  <ellipse cx="832" cy="384" rx="544" ry="264" fill="url(#pdp-dock-hero-glow)"/>
  <ellipse cx="1312" cy="888" rx="288" ry="144" fill="url(#pdp-dock-hero-amber)"/>
    <g transform="translate(192 288)">
      <rect x="53.76" y="0" width="483.84" height="220.32000000000005" rx="16.320000000000004" fill="url(#pdp-dock-hero-panel)" stroke="#D6DEE8"/>
      <rect x="87.36" y="20.400000000000006" width="416.64" height="171.36" rx="12.240000000000002" fill="#F3F7FB"/>
      <rect x="0" y="220.32000000000005" width="672" height="40.80000000000001" rx="16.320000000000004" fill="url(#pdp-dock-hero-metal)"/>
      <rect x="255.36" y="232.56" width="107.52" height="6.120000000000001" rx="2.8560000000000003" fill="#90A0B5"/>
    </g>    <g transform="translate(768 660) rotate(-4 256 96)">
      <ellipse cx="256" cy="176.64000000000001" rx="286.72" ry="34.56" fill="#0B1120" fill-opacity=".16" filter="url(#pdp-dock-hero-blur)"/>
      <g filter="url(#pdp-dock-hero-shadow)">
        <rect x="0" y="15.36" width="512" height="153.60000000000002" rx="28" fill="url(#pdp-dock-hero-metal-dark)" stroke="#465267"/>
        <rect x="30.72" y="26.880000000000003" width="450.56" height="23.04" rx="11.52" fill="rgba(255,255,255,.12)" opacity=".8"/>
        <rect x="51.2" y="23.04" width="266.24" height="15.36" rx="7.68" fill="#F4D28A" opacity=".42"/>
        <rect x="61.44" y="138.24" width="389.12" height="11.52" rx="5.76" fill="rgba(15,23,42,.08)"/>
        <rect x="81.92" y="90.24" width="44.4416" height="14" rx="7" fill="#0A1020" fill-opacity=".82"/><rect x="153.60000000000002" y="90.24" width="44.4416" height="14" rx="7" fill="#0A1020" fill-opacity=".82"/><rect x="225.28000000000003" y="90.24" width="44.4416" height="14" rx="7" fill="#0A1020" fill-opacity=".82"/><rect x="296.96000000000004" y="90.24" width="44.4416" height="14" rx="7" fill="#0A1020" fill-opacity=".82"/><rect x="368.64000000000004" y="90.24" width="44.4416" height="14" rx="7" fill="#0A1020" fill-opacity=".82"/><rect x="440.32000000000005" y="90.24" width="44.4416" height="14" rx="7" fill="#0A1020" fill-opacity=".82"/>
      </g>
      <path d="M460.8 99.84 C 522.24 80.64, 593.92 34.56, 624.64 23.04" stroke="#162033" stroke-width="15.36" stroke-linecap="round" opacity=".9"/><circle cx="624.64" cy="23.04" r="11.52" fill="#162033"/>
    </g>
</svg>
