<?xml version="1.0" encoding="UTF-8"?>
<svg id="Layer_1" xmlns="http://www.w3.org/2000/svg" xmlns:xlink="http://www.w3.org/1999/xlink" version="1.1" viewBox="0 0 1600 1200">
  <!-- Generator: Adobe Illustrator 30.2.1, SVG Export Plug-In . SVG Version: 2.1.1 Build 1)  -->
  <defs>
    <style>
      .st0 {
        fill: url(#linear-gradient2);
      }

      .st1 {
        fill: url(#linear-gradient1);
      }

      .st2 {
        fill: url(#linear-gradient3);
      }

      .st3 {
        fill: #facc15;
      }

      .st4 {
        fill-opacity: .2;
      }

      .st4, .st5 {
        fill: #f8fafc;
      }

      .st5 {
        fill-opacity: .3;
      }

      .st6 {
        fill: url(#radial-gradient);
      }

      .st7 {
        fill: url(#linear-gradient);
      }

      .st8 {
        fill: #172031;
        fill-opacity: .4;
      }

      .st9 {
        fill: none;
        stroke: url(#linear-gradient4);
        stroke-linecap: round;
        stroke-width: 14px;
      }
    </style>
    <linearGradient id="linear-gradient" x1="0" y1="600" x2="1600" y2="600" gradientUnits="userSpaceOnUse">
      <stop offset="0" stop-color="#111827"/>
      <stop offset=".4" stop-color="#364152"/>
      <stop offset="1" stop-color="#969eaa"/>
    </linearGradient>
    <radialGradient id="radial-gradient" cx="492.4" cy="941.1" fx="492.4" fy="941.1" r="1" gradientTransform="translate(-501404 -78760) rotate(90) scale(162 -534)" gradientUnits="userSpaceOnUse">
      <stop offset="0" stop-color="#facc15" stop-opacity=".2"/>
      <stop offset="1" stop-color="#facc15" stop-opacity="0"/>
    </radialGradient>
    <linearGradient id="linear-gradient1" x1="725.9" y1="665" x2="1267.9" y2="321" gradientTransform="translate(0 1200) scale(1 -1)" gradientUnits="userSpaceOnUse">
      <stop offset="0" stop-color="#d7dee8"/>
      <stop offset=".5" stop-color="#8d99aa"/>
      <stop offset="1" stop-color="#4a5568"/>
    </linearGradient>
    <linearGradient id="linear-gradient2" x1="744" y1="622" x2="1250" y2="364" gradientTransform="translate(0 1200) scale(1 -1)" gradientUnits="userSpaceOnUse">
      <stop offset="0" stop-color="#fff"/>
      <stop offset=".5" stop-color="#d4dce8"/>
      <stop offset="1" stop-color="#b5c0d0"/>
    </linearGradient>
    <linearGradient id="linear-gradient3" x1="1134" y1="860.9" x2="1364" y2="702.9" gradientTransform="translate(0 1200) scale(1 -1)" gradientUnits="userSpaceOnUse">
      <stop offset="0" stop-color="#e6edf6" stop-opacity=".8"/>
      <stop offset="1" stop-color="#c9d4e3" stop-opacity=".4"/>
    </linearGradient>
    <linearGradient id="linear-gradient4" x1="1198" y1="313.4" x2="1544" y2="313.4" gradientTransform="translate(0 1200) scale(1 -1)" gradientUnits="userSpaceOnUse">
      <stop offset="0" stop-color="#facc15" stop-opacity=".8"/>
      <stop offset="1" stop-color="#94a3b8" stop-opacity=".3"/>
    </linearGradient>
  </defs>
  <rect class="st7" width="1600" height="1200"/>
  <ellipse class="st6" cx="1130" cy="1010" rx="534" ry="162"/>
  <g>
    <rect class="st1" x="698" y="532" width="598" height="350" rx="74" ry="74"/>
    <rect class="st0" x="744" y="578" width="506" height="258" rx="54" ry="54"/>
    <path class="st5" d="M800,624h306c4.4,0,8,3.6,8,8h0c0,4.4-3.6,8-8,8h-306c-4.4,0-8-3.6-8-8h0c0-4.4,3.6-8,8-8Z"/>
    <path class="st4" d="M799,674h194c3.9,0,7,3.1,7,7h0c0,3.9-3.1,7-7,7h-194c-3.9,0-7-3.1-7-7h0c0-3.9,3.1-7,7-7Z"/>
    <path class="st8" d="M786,740h62c6.6,0,12,5.4,12,12h0c0,6.6-5.4,12-12,12h-62c-6.6,0-12-5.4-12-12h0c0-6.6,5.4-12,12-12Z"/>
    <path class="st8" d="M888,740h80c6.6,0,12,5.4,12,12h0c0,6.6-5.4,12-12,12h-80c-6.6,0-12-5.4-12-12h0c0-6.6,5.4-12,12-12Z"/>
    <path class="st8" d="M1008,740h36c6.6,0,12,5.4,12,12h0c0,6.6-5.4,12-12,12h-36c-6.6,0-12-5.4-12-12h0c0-6.6,5.4-12,12-12Z"/>
    <path class="st8" d="M1084,740h36c6.6,0,12,5.4,12,12h0c0,6.6-5.4,12-12,12h-36c-6.6,0-12-5.4-12-12h0c0-6.6,5.4-12,12-12Z"/>
    <path class="st8" d="M1160,740h54c6.6,0,12,5.4,12,12h0c0,6.6-5.4,12-12,12h-54c-6.6,0-12-5.4-12-12h0c0-6.6,5.4-12,12-12Z"/>
  </g>
  <g>
    <rect class="st2" x="1122" y="332" width="248" height="168" rx="28" ry="28"/>
    <rect class="st4" x="1170" y="370" width="152" height="92" rx="18" ry="18"/>
  </g>
  <path class="st9" d="M1198,882c70-26,154-26,224,6,40,18,82,26,122,20"/>
  <circle class="st3" cx="734" cy="562" r="10"/>
</svg>