<?xml version="1.0" encoding="UTF-8"?>
<svg xmlns="http://www.w3.org/2000/svg" width="1600" height="1200" viewBox="0 0 1600 1200" fill="none">
  <defs>
    <linearGradient id="pdp-dock-ports-bg" x1="0" y1="0" x2="1600" y2="1200" gradientUnits="userSpaceOnUse">
      <stop offset="0" stop-color="#F7FAFD"/>
      <stop offset="1" stop-color="#EAEFF5"/>
    </linearGradient>
    <radialGradient id="pdp-dock-ports-glow" cx="0" cy="0" r="1" gradientUnits="userSpaceOnUse" gradientTransform="translate(1088 336.00000000000006) rotate(130) scale(608 408.00000000000006)">
      <stop stop-color="#FFFFFF" stop-opacity="0.95"/>
      <stop offset="1" stop-color="#FFFFFF" stop-opacity="0"/>
    </radialGradient>
    <radialGradient id="pdp-dock-ports-amber" cx="0" cy="0" r="1" gradientUnits="userSpaceOnUse" gradientTransform="translate(1312 888) rotate(130) scale(288 144)">
      <stop stop-color="#D7A24B" stop-opacity="0.26"/>
      <stop offset="1" stop-color="#D7A24B" stop-opacity="0"/>
    </radialGradient>
    <linearGradient id="pdp-dock-ports-panel" x1="0" y1="0" x2="0" y2="1">
      <stop stop-color="#FFFFFF"/>
      <stop offset="1" stop-color="#EEF3F8"/>
    </linearGradient>
    <linearGradient id="pdp-dock-ports-metal" x1="0" y1="0" x2="1" y2="1">
      <stop stop-color="#F8FBFF"/>
      <stop offset="0.45" stop-color="#C9D3DF"/>
      <stop offset="1" stop-color="#7E91AF"/>
    </linearGradient>
    <linearGradient id="pdp-dock-ports-metal-dark" x1="0" y1="0" x2="1" y2="1">
      <stop stop-color="#3B4758"/>
      <stop offset="1" stop-color="#111827"/>
    </linearGradient>
    <filter id="pdp-dock-ports-blur" x="-20%" y="-20%" width="140%" height="140%">
      <feGaussianBlur stdDeviation="28"/>
    </filter>
    <filter id="pdp-dock-ports-shadow" x="-40%" y="-40%" width="180%" height="200%">
      <feDropShadow dx="0" dy="24" stdDeviation="26" flood-color="#000814" flood-opacity="0.22"/>
    </filter>
    <pattern id="pdp-dock-ports-grid" width="84" height="84" patternUnits="userSpaceOnUse">
      <path d="M84 0H0V84" stroke="#D9E1EA" stroke-opacity=".4" stroke-width="1"/>
    </pattern>
  </defs>
  <rect width="1600" height="1200" fill="url(#pdp-dock-ports-bg)"/>
  <rect width="1600" height="1200" fill="url(#pdp-dock-ports-grid)" opacity=".55"/>
  <rect x="96" y="96" width="1408" height="960" rx="72" fill="#FBFDFF" fill-opacity=".68" stroke="#E3E8EF" stroke-opacity="1"/>
  <ellipse cx="832" cy="996" rx="480" ry="96" fill="#0B1120" fill-opacity=".08" filter="url(#pdp-dock-ports-blur)"/>
  <ellipse cx="832" cy="384" rx="544" ry="264" fill="url(#pdp-dock-ports-glow)"/>
  <ellipse cx="1312" cy="888" rx="288" ry="144" fill="url(#pdp-dock-ports-amber)"/>
    <g transform="translate(224.00000000000003 408.00000000000006) rotate(0 576 156)">
      <ellipse cx="576" cy="287.04" rx="645.1200000000001" ry="56.16" fill="#0B1120" fill-opacity=".16" filter="url(#pdp-dock-ports-blur)"/>
      <g filter="url(#pdp-dock-ports-shadow)">
        <rect x="0" y="24.96" width="1152" height="249.60000000000002" rx="28" fill="url(#pdp-dock-ports-metal-dark)" stroke="#465267"/>
        <rect x="69.12" y="43.68000000000001" width="1013.76" height="37.44" rx="18.72" fill="rgba(255,255,255,.12)" opacity=".8"/>
        <rect x="115.2" y="37.44" width="599.04" height="24.96" rx="12.48" fill="#F4D28A" opacity=".42"/>
        <rect x="138.24" y="224.64" width="875.52" height="18.72" rx="9.36" fill="rgba(15,23,42,.08)"/>
        <rect x="184.32" y="146.64" width="99.99360000000001" height="14" rx="7" fill="#0A1020" fill-opacity=".82"/><rect x="345.6" y="146.64" width="99.99360000000001" height="14" rx="7" fill="#0A1020" fill-opacity=".82"/><rect x="506.88000000000005" y="146.64" width="99.99360000000001" height="14" rx="7" fill="#0A1020" fill-opacity=".82"/><rect x="668.1600000000001" y="146.64" width="99.99360000000001" height="14" rx="7" fill="#0A1020" fill-opacity=".82"/><rect x="829.44" y="146.64" width="99.99360000000001" height="14" rx="7" fill="#0A1020" fill-opacity=".82"/><rect x="990.72" y="146.64" width="99.99360000000001" height="14" rx="7" fill="#0A1020" fill-opacity=".82"/>
      </g>
      
    </g><rect x="352" y="816.0000000000001" width="896.0000000000001" height="21.599999999999998" rx="12" fill="#B3BFCE" opacity=".45"/>
</svg>
