<?xml version="1.0" encoding="UTF-8"?>
<svg xmlns="http://www.w3.org/2000/svg" width="1600" height="1200" viewBox="0 0 1600 1200" fill="none">
  <defs>
    <linearGradient id="pdp-travel-setup-bg" x1="0" y1="0" x2="1600" y2="1200" gradientUnits="userSpaceOnUse">
      <stop offset="0" stop-color="#F7FAFD"/>
      <stop offset="1" stop-color="#EAEFF5"/>
    </linearGradient>
    <radialGradient id="pdp-travel-setup-glow" cx="0" cy="0" r="1" gradientUnits="userSpaceOnUse" gradientTransform="translate(1088 336.00000000000006) rotate(130) scale(608 408.00000000000006)">
      <stop stop-color="#FFFFFF" stop-opacity="0.95"/>
      <stop offset="1" stop-color="#FFFFFF" stop-opacity="0"/>
    </radialGradient>
    <radialGradient id="pdp-travel-setup-amber" cx="0" cy="0" r="1" gradientUnits="userSpaceOnUse" gradientTransform="translate(1312 888) rotate(130) scale(288 144)">
      <stop stop-color="#D7A24B" stop-opacity="0.26"/>
      <stop offset="1" stop-color="#D7A24B" stop-opacity="0"/>
    </radialGradient>
    <linearGradient id="pdp-travel-setup-panel" x1="0" y1="0" x2="0" y2="1">
      <stop stop-color="#FFFFFF"/>
      <stop offset="1" stop-color="#EEF3F8"/>
    </linearGradient>
    <linearGradient id="pdp-travel-setup-metal" x1="0" y1="0" x2="1" y2="1">
      <stop stop-color="#F8FBFF"/>
      <stop offset="0.45" stop-color="#C9D3DF"/>
      <stop offset="1" stop-color="#7E91AF"/>
    </linearGradient>
    <linearGradient id="pdp-travel-setup-metal-dark" x1="0" y1="0" x2="1" y2="1">
      <stop stop-color="#3B4758"/>
      <stop offset="1" stop-color="#111827"/>
    </linearGradient>
    <filter id="pdp-travel-setup-blur" x="-20%" y="-20%" width="140%" height="140%">
      <feGaussianBlur stdDeviation="28"/>
    </filter>
    <filter id="pdp-travel-setup-shadow" x="-40%" y="-40%" width="180%" height="200%">
      <feDropShadow dx="0" dy="24" stdDeviation="26" flood-color="#000814" flood-opacity="0.22"/>
    </filter>
    <pattern id="pdp-travel-setup-grid" width="84" height="84" patternUnits="userSpaceOnUse">
      <path d="M84 0H0V84" stroke="#D9E1EA" stroke-opacity=".4" stroke-width="1"/>
    </pattern>
  </defs>
  <rect width="1600" height="1200" fill="url(#pdp-travel-setup-bg)"/>
  <rect width="1600" height="1200" fill="url(#pdp-travel-setup-grid)" opacity=".55"/>
  <rect x="96" y="96" width="1408" height="960" rx="72" fill="#FBFDFF" fill-opacity=".68" stroke="#E3E8EF" stroke-opacity="1"/>
  <ellipse cx="832" cy="996" rx="480" ry="96" fill="#0B1120" fill-opacity=".08" filter="url(#pdp-travel-setup-blur)"/>
  <ellipse cx="832" cy="384" rx="544" ry="264" fill="url(#pdp-travel-setup-glow)"/>
  <ellipse cx="1312" cy="888" rx="288" ry="144" fill="url(#pdp-travel-setup-amber)"/>
    <g transform="translate(192 360)">
      <rect x="53.76" y="0" width="483.84" height="220.32000000000005" rx="16.320000000000004" fill="url(#pdp-travel-setup-panel)" stroke="#D6DEE8"/>
      <rect x="87.36" y="20.400000000000006" width="416.64" height="171.36" rx="12.240000000000002" fill="#F3F7FB"/>
      <rect x="0" y="220.32000000000005" width="672" height="40.80000000000001" rx="16.320000000000004" fill="url(#pdp-travel-setup-metal)"/>
      <rect x="255.36" y="232.56" width="107.52" height="6.120000000000001" rx="2.8560000000000003" fill="#90A0B5"/>
    </g>    <g transform="translate(832 660) rotate(-10 192 84.00000000000001)">
      <ellipse cx="192" cy="154.56000000000003" rx="215.04000000000002" ry="30.240000000000006" fill="#0B1120" fill-opacity=".16" filter="url(#pdp-travel-setup-blur)"/>
      <g filter="url(#pdp-travel-setup-shadow)">
        <rect x="0" y="13.440000000000003" width="384" height="134.40000000000003" rx="28" fill="url(#pdp-travel-setup-metal)" stroke="#D8E0E8"/>
        <rect x="23.04" y="23.520000000000007" width="337.92" height="20.160000000000004" rx="10.080000000000002" fill="rgba(255,255,255,.8)" opacity=".8"/>
        <rect x="38.400000000000006" y="20.160000000000004" width="199.68" height="13.440000000000003" rx="6.7200000000000015" fill="#F4D28A" opacity=".42"/>
        <rect x="46.08" y="120.96000000000002" width="291.84000000000003" height="10.080000000000002" rx="5.040000000000001" fill="rgba(15,23,42,.08)"/>
        <rect x="61.44" y="78.96000000000001" width="33.3312" height="14" rx="7" fill="#1E293B" fill-opacity=".82"/><rect x="115.2" y="78.96000000000001" width="33.3312" height="14" rx="7" fill="#1E293B" fill-opacity=".82"/><rect x="168.96" y="78.96000000000001" width="33.3312" height="14" rx="7" fill="#1E293B" fill-opacity=".82"/><rect x="222.72000000000003" y="78.96000000000001" width="33.3312" height="14" rx="7" fill="#1E293B" fill-opacity=".82"/>
      </g>
      <path d="M345.6 87.36000000000001 C 391.68 70.56, 445.43999999999994 30.240000000000006, 468.48 20.160000000000004" stroke="#162033" stroke-width="13.440000000000003" stroke-linecap="round" opacity=".9"/><circle cx="468.48" cy="20.160000000000004" r="10.080000000000002" fill="#162033"/>
    </g>
</svg>
