<?xml version="1.0" encoding="UTF-8"?>
<svg xmlns="http://www.w3.org/2000/svg" width="1600" height="1200" viewBox="0 0 1600 1200" fill="none">
  <defs>
    <linearGradient id="pdp-dock-setup-bg" x1="0" y1="0" x2="1600" y2="1200" gradientUnits="userSpaceOnUse">
      <stop offset="0" stop-color="#F7FAFD"/>
      <stop offset="1" stop-color="#EAEFF5"/>
    </linearGradient>
    <radialGradient id="pdp-dock-setup-glow" cx="0" cy="0" r="1" gradientUnits="userSpaceOnUse" gradientTransform="translate(1088 336.00000000000006) rotate(130) scale(608 408.00000000000006)">
      <stop stop-color="#FFFFFF" stop-opacity="0.95"/>
      <stop offset="1" stop-color="#FFFFFF" stop-opacity="0"/>
    </radialGradient>
    <radialGradient id="pdp-dock-setup-amber" cx="0" cy="0" r="1" gradientUnits="userSpaceOnUse" gradientTransform="translate(1312 888) rotate(130) scale(288 144)">
      <stop stop-color="#D7A24B" stop-opacity="0.26"/>
      <stop offset="1" stop-color="#D7A24B" stop-opacity="0"/>
    </radialGradient>
    <linearGradient id="pdp-dock-setup-panel" x1="0" y1="0" x2="0" y2="1">
      <stop stop-color="#FFFFFF"/>
      <stop offset="1" stop-color="#EEF3F8"/>
    </linearGradient>
    <linearGradient id="pdp-dock-setup-metal" x1="0" y1="0" x2="1" y2="1">
      <stop stop-color="#F8FBFF"/>
      <stop offset="0.45" stop-color="#C9D3DF"/>
      <stop offset="1" stop-color="#7E91AF"/>
    </linearGradient>
    <linearGradient id="pdp-dock-setup-metal-dark" x1="0" y1="0" x2="1" y2="1">
      <stop stop-color="#3B4758"/>
      <stop offset="1" stop-color="#111827"/>
    </linearGradient>
    <filter id="pdp-dock-setup-blur" x="-20%" y="-20%" width="140%" height="140%">
      <feGaussianBlur stdDeviation="28"/>
    </filter>
    <filter id="pdp-dock-setup-shadow" x="-40%" y="-40%" width="180%" height="200%">
      <feDropShadow dx="0" dy="24" stdDeviation="26" flood-color="#000814" flood-opacity="0.22"/>
    </filter>
    <pattern id="pdp-dock-setup-grid" width="84" height="84" patternUnits="userSpaceOnUse">
      <path d="M84 0H0V84" stroke="#D9E1EA" stroke-opacity=".4" stroke-width="1"/>
    </pattern>
  </defs>
  <rect width="1600" height="1200" fill="url(#pdp-dock-setup-bg)"/>
  <rect width="1600" height="1200" fill="url(#pdp-dock-setup-grid)" opacity=".55"/>
  <rect x="96" y="96" width="1408" height="960" rx="72" fill="#FBFDFF" fill-opacity=".68" stroke="#E3E8EF" stroke-opacity="1"/>
  <ellipse cx="832" cy="996" rx="480" ry="96" fill="#0B1120" fill-opacity=".08" filter="url(#pdp-dock-setup-blur)"/>
  <ellipse cx="832" cy="384" rx="544" ry="264" fill="url(#pdp-dock-setup-glow)"/>
  <ellipse cx="1312" cy="888" rx="288" ry="144" fill="url(#pdp-dock-setup-amber)"/>
    <g transform="translate(160 312)">
      <rect x="58.88" y="0" width="529.92" height="233.28000000000003" rx="17.28" fill="url(#pdp-dock-setup-panel)" stroke="#D6DEE8"/>
      <rect x="95.68" y="21.6" width="456.32" height="181.44" rx="12.959999999999999" fill="#F3F7FB"/>
      <rect x="0" y="233.28000000000003" width="736" height="43.2" rx="17.28" fill="url(#pdp-dock-setup-metal)"/>
      <rect x="279.68" y="246.23999999999998" width="117.76" height="6.4799999999999995" rx="3.024" fill="#90A0B5"/>
    </g>    <g transform="translate(832 683.9999999999999) rotate(-2 224.00000000000003 84.00000000000001)">
      <ellipse cx="224.00000000000003" cy="154.56000000000003" rx="250.88000000000005" ry="30.240000000000006" fill="#0B1120" fill-opacity=".16" filter="url(#pdp-dock-setup-blur)"/>
      <g filter="url(#pdp-dock-setup-shadow)">
        <rect x="0" y="13.440000000000003" width="448.00000000000006" height="134.40000000000003" rx="28" fill="url(#pdp-dock-setup-metal-dark)" stroke="#465267"/>
        <rect x="26.880000000000003" y="23.520000000000007" width="394.24000000000007" height="20.160000000000004" rx="10.080000000000002" fill="rgba(255,255,255,.12)" opacity=".8"/>
        <rect x="44.80000000000001" y="20.160000000000004" width="232.96000000000004" height="13.440000000000003" rx="6.7200000000000015" fill="#F4D28A" opacity=".42"/>
        <rect x="53.760000000000005" y="120.96000000000002" width="340.4800000000001" height="10.080000000000002" rx="5.040000000000001" fill="rgba(15,23,42,.08)"/>
        <rect x="71.68" y="78.96000000000001" width="38.88640000000001" height="14" rx="7" fill="#0A1020" fill-opacity=".82"/><rect x="134.40000000000003" y="78.96000000000001" width="38.88640000000001" height="14" rx="7" fill="#0A1020" fill-opacity=".82"/><rect x="197.12000000000003" y="78.96000000000001" width="38.88640000000001" height="14" rx="7" fill="#0A1020" fill-opacity=".82"/><rect x="259.84000000000003" y="78.96000000000001" width="38.88640000000001" height="14" rx="7" fill="#0A1020" fill-opacity=".82"/><rect x="322.56000000000006" y="78.96000000000001" width="38.88640000000001" height="14" rx="7" fill="#0A1020" fill-opacity=".82"/><rect x="385.2800000000001" y="78.96000000000001" width="38.88640000000001" height="14" rx="7" fill="#0A1020" fill-opacity=".82"/>
      </g>
      <path d="M403.20000000000005 87.36000000000001 C 456.9600000000001 70.56, 519.6800000000001 30.240000000000006, 546.5600000000001 20.160000000000004" stroke="#162033" stroke-width="13.440000000000003" stroke-linecap="round" opacity=".9"/><circle cx="546.5600000000001" cy="20.160000000000004" r="10.080000000000002" fill="#162033"/>
    </g>
</svg>
