<svg width="1600" height="1200" viewBox="0 0 1600 1200" fill="none" xmlns="http://www.w3.org/2000/svg">
  <rect width="1600" height="1200" rx="44" fill="#F2F6FB"/>
  <rect width="1600" height="1200" rx="44" fill="url(#bg)"/>
  <ellipse cx="1220" cy="176" rx="300" ry="204" fill="url(#glow)"/>
  <g filter="url(#shadow)">
    <rect x="560" y="250" width="498" height="698" rx="88" fill="url(#body)"/>
    <rect x="612" y="304" width="394" height="594" rx="62" fill="url(#face)"/>
    <rect x="660" y="366" width="246" height="16" rx="8" fill="#F8FAFC" fill-opacity="0.3"/>
    <rect x="660" y="420" width="158" height="14" rx="7" fill="#F8FAFC" fill-opacity="0.18"/>
    <rect x="614" y="588" width="30" height="102" rx="15" fill="#AAB5C6"/>
    <rect x="614" y="710" width="30" height="58" rx="15" fill="#AAB5C6"/>
    <rect x="972" y="560" width="36" height="82" rx="18" fill="#9BA7BB"/>
    <rect x="972" y="660" width="36" height="98" rx="18" fill="#9BA7BB"/>
    <rect x="972" y="776" width="36" height="74" rx="18" fill="#9BA7BB"/>
  </g>
  <rect x="228" y="914" width="492" height="2" rx="1" fill="url(#line)"/>
  <circle cx="584" cy="280" r="10" fill="#FACC15"/>
  <defs>
    <linearGradient id="bg" x1="184" y1="88" x2="1410" y2="1124" gradientUnits="userSpaceOnUse">
      <stop stop-color="#F2F6FB"/>
      <stop offset="1" stop-color="#D4DDE8"/>
    </linearGradient>
    <radialGradient id="glow" cx="0" cy="0" r="1" gradientUnits="userSpaceOnUse" gradientTransform="translate(1220 176) rotate(145.304) scale(376.354 255.802)">
      <stop stop-color="#FFFFFF" stop-opacity="0.88"/>
      <stop offset="1" stop-color="#FFFFFF" stop-opacity="0"/>
    </radialGradient>
    <linearGradient id="body" x1="586" y1="266" x2="1032" y2="948" gradientUnits="userSpaceOnUse">
      <stop stop-color="#D5DDE8"/>
      <stop offset="0.54" stop-color="#818D9F"/>
      <stop offset="1" stop-color="#39475A"/>
    </linearGradient>
    <linearGradient id="face" x1="612" y1="304" x2="1006" y2="898" gradientUnits="userSpaceOnUse">
      <stop stop-color="#AFBBCB"/>
      <stop offset="0.48" stop-color="#617084"/>
      <stop offset="1" stop-color="#243141"/>
    </linearGradient>
    <linearGradient id="line" x1="228" y1="915" x2="720" y2="915" gradientUnits="userSpaceOnUse">
      <stop stop-color="#94A3B8" stop-opacity="0.36"/>
      <stop offset="1" stop-color="#94A3B8" stop-opacity="0"/>
    </linearGradient>
    <filter id="shadow" x="508" y="214" width="598" height="792" filterUnits="userSpaceOnUse" color-interpolation-filters="sRGB">
      <feFlood flood-opacity="0" result="BackgroundImageFix"/>
      <feColorMatrix in="SourceAlpha" type="matrix" values="0 0 0 0 0 0 0 0 0 0 0 0 0 0 0 0 0 0 127 0" result="hardAlpha"/>
      <feOffset dx="-16" dy="24"/>
      <feGaussianBlur stdDeviation="18"/>
      <feColorMatrix type="matrix" values="0 0 0 0 0.0588235 0 0 0 0 0.0901961 0 0 0 0 0.160784 0 0 0 0.18 0"/>
      <feBlend mode="normal" in2="BackgroundImageFix" result="effect1_dropShadow"/>
      <feBlend mode="normal" in="SourceGraphic" in2="effect1_dropShadow" result="shape"/>
    </filter>
  </defs>
</svg>
