<?xml version="1.0" encoding="UTF-8"?>
<svg id="Layer_1" xmlns="http://www.w3.org/2000/svg" xmlns:xlink="http://www.w3.org/1999/xlink" version="1.1" viewBox="0 0 1600 1200">
  <!-- Generator: Adobe Illustrator 30.2.1, SVG Export Plug-In . SVG Version: 2.1.1 Build 1)  -->
  <defs>
    <style>
      .st0 {
        fill: url(#linear-gradient2);
      }

      .st1 {
        fill: url(#linear-gradient1);
      }

      .st2 {
        fill: #facc15;
      }

      .st3 {
        fill-opacity: .2;
      }

      .st3, .st4 {
        fill: #f8fafc;
      }

      .st4 {
        fill-opacity: .3;
      }

      .st5 {
        fill: url(#linear-gradient);
      }

      .st6 {
        fill: #aab5c6;
      }

      .st7 {
        fill: #9ba7bb;
      }
    </style>
    <linearGradient id="linear-gradient" x1="-1" y1="599" x2="1599" y2="599" gradientUnits="userSpaceOnUse">
      <stop offset="0" stop-color="#111827"/>
      <stop offset=".4" stop-color="#364152"/>
      <stop offset="1" stop-color="#969eaa"/>
    </linearGradient>
    <linearGradient id="linear-gradient1" x1="589.7" y1="936.4" x2="1035.7" y2="254.4" gradientTransform="translate(0 1200) scale(1 -1)" gradientUnits="userSpaceOnUse">
      <stop offset="0" stop-color="#d5dde8"/>
      <stop offset=".5" stop-color="#818d9f"/>
      <stop offset="1" stop-color="#39475a"/>
    </linearGradient>
    <linearGradient id="linear-gradient2" x1="612" y1="896" x2="1006" y2="302" gradientTransform="translate(0 1200) scale(1 -1)" gradientUnits="userSpaceOnUse">
      <stop offset="0" stop-color="#afbbcb"/>
      <stop offset=".5" stop-color="#617084"/>
      <stop offset="1" stop-color="#243141"/>
    </linearGradient>
  </defs>
  <rect class="st5" x="-1" y="-1" width="1600" height="1200"/>
  <g>
    <rect class="st1" x="560" y="250" width="498" height="698" rx="88" ry="88"/>
    <rect class="st0" x="612" y="304" width="394" height="594" rx="62" ry="62"/>
    <path class="st4" d="M668,366h230c4.4,0,8,3.6,8,8h0c0,4.4-3.6,8-8,8h-230c-4.4,0-8-3.6-8-8h0c0-4.4,3.6-8,8-8Z"/>
    <path class="st3" d="M667,420h144c3.9,0,7,3.1,7,7h0c0,3.9-3.1,7-7,7h-144c-3.9,0-7-3.1-7-7h0c0-3.9,3.1-7,7-7Z"/>
    <path class="st6" d="M629,588h0c8.3,0,15,6.7,15,15v72c0,8.3-6.7,15-15,15h0c-8.3,0-15-6.7-15-15v-72c0-8.3,6.7-15,15-15Z"/>
    <path class="st6" d="M629,710h0c8.3,0,15,6.7,15,15v28c0,8.3-6.7,15-15,15h0c-8.3,0-15-6.7-15-15v-28c0-8.3,6.7-15,15-15Z"/>
    <path class="st7" d="M990,560h0c9.9,0,18,8.1,18,18v46c0,9.9-8.1,18-18,18h0c-9.9,0-18-8.1-18-18v-46c0-9.9,8.1-18,18-18Z"/>
    <path class="st7" d="M990,660h0c9.9,0,18,8.1,18,18v62c0,9.9-8.1,18-18,18h0c-9.9,0-18-8.1-18-18v-62c0-9.9,8.1-18,18-18Z"/>
    <path class="st7" d="M990,776h0c9.9,0,18,8.1,18,18v38c0,9.9-8.1,18-18,18h0c-9.9,0-18-8.1-18-18v-38c0-9.9,8.1-18,18-18Z"/>
  </g>
  <circle class="st2" cx="577.8" cy="259" r="45"/>
</svg>