<?xml version="1.0" encoding="UTF-8"?>
<svg id="Layer_1" xmlns="http://www.w3.org/2000/svg" xmlns:xlink="http://www.w3.org/1999/xlink" version="1.1" viewBox="0 0 1600 1200">
  <!-- Generator: Adobe Illustrator 30.2.1, SVG Export Plug-In . SVG Version: 2.1.1 Build 1)  -->
  <defs>
    <style>
      .st0 {
        fill: url(#linear-gradient2);
      }

      .st1 {
        fill: url(#linear-gradient1);
      }

      .st2 {
        fill: url(#linear-gradient3);
      }

      .st3 {
        fill: #facc15;
      }

      .st4 {
        fill-opacity: .2;
      }

      .st4, .st5 {
        fill: #f8fafc;
      }

      .st5 {
        fill-opacity: .3;
      }

      .st6 {
        fill: url(#radial-gradient);
      }

      .st7 {
        fill: url(#linear-gradient);
      }

      .st8 {
        fill: none;
        stroke: url(#linear-gradient4);
        stroke-linecap: round;
        stroke-width: 14px;
      }

      .st9 {
        fill: #a8b4c6;
      }

      .st10 {
        fill: #9aa6ba;
      }
    </style>
    <linearGradient id="linear-gradient" x1="-.5" y1="599.5" x2="1599.5" y2="599.5" gradientUnits="userSpaceOnUse">
      <stop offset="0" stop-color="#111827"/>
      <stop offset=".4" stop-color="#364152"/>
      <stop offset="1" stop-color="#969eaa"/>
    </linearGradient>
    <linearGradient id="linear-gradient1" x1="879.1" y1="839.9" x2="1251.1" y2="227.9" gradientTransform="translate(0 1200) scale(1 -1)" gradientUnits="userSpaceOnUse">
      <stop offset="0" stop-color="#d2dae6"/>
      <stop offset=".5" stop-color="#7a8698"/>
      <stop offset="1" stop-color="#334052"/>
    </linearGradient>
    <linearGradient id="linear-gradient2" x1="904" y1="802" x2="1220" y2="276" gradientTransform="translate(0 1200) scale(1 -1)" gradientUnits="userSpaceOnUse">
      <stop offset="0" stop-color="#aab6c8"/>
      <stop offset=".5" stop-color="#5a677b"/>
      <stop offset="1" stop-color="#202c3b"/>
    </linearGradient>
    <radialGradient id="radial-gradient" cx="490.5" cy="938.4" fx="490.5" fy="938.4" r="1" gradientTransform="translate(-126558 -35610) rotate(90) scale(74 -136)" gradientUnits="userSpaceOnUse">
      <stop offset="0" stop-color="#f8fafc" stop-opacity=".4"/>
      <stop offset="1" stop-color="#94a3b8" stop-opacity=".2"/>
    </radialGradient>
    <linearGradient id="linear-gradient3" x1="1169.9" y1="1081.5" x2="1433.9" y2="901.5" gradientTransform="translate(0 1200) scale(1 -1)" gradientUnits="userSpaceOnUse">
      <stop offset="0" stop-color="#dde6f0" stop-opacity=".8"/>
      <stop offset="1" stop-color="#b5c0d0" stop-opacity=".4"/>
    </linearGradient>
    <linearGradient id="linear-gradient4" x1="1140" y1="253.5" x2="1520" y2="253.5" gradientTransform="translate(0 1200) scale(1 -1)" gradientUnits="userSpaceOnUse">
      <stop offset="0" stop-color="#facc15" stop-opacity=".7"/>
      <stop offset="1" stop-color="#94a3b8" stop-opacity=".2"/>
    </linearGradient>
  </defs>
  <rect class="st7" x="-.5" y="-.5" width="1600" height="1200"/>
  <g>
    <rect class="st1" x="852" y="348" width="420" height="626" rx="82" ry="82"/>
    <rect class="st0" x="904" y="398" width="316" height="526" rx="58" ry="58"/>
    <path class="st5" d="M955,450h204c5,0,9,4,9,9h0c0,5-4,9-9,9h-204c-5,0-9-4-9-9h0c0-5,4-9,9-9Z"/>
    <path class="st4" d="M953,504h150c3.9,0,7,3.1,7,7h0c0,3.9-3.1,7-7,7h-150c-3.9,0-7-3.1-7-7h0c0-3.9,3.1-7,7-7Z"/>
    <rect class="st6" x="924" y="614" width="272" height="148" rx="44" ry="44"/>
    <rect class="st4" x="976" y="656" width="168" height="64" rx="26" ry="26"/>
    <path class="st9" d="M898,748h0c7.7,0,14,6.3,14,14v70c0,7.7-6.3,14-14,14h0c-7.7,0-14-6.3-14-14v-70c0-7.7,6.3-14,14-14Z"/>
    <path class="st9" d="M898,866h0c7.7,0,14,6.3,14,14v14c0,7.7-6.3,14-14,14h0c-7.7,0-14-6.3-14-14v-14c0-7.7,6.3-14,14-14Z"/>
    <path class="st10" d="M1229,652h0c9.4,0,17,7.6,17,17v38c0,9.4-7.6,17-17,17h0c-9.4,0-17-7.6-17-17v-38c0-9.4,7.6-17,17-17Z"/>
    <path class="st10" d="M1229,742h0c9.4,0,17,7.6,17,17v56c0,9.4-7.6,17-17,17h0c-9.4,0-17-7.6-17-17v-56c0-9.4,7.6-17,17-17Z"/>
    <path class="st10" d="M1229,848h0c9.4,0,17,7.6,17,17v32c0,9.4-7.6,17-17,17h0c-9.4,0-17-7.6-17-17v-32c0-9.4,7.6-17,17-17Z"/>
  </g>
  <g>
    <rect class="st2" x="1154.2" y="111" width="288" height="190" rx="28" ry="28"/>
    <rect class="st4" x="1204.2" y="153" width="188" height="106" rx="18" ry="18"/>
  </g>
  <path class="st8" d="M1140,946c76-26,170-26,246,2,44,16,90,22,134,16"/>
  <circle class="st3" cx="876" cy="378" r="10"/>
</svg>