<?xml version="1.0" encoding="UTF-8"?>
<svg xmlns="http://www.w3.org/2000/svg" width="1600" height="1200" viewBox="0 0 1600 1200" fill="none">
  <defs>
    <linearGradient id="pdp-travel-hero-bg" x1="0" y1="0" x2="1600" y2="1200" gradientUnits="userSpaceOnUse">
      <stop offset="0" stop-color="#F7FAFD"/>
      <stop offset="1" stop-color="#EAEFF5"/>
    </linearGradient>
    <radialGradient id="pdp-travel-hero-glow" cx="0" cy="0" r="1" gradientUnits="userSpaceOnUse" gradientTransform="translate(1088 336.00000000000006) rotate(130) scale(608 408.00000000000006)">
      <stop stop-color="#FFFFFF" stop-opacity="0.95"/>
      <stop offset="1" stop-color="#FFFFFF" stop-opacity="0"/>
    </radialGradient>
    <radialGradient id="pdp-travel-hero-amber" cx="0" cy="0" r="1" gradientUnits="userSpaceOnUse" gradientTransform="translate(1312 888) rotate(130) scale(288 144)">
      <stop stop-color="#D7A24B" stop-opacity="0.26"/>
      <stop offset="1" stop-color="#D7A24B" stop-opacity="0"/>
    </radialGradient>
    <linearGradient id="pdp-travel-hero-panel" x1="0" y1="0" x2="0" y2="1">
      <stop stop-color="#FFFFFF"/>
      <stop offset="1" stop-color="#EEF3F8"/>
    </linearGradient>
    <linearGradient id="pdp-travel-hero-metal" x1="0" y1="0" x2="1" y2="1">
      <stop stop-color="#F8FBFF"/>
      <stop offset="0.45" stop-color="#C9D3DF"/>
      <stop offset="1" stop-color="#7E91AF"/>
    </linearGradient>
    <linearGradient id="pdp-travel-hero-metal-dark" x1="0" y1="0" x2="1" y2="1">
      <stop stop-color="#3B4758"/>
      <stop offset="1" stop-color="#111827"/>
    </linearGradient>
    <filter id="pdp-travel-hero-blur" x="-20%" y="-20%" width="140%" height="140%">
      <feGaussianBlur stdDeviation="28"/>
    </filter>
    <filter id="pdp-travel-hero-shadow" x="-40%" y="-40%" width="180%" height="200%">
      <feDropShadow dx="0" dy="24" stdDeviation="26" flood-color="#000814" flood-opacity="0.22"/>
    </filter>
    <pattern id="pdp-travel-hero-grid" width="84" height="84" patternUnits="userSpaceOnUse">
      <path d="M84 0H0V84" stroke="#D9E1EA" stroke-opacity=".4" stroke-width="1"/>
    </pattern>
  </defs>
  <rect width="1600" height="1200" fill="url(#pdp-travel-hero-bg)"/>
  <rect width="1600" height="1200" fill="url(#pdp-travel-hero-grid)" opacity=".55"/>
  <rect x="96" y="96" width="1408" height="960" rx="72" fill="#FBFDFF" fill-opacity=".68" stroke="#E3E8EF" stroke-opacity="1"/>
  <ellipse cx="832" cy="996" rx="480" ry="96" fill="#0B1120" fill-opacity=".08" filter="url(#pdp-travel-hero-blur)"/>
  <ellipse cx="832" cy="384" rx="544" ry="264" fill="url(#pdp-travel-hero-glow)"/>
  <ellipse cx="1312" cy="888" rx="288" ry="144" fill="url(#pdp-travel-hero-amber)"/>
    <g transform="translate(384 420) rotate(-10 384 120)">
      <ellipse cx="384" cy="220.8" rx="430.08000000000004" ry="43.199999999999996" fill="#0B1120" fill-opacity=".16" filter="url(#pdp-travel-hero-blur)"/>
      <g filter="url(#pdp-travel-hero-shadow)">
        <rect x="0" y="19.2" width="768" height="192" rx="28" fill="url(#pdp-travel-hero-metal)" stroke="#D8E0E8"/>
        <rect x="46.08" y="33.6" width="675.84" height="28.799999999999997" rx="14.399999999999999" fill="rgba(255,255,255,.8)" opacity=".8"/>
        <rect x="76.80000000000001" y="28.799999999999997" width="399.36" height="19.2" rx="9.6" fill="#F4D28A" opacity=".42"/>
        <rect x="92.16" y="172.79999999999998" width="583.6800000000001" height="14.399999999999999" rx="7.199999999999999" fill="rgba(15,23,42,.08)"/>
        <rect x="122.88" y="112.8" width="66.6624" height="14" rx="7" fill="#1E293B" fill-opacity=".82"/><rect x="230.4" y="112.8" width="66.6624" height="14" rx="7" fill="#1E293B" fill-opacity=".82"/><rect x="337.92" y="112.8" width="66.6624" height="14" rx="7" fill="#1E293B" fill-opacity=".82"/><rect x="445.44000000000005" y="112.8" width="66.6624" height="14" rx="7" fill="#1E293B" fill-opacity=".82"/>
      </g>
      <path d="M691.2 124.80000000000001 C 783.36 100.8, 890.8799999999999 43.199999999999996, 936.96 28.799999999999997" stroke="#162033" stroke-width="19.2" stroke-linecap="round" opacity=".9"/><circle cx="936.96" cy="28.799999999999997" r="14.399999999999999" fill="#162033"/>
    </g>
</svg>
