<?xml version="1.0" encoding="UTF-8"?>
<svg id="Layer_1" xmlns="http://www.w3.org/2000/svg" xmlns:xlink="http://www.w3.org/1999/xlink" version="1.1" viewBox="0 0 1600 1200">
  <!-- Generator: Adobe Illustrator 30.2.1, SVG Export Plug-In . SVG Version: 2.1.1 Build 1)  -->
  <defs>
    <style>
      .st0 {
        fill: url(#linear-gradient2);
      }

      .st1 {
        fill: url(#linear-gradient1);
      }

      .st2 {
        fill: url(#linear-gradient3);
      }

      .st3, .st4 {
        fill: #facc15;
      }

      .st5 {
        fill-opacity: .3;
      }

      .st5, .st6 {
        fill: #f8fafc;
      }

      .st6 {
        fill-opacity: .2;
      }

      .st7 {
        fill: url(#radial-gradient);
      }

      .st8 {
        fill: url(#linear-gradient);
      }

      .st4 {
        fill-opacity: .8;
      }

      .st9 {
        fill: none;
        stroke: url(#linear-gradient4);
        stroke-linecap: round;
        stroke-width: 12px;
      }

      .st10 {
        fill: #111a2a;
        fill-opacity: .4;
      }
    </style>
    <linearGradient id="linear-gradient" x1="0" y1="600" x2="1600" y2="600" gradientUnits="userSpaceOnUse">
      <stop offset="0" stop-color="#111827"/>
      <stop offset=".4" stop-color="#364152"/>
      <stop offset="1" stop-color="#969eaa"/>
    </linearGradient>
    <radialGradient id="radial-gradient" cx="492.3" cy="941" fx="492.3" fy="941" r="1" gradientTransform="translate(-456218 -75852) rotate(90) scale(156 -486)" gradientUnits="userSpaceOnUse">
      <stop offset="0" stop-color="#facc15" stop-opacity=".2"/>
      <stop offset="1" stop-color="#facc15" stop-opacity="0"/>
    </radialGradient>
    <linearGradient id="linear-gradient1" x1="777.3" y1="681.2" x2="1215.3" y2="407.2" gradientTransform="translate(0 1200) scale(1 -1)" gradientUnits="userSpaceOnUse">
      <stop offset="0" stop-color="#d4dce7"/>
      <stop offset=".5" stop-color="#8894a7"/>
      <stop offset="1" stop-color="#4a5669"/>
    </linearGradient>
    <linearGradient id="linear-gradient2" x1="804" y1="640" x2="1186" y2="450" gradientTransform="translate(0 1200) scale(1 -1)" gradientUnits="userSpaceOnUse">
      <stop offset="0" stop-color="#fff"/>
      <stop offset=".5" stop-color="#d6dee9"/>
      <stop offset="1" stop-color="#b8c2d1"/>
    </linearGradient>
    <linearGradient id="linear-gradient3" x1="1104.8" y1="846" x2="1322.8" y2="694" gradientTransform="translate(0 1200) scale(1 -1)" gradientUnits="userSpaceOnUse">
      <stop offset="0" stop-color="#cad4e3"/>
      <stop offset="1" stop-color="#a9b6c8"/>
    </linearGradient>
    <linearGradient id="linear-gradient4" x1="1166" y1="397.4" x2="1388" y2="397.4" gradientTransform="translate(0 1200) scale(1 -1)" gradientUnits="userSpaceOnUse">
      <stop offset="0" stop-color="#facc15" stop-opacity=".7"/>
      <stop offset="1" stop-color="#94a3b8" stop-opacity=".2"/>
    </linearGradient>
  </defs>
  <rect class="st8" width="1600" height="1200"/>
  <ellipse class="st7" cx="1100" cy="954" rx="486" ry="156"/>
  <g>
    <rect class="st1" x="760" y="516" width="470" height="278" rx="66" ry="66"/>
    <rect class="st0" x="804" y="560" width="382" height="190" rx="44" ry="44"/>
    <path class="st5" d="M863,618h210c3.9,0,7,3.1,7,7h0c0,3.9-3.1,7-7,7h-210c-3.9,0-7-3.1-7-7h0c0-3.9,3.1-7,7-7Z"/>
    <path class="st10" d="M866,668h106c5.5,0,10,4.5,10,10h0c0,5.5-4.5,10-10,10h-106c-5.5,0-10-4.5-10-10h0c0-5.5,4.5-10,10-10Z"/>
    <path class="st10" d="M1008,668h70c5.5,0,10,4.5,10,10h0c0,5.5-4.5,10-10,10h-70c-5.5,0-10-4.5-10-10h0c0-5.5,4.5-10,10-10Z"/>
    <path class="st10" d="M1114,668h18c5.5,0,10,4.5,10,10h0c0,5.5-4.5,10-10,10h-18c-5.5,0-10-4.5-10-10h0c0-5.5,4.5-10,10-10Z"/>
  </g>
  <g>
    <rect class="st2" x="1088" y="346" width="246" height="164" rx="26" ry="26"/>
    <path class="st4" d="M1141,390h140c2.8,0,5,2.2,5,5h0c0,2.8-2.2,5-5,5h-140c-2.8,0-5-2.2-5-5h0c0-2.8,2.2-5,5-5Z"/>
    <path class="st6" d="M1141,422h100c2.8,0,5,2.2,5,5h0c0,2.8-2.2,5-5,5h-100c-2.8,0-5-2.2-5-5h0c0-2.8,2.2-5,5-5Z"/>
  </g>
  <path class="st9" d="M1166,794c70,26,150,26,222-2"/>
  <circle class="st3" cx="792" cy="540" r="9"/>
</svg>