<?xml version="1.0" encoding="UTF-8"?>
<svg id="Layer_1" xmlns="http://www.w3.org/2000/svg" xmlns:xlink="http://www.w3.org/1999/xlink" version="1.1" viewBox="0 0 1600 1200">
  <!-- Generator: Adobe Illustrator 30.2.1, SVG Export Plug-In . SVG Version: 2.1.1 Build 1)  -->
  <defs>
    <style>
      .st0 {
        fill: url(#linear-gradient2);
      }

      .st1 {
        fill: url(#linear-gradient1);
      }

      .st2, .st3 {
        fill: #facc15;
      }

      .st4 {
        fill: #f8fafc;
        fill-opacity: .1;
      }

      .st5 {
        fill: url(#linear-gradient);
      }

      .st3 {
        fill-opacity: .2;
      }

      .st6 {
        fill: #0f172a;
      }
    </style>
    <linearGradient id="linear-gradient" x1=".5" y1="600.5" x2="1600.5" y2="600.5" gradientUnits="userSpaceOnUse">
      <stop offset="0" stop-color="#111827"/>
      <stop offset=".4" stop-color="#364152"/>
      <stop offset="1" stop-color="#969eaa"/>
    </linearGradient>
    <linearGradient id="linear-gradient1" x1="144" y1="416" x2="612" y2="416" gradientUnits="userSpaceOnUse">
      <stop offset="0" stop-color="#c6d0dd"/>
      <stop offset=".6" stop-color="#8995a8"/>
      <stop offset="1" stop-color="#596577"/>
    </linearGradient>
    <linearGradient id="linear-gradient2" x1="864" y1="556" x2="1384" y2="556" gradientUnits="userSpaceOnUse">
      <stop offset="0" stop-color="#aeb9cb"/>
      <stop offset=".5" stop-color="#647083"/>
      <stop offset="1" stop-color="#253142"/>
    </linearGradient>
  </defs>
  <rect class="st5" x=".5" y=".5" width="1600" height="1200"/>
  <circle class="st3" cx="312" cy="904" r="240"/>
  <path class="st2" d="M152,176h224c4.4,0,8,3.6,8,8h0c0,4.4-3.6,8-8,8h-224c-4.4,0-8-3.6-8-8h0c0-4.4,3.6-8,8-8Z"/>
  <rect class="st4" x="144" y="248" width="592" height="112" rx="24" ry="24"/>
  <path class="st1" d="M168,392h420c13.3,0,24,10.7,24,24h0c0,13.3-10.7,24-24,24H168c-13.3,0-24-10.7-24-24h0c0-13.3,10.7-24,24-24Z"/>
  <path class="st6" d="M172,484h154c15.5,0,28,12.5,28,28h0c0,15.5-12.5,28-28,28h-154c-15.5,0-28-12.5-28-28h0c0-15.5,12.5-28,28-28Z"/>
  <rect class="st0" x="864" y="264" width="520" height="584" rx="40" ry="40"/>
  <rect class="st4" x="944" y="328" width="360" height="456" rx="32" ry="32"/>
</svg>