<?xml version="1.0" encoding="UTF-8"?>
<svg id="Layer_1" xmlns="http://www.w3.org/2000/svg" xmlns:xlink="http://www.w3.org/1999/xlink" version="1.1" viewBox="0 0 1600 1200">
  <!-- Generator: Adobe Illustrator 30.2.1, SVG Export Plug-In . SVG Version: 2.1.1 Build 1)  -->
  <defs>
    <style>
      .st0 {
        fill: #0f172a;
        fill-opacity: .8;
      }

      .st1 {
        fill: #334155;
        fill-opacity: .2;
      }

      .st2 {
        fill: url(#linear-gradient1);
      }

      .st3 {
        fill: #facc15;
      }

      .st4 {
        fill-opacity: .1;
      }

      .st4, .st5 {
        fill: #f8fafc;
      }

      .st5 {
        fill-opacity: .3;
      }

      .st6 {
        fill: url(#linear-gradient);
      }
    </style>
    <linearGradient id="linear-gradient" x1="-.5" y1="599.5" x2="1599.5" y2="599.5" gradientUnits="userSpaceOnUse">
      <stop offset="0" stop-color="#111827"/>
      <stop offset=".4" stop-color="#364152"/>
      <stop offset="1" stop-color="#969eaa"/>
    </linearGradient>
    <linearGradient id="linear-gradient1" x1="812" y1="598" x2="1440" y2="598" xlink:href="#linear-gradient"/>
  </defs>
  <rect class="st6" x="-.5" y="-.5" width="1600" height="1200"/>
  <path class="st3" d="M168,188h252c4.4,0,8,3.6,8,8h0c0,4.4-3.6,8-8,8h-252c-4.4,0-8-3.6-8-8h0c0-4.4,3.6-8,8-8Z"/>
  <rect class="st0" x="160" y="248" width="420" height="96" rx="24" ry="24"/>
  <path class="st1" d="M182,396h432c12.2,0,22,9.8,22,22h0c0,12.2-9.8,22-22,22H182c-12.2,0-22-9.8-22-22h0c0-12.2,9.8-22,22-22Z"/>
  <rect class="st4" x="160" y="516" width="580" height="432" rx="36" ry="36"/>
  <rect class="st2" x="812" y="248" width="628" height="700" rx="36" ry="36"/>
  <rect class="st5" x="868" y="332" width="516" height="88" rx="24" ry="24"/>
  <rect class="st5" x="868" y="460" width="516" height="88" rx="24" ry="24"/>
  <rect class="st5" x="868" y="588" width="516" height="88" rx="24" ry="24"/>
</svg>