<?xml version="1.0" encoding="UTF-8"?>
<svg id="Layer_1" xmlns="http://www.w3.org/2000/svg" xmlns:xlink="http://www.w3.org/1999/xlink" version="1.1" viewBox="0 0 1600 1200">
  <!-- Generator: Adobe Illustrator 30.2.1, SVG Export Plug-In . SVG Version: 2.1.1 Build 1)  -->
  <defs>
    <style>
      .st0 {
        fill: url(#linear-gradient2);
      }

      .st1 {
        fill: url(#linear-gradient1);
      }

      .st2 {
        fill: #facc15;
      }

      .st3 {
        fill: url(#linear-gradient);
      }

      .st4 {
        fill: #fff;
        fill-opacity: .6;
      }
    </style>
    <linearGradient id="linear-gradient" x1=".5" y1="600.5" x2="1600.5" y2="600.5" gradientUnits="userSpaceOnUse">
      <stop offset="0" stop-color="#111827"/>
      <stop offset=".4" stop-color="#364152"/>
      <stop offset="1" stop-color="#969eaa"/>
    </linearGradient>
    <linearGradient id="linear-gradient1" x1="176" y1="304" x2="816" y2="304" gradientUnits="userSpaceOnUse">
      <stop offset="0" stop-color="#dce5f0" stop-opacity=".8"/>
      <stop offset="1" stop-color="#b8c4d3" stop-opacity=".4"/>
    </linearGradient>
    <linearGradient id="linear-gradient2" y1="734" x2="1424" y2="734" xlink:href="#linear-gradient1"/>
  </defs>
  <rect class="st3" x=".5" y=".5" width="1600" height="1200"/>
  <path class="st2" d="M184,184h284c4.4,0,8,3.6,8,8h0c0,4.4-3.6,8-8,8H184c-4.4,0-8-3.6-8-8h0c0-4.4,3.6-8,8-8Z"/>
  <rect class="st1" x="176" y="252" width="640" height="104" rx="24" ry="24"/>
  <path class="st4" d="M197,404h538c11.6,0,21,9.4,21,21h0c0,11.6-9.4,21-21,21H197c-11.6,0-21-9.4-21-21h0c0-11.6,9.4-21,21-21Z"/>
  <rect class="st0" x="176" y="524" width="1248" height="420" rx="36" ry="36"/>
</svg>