<?xml version="1.0" encoding="UTF-8"?>
<svg xmlns="http://www.w3.org/2000/svg" width="1600" height="1200" viewBox="0 0 1600 1200" fill="none">
  <defs>
    <linearGradient id="support-manuals-bg" x1="0" y1="0" x2="1600" y2="1200" gradientUnits="userSpaceOnUse">
      <stop offset="0" stop-color="#F7FAFD"/>
      <stop offset="1" stop-color="#EAEFF5"/>
    </linearGradient>
    <radialGradient id="support-manuals-glow" cx="0" cy="0" r="1" gradientUnits="userSpaceOnUse" gradientTransform="translate(1088 336.00000000000006) rotate(130) scale(608 408.00000000000006)">
      <stop stop-color="#FFFFFF" stop-opacity="0.95"/>
      <stop offset="1" stop-color="#FFFFFF" stop-opacity="0"/>
    </radialGradient>
    <radialGradient id="support-manuals-amber" cx="0" cy="0" r="1" gradientUnits="userSpaceOnUse" gradientTransform="translate(1312 888) rotate(130) scale(288 144)">
      <stop stop-color="#D7A24B" stop-opacity="0.26"/>
      <stop offset="1" stop-color="#D7A24B" stop-opacity="0"/>
    </radialGradient>
    <linearGradient id="support-manuals-panel" x1="0" y1="0" x2="0" y2="1">
      <stop stop-color="#FFFFFF"/>
      <stop offset="1" stop-color="#EEF3F8"/>
    </linearGradient>
    <linearGradient id="support-manuals-metal" x1="0" y1="0" x2="1" y2="1">
      <stop stop-color="#F8FBFF"/>
      <stop offset="0.45" stop-color="#C9D3DF"/>
      <stop offset="1" stop-color="#7E91AF"/>
    </linearGradient>
    <linearGradient id="support-manuals-metal-dark" x1="0" y1="0" x2="1" y2="1">
      <stop stop-color="#3B4758"/>
      <stop offset="1" stop-color="#111827"/>
    </linearGradient>
    <filter id="support-manuals-blur" x="-20%" y="-20%" width="140%" height="140%">
      <feGaussianBlur stdDeviation="28"/>
    </filter>
    <filter id="support-manuals-shadow" x="-40%" y="-40%" width="180%" height="200%">
      <feDropShadow dx="0" dy="24" stdDeviation="26" flood-color="#000814" flood-opacity="0.22"/>
    </filter>
    <pattern id="support-manuals-grid" width="84" height="84" patternUnits="userSpaceOnUse">
      <path d="M84 0H0V84" stroke="#D9E1EA" stroke-opacity=".4" stroke-width="1"/>
    </pattern>
  </defs>
  <rect width="1600" height="1200" fill="url(#support-manuals-bg)"/>
  <rect width="1600" height="1200" fill="url(#support-manuals-grid)" opacity=".55"/>
  <rect x="96" y="96" width="1408" height="960" rx="72" fill="#FBFDFF" fill-opacity=".68" stroke="#E3E8EF" stroke-opacity="1"/>
  <ellipse cx="832" cy="996" rx="480" ry="96" fill="#0B1120" fill-opacity=".08" filter="url(#support-manuals-blur)"/>
  <ellipse cx="832" cy="384" rx="544" ry="264" fill="url(#support-manuals-glow)"/>
  <ellipse cx="1312" cy="888" rx="288" ry="144" fill="url(#support-manuals-amber)"/>
    <g transform="translate(288 240)">
      <rect x="43.52" y="34.56" width="402.56" height="472.32" rx="46.08" fill="#E9EFF5" stroke="#D4DEE8"/>
      <rect x="0" y="0" width="402.56" height="472.32" rx="46.08" fill="url(#support-manuals-panel)" stroke="#D4DEE8" filter="url(#support-manuals-shadow)"/>
      <rect x="54.400000000000006" y="69.12" width="97.92" height="23.04" rx="11.52" fill="#7E91AF" opacity=".9"/>
      <rect x="54.400000000000006" y="138.24" width="261.12" height="17.28" rx="8.64" fill="#97A6B8"/>
      <rect x="54.400000000000006" y="190.08" width="228.48" height="17.28" rx="8.64" fill="#C3CEDA"/>
      <rect x="54.400000000000006" y="276.48" width="293.76" height="17.28" rx="8.64" fill="#97A6B8"/>
      <rect x="54.400000000000006" y="328.32" width="206.72" height="17.28" rx="8.64" fill="#C3CEDA"/>
    </g>    <g transform="translate(672 360)">
      <rect x="30.72" y="24.480000000000004" width="284.15999999999997" height="334.56" rx="32.64000000000001" fill="#E9EFF5" stroke="#D4DEE8"/>
      <rect x="0" y="0" width="284.15999999999997" height="334.56" rx="32.64000000000001" fill="url(#support-manuals-panel)" stroke="#D4DEE8" filter="url(#support-manuals-shadow)"/>
      <rect x="38.400000000000006" y="48.96000000000001" width="69.12" height="16.320000000000004" rx="8.160000000000002" fill="#D7A24B" opacity=".9"/>
      <rect x="38.400000000000006" y="97.92000000000002" width="184.32" height="12.240000000000002" rx="6.120000000000001" fill="#97A6B8"/>
      <rect x="38.400000000000006" y="134.64000000000001" width="161.28" height="12.240000000000002" rx="6.120000000000001" fill="#C3CEDA"/>
      <rect x="38.400000000000006" y="195.84000000000003" width="207.36" height="12.240000000000002" rx="6.120000000000001" fill="#97A6B8"/>
      <rect x="38.400000000000006" y="232.56" width="145.92000000000002" height="12.240000000000002" rx="6.120000000000001" fill="#C3CEDA"/>
    </g>
</svg>
