<?xml version="1.0" encoding="UTF-8"?>
<svg xmlns="http://www.w3.org/2000/svg" width="1600" height="1200" viewBox="0 0 1600 1200" fill="none">
  <defs>
    <linearGradient id="support-hub-bg" x1="0" y1="0" x2="1600" y2="1200" gradientUnits="userSpaceOnUse">
      <stop offset="0" stop-color="#F7FAFD"/>
      <stop offset="1" stop-color="#EAEFF5"/>
    </linearGradient>
    <radialGradient id="support-hub-glow" cx="0" cy="0" r="1" gradientUnits="userSpaceOnUse" gradientTransform="translate(1088 336.00000000000006) rotate(130) scale(608 408.00000000000006)">
      <stop stop-color="#FFFFFF" stop-opacity="0.95"/>
      <stop offset="1" stop-color="#FFFFFF" stop-opacity="0"/>
    </radialGradient>
    <radialGradient id="support-hub-amber" cx="0" cy="0" r="1" gradientUnits="userSpaceOnUse" gradientTransform="translate(1312 888) rotate(130) scale(288 144)">
      <stop stop-color="#D7A24B" stop-opacity="0.26"/>
      <stop offset="1" stop-color="#D7A24B" stop-opacity="0"/>
    </radialGradient>
    <linearGradient id="support-hub-panel" x1="0" y1="0" x2="0" y2="1">
      <stop stop-color="#FFFFFF"/>
      <stop offset="1" stop-color="#EEF3F8"/>
    </linearGradient>
    <linearGradient id="support-hub-metal" x1="0" y1="0" x2="1" y2="1">
      <stop stop-color="#F8FBFF"/>
      <stop offset="0.45" stop-color="#C9D3DF"/>
      <stop offset="1" stop-color="#7E91AF"/>
    </linearGradient>
    <linearGradient id="support-hub-metal-dark" x1="0" y1="0" x2="1" y2="1">
      <stop stop-color="#3B4758"/>
      <stop offset="1" stop-color="#111827"/>
    </linearGradient>
    <filter id="support-hub-blur" x="-20%" y="-20%" width="140%" height="140%">
      <feGaussianBlur stdDeviation="28"/>
    </filter>
    <filter id="support-hub-shadow" x="-40%" y="-40%" width="180%" height="200%">
      <feDropShadow dx="0" dy="24" stdDeviation="26" flood-color="#000814" flood-opacity="0.22"/>
    </filter>
    <pattern id="support-hub-grid" width="84" height="84" patternUnits="userSpaceOnUse">
      <path d="M84 0H0V84" stroke="#D9E1EA" stroke-opacity=".4" stroke-width="1"/>
    </pattern>
  </defs>
  <rect width="1600" height="1200" fill="url(#support-hub-bg)"/>
  <rect width="1600" height="1200" fill="url(#support-hub-grid)" opacity=".55"/>
  <rect x="96" y="96" width="1408" height="960" rx="72" fill="#FBFDFF" fill-opacity=".68" stroke="#E3E8EF" stroke-opacity="1"/>
  <ellipse cx="832" cy="996" rx="480" ry="96" fill="#0B1120" fill-opacity=".08" filter="url(#support-hub-blur)"/>
  <ellipse cx="832" cy="384" rx="544" ry="264" fill="url(#support-hub-glow)"/>
  <ellipse cx="1312" cy="888" rx="288" ry="144" fill="url(#support-hub-amber)"/>
    <g transform="translate(288 264)">
      <rect x="43.52" y="33.12" width="402.56" height="452.64" rx="44.160000000000004" fill="#E9EFF5" stroke="#D4DEE8"/>
      <rect x="0" y="0" width="402.56" height="452.64" rx="44.160000000000004" fill="url(#support-hub-panel)" stroke="#D4DEE8" filter="url(#support-hub-shadow)"/>
      <rect x="54.400000000000006" y="66.24" width="97.92" height="22.080000000000002" rx="11.040000000000001" fill="#D7A24B" opacity=".9"/>
      <rect x="54.400000000000006" y="132.48" width="261.12" height="16.56" rx="8.28" fill="#97A6B8"/>
      <rect x="54.400000000000006" y="182.16" width="228.48" height="16.56" rx="8.28" fill="#C3CEDA"/>
      <rect x="54.400000000000006" y="264.96" width="293.76" height="16.56" rx="8.28" fill="#97A6B8"/>
      <rect x="54.400000000000006" y="314.64" width="206.72" height="16.56" rx="8.28" fill="#C3CEDA"/>
    </g>
    <g transform="translate(672 168.00000000000003)">
      <rect x="35.84" y="27.36" width="331.52000000000004" height="373.91999999999996" rx="36.480000000000004" fill="#E9EFF5" stroke="#D4DEE8"/>
      <rect x="0" y="0" width="331.52000000000004" height="373.91999999999996" rx="36.480000000000004" fill="url(#support-hub-panel)" stroke="#D4DEE8" filter="url(#support-hub-shadow)"/>
      <rect x="44.80000000000001" y="54.72" width="80.64" height="18.240000000000002" rx="9.120000000000001" fill="#7E91AF" opacity=".9"/>
      <rect x="44.80000000000001" y="109.44" width="215.04000000000002" height="13.68" rx="6.84" fill="#97A6B8"/>
      <rect x="44.80000000000001" y="150.48000000000002" width="188.16000000000003" height="13.68" rx="6.84" fill="#C3CEDA"/>
      <rect x="44.80000000000001" y="218.88" width="241.92000000000004" height="13.68" rx="6.84" fill="#97A6B8"/>
      <rect x="44.80000000000001" y="259.91999999999996" width="170.24000000000004" height="13.68" rx="6.84" fill="#C3CEDA"/>
    </g>
    <g transform="translate(880.0000000000001 624) rotate(-10 144 108)">
      <ellipse cx="144" cy="198.72" rx="161.28000000000003" ry="38.879999999999995" fill="#0B1120" fill-opacity=".16" filter="url(#support-hub-blur)"/>
      <g filter="url(#support-hub-shadow)">
        <rect x="0" y="17.28" width="288" height="172.8" rx="28" fill="url(#support-hub-metal)" stroke="#D8E0E8"/>
        <rect x="17.28" y="30.240000000000002" width="253.44" height="25.919999999999998" rx="12.959999999999999" fill="rgba(255,255,255,.8)" opacity=".8"/>
        <rect x="28.8" y="25.919999999999998" width="149.76" height="17.28" rx="8.64" fill="#F4D28A" opacity=".42"/>
        <rect x="34.56" y="155.51999999999998" width="218.88" height="12.959999999999999" rx="6.4799999999999995" fill="rgba(15,23,42,.08)"/>
        <rect x="46.08" y="101.52" width="24.998400000000004" height="14" rx="7" fill="#1E293B" fill-opacity=".82"/><rect x="86.4" y="101.52" width="24.998400000000004" height="14" rx="7" fill="#1E293B" fill-opacity=".82"/><rect x="126.72000000000001" y="101.52" width="24.998400000000004" height="14" rx="7" fill="#1E293B" fill-opacity=".82"/>
      </g>
      
    </g>
</svg>
