<?xml version="1.0" encoding="UTF-8"?>
<svg xmlns="http://www.w3.org/2000/svg" width="1600" height="1200" viewBox="0 0 1600 1200" fill="none">
  <defs>
    <linearGradient id="support-downloads-bg" x1="0" y1="0" x2="1600" y2="1200" gradientUnits="userSpaceOnUse">
      <stop offset="0" stop-color="#F7FAFD"/>
      <stop offset="1" stop-color="#EAEFF5"/>
    </linearGradient>
    <radialGradient id="support-downloads-glow" cx="0" cy="0" r="1" gradientUnits="userSpaceOnUse" gradientTransform="translate(1088 336.00000000000006) rotate(130) scale(608 408.00000000000006)">
      <stop stop-color="#FFFFFF" stop-opacity="0.95"/>
      <stop offset="1" stop-color="#FFFFFF" stop-opacity="0"/>
    </radialGradient>
    <radialGradient id="support-downloads-amber" cx="0" cy="0" r="1" gradientUnits="userSpaceOnUse" gradientTransform="translate(1312 888) rotate(130) scale(288 144)">
      <stop stop-color="#D7A24B" stop-opacity="0.26"/>
      <stop offset="1" stop-color="#D7A24B" stop-opacity="0"/>
    </radialGradient>
    <linearGradient id="support-downloads-panel" x1="0" y1="0" x2="0" y2="1">
      <stop stop-color="#FFFFFF"/>
      <stop offset="1" stop-color="#EEF3F8"/>
    </linearGradient>
    <linearGradient id="support-downloads-metal" x1="0" y1="0" x2="1" y2="1">
      <stop stop-color="#F8FBFF"/>
      <stop offset="0.45" stop-color="#C9D3DF"/>
      <stop offset="1" stop-color="#7E91AF"/>
    </linearGradient>
    <linearGradient id="support-downloads-metal-dark" x1="0" y1="0" x2="1" y2="1">
      <stop stop-color="#3B4758"/>
      <stop offset="1" stop-color="#111827"/>
    </linearGradient>
    <filter id="support-downloads-blur" x="-20%" y="-20%" width="140%" height="140%">
      <feGaussianBlur stdDeviation="28"/>
    </filter>
    <filter id="support-downloads-shadow" x="-40%" y="-40%" width="180%" height="200%">
      <feDropShadow dx="0" dy="24" stdDeviation="26" flood-color="#000814" flood-opacity="0.22"/>
    </filter>
    <pattern id="support-downloads-grid" width="84" height="84" patternUnits="userSpaceOnUse">
      <path d="M84 0H0V84" stroke="#D9E1EA" stroke-opacity=".4" stroke-width="1"/>
    </pattern>
  </defs>
  <rect width="1600" height="1200" fill="url(#support-downloads-bg)"/>
  <rect width="1600" height="1200" fill="url(#support-downloads-grid)" opacity=".55"/>
  <rect x="96" y="96" width="1408" height="960" rx="72" fill="#FBFDFF" fill-opacity=".68" stroke="#E3E8EF" stroke-opacity="1"/>
  <ellipse cx="832" cy="996" rx="480" ry="96" fill="#0B1120" fill-opacity=".08" filter="url(#support-downloads-blur)"/>
  <ellipse cx="832" cy="384" rx="544" ry="264" fill="url(#support-downloads-glow)"/>
  <ellipse cx="1312" cy="888" rx="288" ry="144" fill="url(#support-downloads-amber)"/>
    <g transform="translate(864 576) rotate(-6 176 84.00000000000001)">
      <ellipse cx="176" cy="154.56000000000003" rx="197.12" ry="30.240000000000006" fill="#0B1120" fill-opacity=".16" filter="url(#support-downloads-blur)"/>
      <g filter="url(#support-downloads-shadow)">
        <rect x="0" y="13.440000000000003" width="352" height="134.40000000000003" rx="28" fill="url(#support-downloads-metal-dark)" stroke="#465267"/>
        <rect x="21.119999999999997" y="23.520000000000007" width="309.76" height="20.160000000000004" rx="10.080000000000002" fill="rgba(255,255,255,.12)" opacity=".8"/>
        <rect x="35.2" y="20.160000000000004" width="183.04000000000002" height="13.440000000000003" rx="6.7200000000000015" fill="#F4D28A" opacity=".42"/>
        <rect x="42.239999999999995" y="120.96000000000002" width="267.52" height="10.080000000000002" rx="5.040000000000001" fill="rgba(15,23,42,.08)"/>
        <rect x="56.32" y="78.96000000000001" width="30.5536" height="14" rx="7" fill="#0A1020" fill-opacity=".82"/><rect x="105.6" y="78.96000000000001" width="30.5536" height="14" rx="7" fill="#0A1020" fill-opacity=".82"/><rect x="154.88" y="78.96000000000001" width="30.5536" height="14" rx="7" fill="#0A1020" fill-opacity=".82"/>
      </g>
      
    </g>    <g transform="translate(320 240)">
      <rect x="35.84" y="30.24" width="331.52000000000004" height="413.28" rx="40.32" fill="#E9EFF5" stroke="#D4DEE8"/>
      <rect x="0" y="0" width="331.52000000000004" height="413.28" rx="40.32" fill="url(#support-downloads-panel)" stroke="#D4DEE8" filter="url(#support-downloads-shadow)"/>
      <rect x="44.80000000000001" y="60.48" width="80.64" height="20.16" rx="10.08" fill="#D7A24B" opacity=".9"/>
      <rect x="44.80000000000001" y="120.96" width="215.04000000000002" height="15.12" rx="7.56" fill="#97A6B8"/>
      <rect x="44.80000000000001" y="166.32000000000002" width="188.16000000000003" height="15.12" rx="7.56" fill="#C3CEDA"/>
      <rect x="44.80000000000001" y="241.92" width="241.92000000000004" height="15.12" rx="7.56" fill="#97A6B8"/>
      <rect x="44.80000000000001" y="287.28" width="170.24000000000004" height="15.12" rx="7.56" fill="#C3CEDA"/>
    </g><path d="M704 528 v120" stroke="#7D8AA0" stroke-width="14" stroke-linecap="round"/>
      <path d="M648 594 L704 648 L760 594" stroke="#7D8AA0" stroke-width="14" stroke-linecap="round" stroke-linejoin="round"/>
</svg>
