<?xml version="1.0" encoding="UTF-8"?>
<svg xmlns="http://www.w3.org/2000/svg" width="1600" height="1200" viewBox="0 0 1600 1200" fill="none">
  <defs>
    <linearGradient id="support-compatibility-bg" x1="0" y1="0" x2="1600" y2="1200" gradientUnits="userSpaceOnUse">
      <stop offset="0" stop-color="#F7FAFD"/>
      <stop offset="1" stop-color="#EAEFF5"/>
    </linearGradient>
    <radialGradient id="support-compatibility-glow" cx="0" cy="0" r="1" gradientUnits="userSpaceOnUse" gradientTransform="translate(1088 336.00000000000006) rotate(130) scale(608 408.00000000000006)">
      <stop stop-color="#FFFFFF" stop-opacity="0.95"/>
      <stop offset="1" stop-color="#FFFFFF" stop-opacity="0"/>
    </radialGradient>
    <radialGradient id="support-compatibility-amber" cx="0" cy="0" r="1" gradientUnits="userSpaceOnUse" gradientTransform="translate(1312 888) rotate(130) scale(288 144)">
      <stop stop-color="#D7A24B" stop-opacity="0.26"/>
      <stop offset="1" stop-color="#D7A24B" stop-opacity="0"/>
    </radialGradient>
    <linearGradient id="support-compatibility-panel" x1="0" y1="0" x2="0" y2="1">
      <stop stop-color="#FFFFFF"/>
      <stop offset="1" stop-color="#EEF3F8"/>
    </linearGradient>
    <linearGradient id="support-compatibility-metal" x1="0" y1="0" x2="1" y2="1">
      <stop stop-color="#F8FBFF"/>
      <stop offset="0.45" stop-color="#C9D3DF"/>
      <stop offset="1" stop-color="#7E91AF"/>
    </linearGradient>
    <linearGradient id="support-compatibility-metal-dark" x1="0" y1="0" x2="1" y2="1">
      <stop stop-color="#3B4758"/>
      <stop offset="1" stop-color="#111827"/>
    </linearGradient>
    <filter id="support-compatibility-blur" x="-20%" y="-20%" width="140%" height="140%">
      <feGaussianBlur stdDeviation="28"/>
    </filter>
    <filter id="support-compatibility-shadow" x="-40%" y="-40%" width="180%" height="200%">
      <feDropShadow dx="0" dy="24" stdDeviation="26" flood-color="#000814" flood-opacity="0.22"/>
    </filter>
    <pattern id="support-compatibility-grid" width="84" height="84" patternUnits="userSpaceOnUse">
      <path d="M84 0H0V84" stroke="#D9E1EA" stroke-opacity=".4" stroke-width="1"/>
    </pattern>
  </defs>
  <rect width="1600" height="1200" fill="url(#support-compatibility-bg)"/>
  <rect width="1600" height="1200" fill="url(#support-compatibility-grid)" opacity=".55"/>
  <rect x="96" y="96" width="1408" height="960" rx="72" fill="#FBFDFF" fill-opacity=".68" stroke="#E3E8EF" stroke-opacity="1"/>
  <ellipse cx="832" cy="996" rx="480" ry="96" fill="#0B1120" fill-opacity=".08" filter="url(#support-compatibility-blur)"/>
  <ellipse cx="832" cy="384" rx="544" ry="264" fill="url(#support-compatibility-glow)"/>
  <ellipse cx="1312" cy="888" rx="288" ry="144" fill="url(#support-compatibility-amber)"/>
    <g transform="translate(224.00000000000003 336.00000000000006)">
      <rect x="43.52" y="0" width="391.68" height="181.44000000000005" rx="13.440000000000003" fill="url(#support-compatibility-panel)" stroke="#D6DEE8"/>
      <rect x="70.72" y="16.800000000000004" width="337.28" height="141.12" rx="10.080000000000002" fill="#F3F7FB"/>
      <rect x="0" y="181.44000000000005" width="544" height="33.60000000000001" rx="13.440000000000003" fill="url(#support-compatibility-metal)"/>
      <rect x="206.72" y="191.52" width="87.04" height="5.040000000000001" rx="2.3520000000000003" fill="#90A0B5"/>
    </g><rect x="864" y="336.00000000000006" width="256" height="360" rx="24" fill="url(#support-compatibility-panel)" stroke="#D6DEE8"/>
      <circle cx="992" cy="768" r="24" fill="#B6C2D1"/><circle cx="800" cy="576" r="96" fill="#F4D28A" opacity=".35"/>
      <path d="M752 588 L784 612 L848 540" stroke="#162033" stroke-width="12" stroke-linecap="round" stroke-linejoin="round"/>
</svg>
