<svg width="1440" height="1080" viewBox="0 0 1440 1080" fill="none" xmlns="http://www.w3.org/2000/svg">
  <rect width="1440" height="1080" rx="56" fill="#F5F8FC"/>
  <rect width="1440" height="1080" rx="56" fill="url(#bg)"/>
  <ellipse cx="1166" cy="166" rx="330" ry="194" fill="url(#glow)"/>
  <ellipse cx="280" cy="920" rx="290" ry="168" fill="url(#amber)"/>
  <path d="M154 822C378 748 736 742 1096 790C1196 804 1268 822 1310 838V1000H154V822Z" fill="url(#desk)"/>
  <g filter="url(#bubbleShadow)">
    <path d="M224 338C224 302.654 252.654 274 288 274H706C741.346 274 770 302.654 770 338V608C770 643.346 741.346 672 706 672H462L352 772V672H288C252.654 672 224 643.346 224 608V338Z" fill="url(#bubble)"/>
    <rect x="308" y="358" width="144" height="18" rx="9" fill="#CBD5E1"/>
    <rect x="308" y="418" width="300" height="16" rx="8" fill="#CBD5E1" fill-opacity="0.76"/>
    <rect x="308" y="470" width="228" height="14" rx="7" fill="#CBD5E1" fill-opacity="0.5"/>
    <circle cx="332" cy="562" r="22" fill="#FACC15" fill-opacity="0.22"/>
    <path d="M332 548C351.882 548 368 564.118 368 584C368 603.882 351.882 620 332 620C312.118 620 296 603.882 296 584" stroke="#334155" stroke-width="14" stroke-linecap="round"/>
    <path d="M332 544C332 516 354 500 382 500C404 500 420 516 420 536C420 550 410 560 398 570C388 578 382 588 382 602" stroke="#334155" stroke-width="14" stroke-linecap="round"/>
  </g>
  <g filter="url(#cardShadow)">
    <rect x="860" y="362" width="344" height="266" rx="34" fill="url(#sideCard)"/>
    <rect x="910" y="414" width="118" height="16" rx="8" fill="#F8FAFC" fill-opacity="0.48"/>
    <rect x="910" y="464" width="218" height="14" rx="7" fill="#F8FAFC" fill-opacity="0.28"/>
    <rect x="910" y="520" width="180" height="14" rx="7" fill="#F8FAFC" fill-opacity="0.24"/>
    <path d="M1040 608C1092 572 1144 540 1200 516" stroke="url(#guide)" stroke-width="12" stroke-linecap="round"/>
  </g>
  <circle cx="1210" cy="230" r="12" fill="#FACC15"/>
  <circle cx="814" cy="310" r="8" fill="#FFF5CA"/>
  <defs>
    <linearGradient id="bg" x1="162" y1="120" x2="1276" y2="998" gradientUnits="userSpaceOnUse">
      <stop stop-color="#FFFFFF"/>
      <stop offset="0.58" stop-color="#EEF2F8"/>
      <stop offset="1" stop-color="#E2E8F0"/>
    </linearGradient>
    <radialGradient id="glow" cx="0" cy="0" r="1" gradientUnits="userSpaceOnUse" gradientTransform="translate(1166 166) rotate(136.345) scale(395.062 260.923)">
      <stop stop-color="#FFFFFF"/>
      <stop offset="1" stop-color="#FFFFFF" stop-opacity="0"/>
    </radialGradient>
    <radialGradient id="amber" cx="0" cy="0" r="1" gradientUnits="userSpaceOnUse" gradientTransform="translate(280 920) rotate(90) scale(168 290)">
      <stop stop-color="#FACC15" stop-opacity="0.16"/>
      <stop offset="1" stop-color="#FACC15" stop-opacity="0"/>
    </radialGradient>
    <linearGradient id="desk" x1="154" y1="822" x2="1310" y2="990" gradientUnits="userSpaceOnUse">
      <stop stop-color="#DBE4EF" stop-opacity="0.14"/>
      <stop offset="1" stop-color="#94A3B8" stop-opacity="0.18"/>
    </linearGradient>
    <linearGradient id="bubble" x1="246" y1="296" x2="752" y2="696" gradientUnits="userSpaceOnUse">
      <stop stop-color="#FFFFFF"/>
      <stop offset="1" stop-color="#EEF2F8"/>
    </linearGradient>
    <linearGradient id="sideCard" x1="878" y1="378" x2="1188" y2="626" gradientUnits="userSpaceOnUse">
      <stop stop-color="#D6DEE8"/>
      <stop offset="0.52" stop-color="#7A8698"/>
      <stop offset="1" stop-color="#334155"/>
    </linearGradient>
    <linearGradient id="guide" x1="1040" y1="608" x2="1200" y2="516" gradientUnits="userSpaceOnUse">
      <stop stop-color="#CBD5E1" stop-opacity="0.42"/>
      <stop offset="0.5" stop-color="#FACC15" stop-opacity="0.84"/>
      <stop offset="1" stop-color="#CBD5E1" stop-opacity="0.42"/>
    </linearGradient>
    <filter id="bubbleShadow" x="188" y="244" width="622" height="580" filterUnits="userSpaceOnUse" color-interpolation-filters="sRGB">
      <feFlood flood-opacity="0" result="BackgroundImageFix"/>
      <feColorMatrix in="SourceAlpha" type="matrix" values="0 0 0 0 0 0 0 0 0 0 0 0 0 0 0 0 0 0 127 0" result="hardAlpha"/>
      <feOffset dy="20"/>
      <feGaussianBlur stdDeviation="18"/>
      <feColorMatrix type="matrix" values="0 0 0 0 0.0588235 0 0 0 0 0.0980392 0 0 0 0 0.188235 0 0 0 0.12 0"/>
      <feBlend mode="normal" in2="BackgroundImageFix" result="effect1_dropShadow_0_1"/>
      <feBlend mode="normal" in="SourceGraphic" in2="effect1_dropShadow_0_1" result="shape"/>
    </filter>
    <filter id="cardShadow" x="824" y="332" width="424" height="356" filterUnits="userSpaceOnUse" color-interpolation-filters="sRGB">
      <feFlood flood-opacity="0" result="BackgroundImageFix"/>
      <feColorMatrix in="SourceAlpha" type="matrix" values="0 0 0 0 0 0 0 0 0 0 0 0 0 0 0 0 0 0 127 0" result="hardAlpha"/>
      <feOffset dx="-8" dy="18"/>
      <feGaussianBlur stdDeviation="14"/>
      <feColorMatrix type="matrix" values="0 0 0 0 0.0588235 0 0 0 0 0.0980392 0 0 0 0 0.188235 0 0 0 0.12 0"/>
      <feBlend mode="normal" in2="BackgroundImageFix" result="effect1_dropShadow_0_1"/>
      <feBlend mode="normal" in="SourceGraphic" in2="effect1_dropShadow_0_1" result="shape"/>
    </filter>
  </defs>
</svg>
