<?xml version="1.0" encoding="UTF-8"?>
<svg xmlns="http://www.w3.org/2000/svg" width="1600" height="1200" viewBox="0 0 1600 1200" fill="none">
  <defs>
    <linearGradient id="support-faq-bg" x1="0" y1="0" x2="1600" y2="1200" gradientUnits="userSpaceOnUse">
      <stop offset="0" stop-color="#F7FAFD"/>
      <stop offset="1" stop-color="#EAEFF5"/>
    </linearGradient>
    <radialGradient id="support-faq-glow" cx="0" cy="0" r="1" gradientUnits="userSpaceOnUse" gradientTransform="translate(1088 336.00000000000006) rotate(130) scale(608 408.00000000000006)">
      <stop stop-color="#FFFFFF" stop-opacity="0.95"/>
      <stop offset="1" stop-color="#FFFFFF" stop-opacity="0"/>
    </radialGradient>
    <radialGradient id="support-faq-amber" cx="0" cy="0" r="1" gradientUnits="userSpaceOnUse" gradientTransform="translate(1312 888) rotate(130) scale(288 144)">
      <stop stop-color="#D7A24B" stop-opacity="0.26"/>
      <stop offset="1" stop-color="#D7A24B" stop-opacity="0"/>
    </radialGradient>
    <linearGradient id="support-faq-panel" x1="0" y1="0" x2="0" y2="1">
      <stop stop-color="#FFFFFF"/>
      <stop offset="1" stop-color="#EEF3F8"/>
    </linearGradient>
    <linearGradient id="support-faq-metal" x1="0" y1="0" x2="1" y2="1">
      <stop stop-color="#F8FBFF"/>
      <stop offset="0.45" stop-color="#C9D3DF"/>
      <stop offset="1" stop-color="#7E91AF"/>
    </linearGradient>
    <linearGradient id="support-faq-metal-dark" x1="0" y1="0" x2="1" y2="1">
      <stop stop-color="#3B4758"/>
      <stop offset="1" stop-color="#111827"/>
    </linearGradient>
    <filter id="support-faq-blur" x="-20%" y="-20%" width="140%" height="140%">
      <feGaussianBlur stdDeviation="28"/>
    </filter>
    <filter id="support-faq-shadow" x="-40%" y="-40%" width="180%" height="200%">
      <feDropShadow dx="0" dy="24" stdDeviation="26" flood-color="#000814" flood-opacity="0.22"/>
    </filter>
    <pattern id="support-faq-grid" width="84" height="84" patternUnits="userSpaceOnUse">
      <path d="M84 0H0V84" stroke="#D9E1EA" stroke-opacity=".4" stroke-width="1"/>
    </pattern>
  </defs>
  <rect width="1600" height="1200" fill="url(#support-faq-bg)"/>
  <rect width="1600" height="1200" fill="url(#support-faq-grid)" opacity=".55"/>
  <rect x="96" y="96" width="1408" height="960" rx="72" fill="#FBFDFF" fill-opacity=".68" stroke="#E3E8EF" stroke-opacity="1"/>
  <ellipse cx="832" cy="996" rx="480" ry="96" fill="#0B1120" fill-opacity=".08" filter="url(#support-faq-blur)"/>
  <ellipse cx="832" cy="384" rx="544" ry="264" fill="url(#support-faq-glow)"/>
  <ellipse cx="1312" cy="888" rx="288" ry="144" fill="url(#support-faq-amber)"/>
    <g transform="translate(320 264)">
      <rect x="35.84" y="27.36" width="331.52000000000004" height="373.91999999999996" rx="36.480000000000004" fill="#E9EFF5" stroke="#D4DEE8"/>
      <rect x="0" y="0" width="331.52000000000004" height="373.91999999999996" rx="36.480000000000004" fill="url(#support-faq-panel)" stroke="#D4DEE8" filter="url(#support-faq-shadow)"/>
      <rect x="44.80000000000001" y="54.72" width="80.64" height="18.240000000000002" rx="9.120000000000001" fill="#D7A24B" opacity=".9"/>
      <rect x="44.80000000000001" y="109.44" width="215.04000000000002" height="13.68" rx="6.84" fill="#97A6B8"/>
      <rect x="44.80000000000001" y="150.48000000000002" width="188.16000000000003" height="13.68" rx="6.84" fill="#C3CEDA"/>
      <rect x="44.80000000000001" y="218.88" width="241.92000000000004" height="13.68" rx="6.84" fill="#97A6B8"/>
      <rect x="44.80000000000001" y="259.91999999999996" width="170.24000000000004" height="13.68" rx="6.84" fill="#C3CEDA"/>
    </g><g transform="translate(832 384)">
      <rect width="288" height="168.00000000000003" rx="26" fill="url(#support-faq-panel)" stroke="#D6DEE8" filter="url(#support-faq-shadow)"/>
      <circle cx="80" cy="84.00000000000001" r="21.599999999999998" fill="#99A8BB"/>
      <circle cx="144" cy="84.00000000000001" r="21.599999999999998" fill="#99A8BB"/>
      <circle cx="208" cy="84.00000000000001" r="21.599999999999998" fill="#99A8BB"/>
    </g>
</svg>
