<svg width="1440" height="1080" viewBox="0 0 1440 1080" fill="none" xmlns="http://www.w3.org/2000/svg">
  <rect width="1440" height="1080" rx="56" fill="#F5F8FC"/>
  <rect width="1440" height="1080" rx="56" fill="url(#bg)"/>
  <ellipse cx="1168" cy="176" rx="318" ry="200" fill="url(#glow)"/>
  <ellipse cx="262" cy="924" rx="286" ry="164" fill="url(#amber)"/>
  <path d="M150 820C376 746 712 736 1094 786C1200 800 1270 820 1310 836V1000H150V820Z" fill="url(#desk)"/>
  <g filter="url(#cardShadow)">
    <rect x="208" y="294" width="402" height="486" rx="38" fill="url(#card)"/>
    <rect x="260" y="356" width="288" height="18" rx="9" fill="#CBD5E1"/>
    <rect x="260" y="410" width="214" height="14" rx="7" fill="#CBD5E1" fill-opacity="0.72"/>
    <rect x="260" y="496" width="114" height="114" rx="28" fill="#FFFFFF"/>
    <path d="M316 534L344 562L394 512" stroke="#334155" stroke-width="18" stroke-linecap="round" stroke-linejoin="round"/>
    <rect x="260" y="650" width="242" height="14" rx="7" fill="#CBD5E1" fill-opacity="0.66"/>
    <rect x="260" y="692" width="174" height="14" rx="7" fill="#CBD5E1" fill-opacity="0.44"/>
  </g>
  <g filter="url(#deviceShadow)">
    <rect x="826" y="356" width="398" height="302" rx="42" fill="url(#device)"/>
    <rect x="872" y="400" width="286" height="18" rx="9" fill="#F8FAFC" fill-opacity="0.48"/>
    <rect x="872" y="452" width="204" height="14" rx="7" fill="#F8FAFC" fill-opacity="0.26"/>
    <g opacity="0.88">
      <rect x="884" y="556" width="66" height="22" rx="11" fill="#0F172A" fill-opacity="0.36"/>
      <rect x="966" y="556" width="92" height="22" rx="11" fill="#0F172A" fill-opacity="0.36"/>
      <rect x="1074" y="556" width="50" height="22" rx="11" fill="#0F172A" fill-opacity="0.36"/>
      <rect x="1140" y="556" width="50" height="22" rx="11" fill="#0F172A" fill-opacity="0.36"/>
    </g>
  </g>
  <g filter="url(#flowShadow)">
    <path d="M606 542H820" stroke="url(#flow)" stroke-width="16" stroke-linecap="round"/>
    <path d="M782 504L824 542L782 580" stroke="#FACC15" stroke-width="16" stroke-linecap="round" stroke-linejoin="round"/>
  </g>
  <circle cx="1208" cy="240" r="12" fill="#FACC15"/>
  <circle cx="758" cy="690" r="8" fill="#FFF1B8"/>
  <defs>
    <linearGradient id="bg" x1="162" y1="122" x2="1272" y2="998" gradientUnits="userSpaceOnUse">
      <stop stop-color="#FFFFFF"/>
      <stop offset="0.58" stop-color="#EEF2F8"/>
      <stop offset="1" stop-color="#E2E8F0"/>
    </linearGradient>
    <radialGradient id="glow" cx="0" cy="0" r="1" gradientUnits="userSpaceOnUse" gradientTransform="translate(1168 176) rotate(137.222) scale(386.827 257.73)">
      <stop stop-color="#FFFFFF"/>
      <stop offset="1" stop-color="#FFFFFF" stop-opacity="0"/>
    </radialGradient>
    <radialGradient id="amber" cx="0" cy="0" r="1" gradientUnits="userSpaceOnUse" gradientTransform="translate(262 924) rotate(90) scale(164 286)">
      <stop stop-color="#FACC15" stop-opacity="0.16"/>
      <stop offset="1" stop-color="#FACC15" stop-opacity="0"/>
    </radialGradient>
    <linearGradient id="desk" x1="150" y1="820" x2="1310" y2="990" gradientUnits="userSpaceOnUse">
      <stop stop-color="#DBE4EF" stop-opacity="0.14"/>
      <stop offset="1" stop-color="#94A3B8" stop-opacity="0.18"/>
    </linearGradient>
    <linearGradient id="card" x1="226" y1="314" x2="592" y2="764" gradientUnits="userSpaceOnUse">
      <stop stop-color="#FFFFFF"/>
      <stop offset="1" stop-color="#EEF2F8"/>
    </linearGradient>
    <linearGradient id="device" x1="846" y1="376" x2="1198" y2="650" gradientUnits="userSpaceOnUse">
      <stop stop-color="#D6DEE8"/>
      <stop offset="0.52" stop-color="#7A8698"/>
      <stop offset="1" stop-color="#334155"/>
    </linearGradient>
    <linearGradient id="flow" x1="606" y1="542" x2="820" y2="542" gradientUnits="userSpaceOnUse">
      <stop stop-color="#CBD5E1" stop-opacity="0.42"/>
      <stop offset="0.52" stop-color="#FACC15" stop-opacity="0.84"/>
      <stop offset="1" stop-color="#CBD5E1" stop-opacity="0.42"/>
    </linearGradient>
    <filter id="cardShadow" x="172" y="264" width="474" height="568" filterUnits="userSpaceOnUse" color-interpolation-filters="sRGB">
      <feFlood flood-opacity="0" result="BackgroundImageFix"/>
      <feColorMatrix in="SourceAlpha" type="matrix" values="0 0 0 0 0 0 0 0 0 0 0 0 0 0 0 0 0 0 127 0" result="hardAlpha"/>
      <feOffset dy="18"/>
      <feGaussianBlur stdDeviation="18"/>
      <feColorMatrix type="matrix" values="0 0 0 0 0.0588235 0 0 0 0 0.0980392 0 0 0 0 0.188235 0 0 0 0.12 0"/>
      <feBlend mode="normal" in2="BackgroundImageFix" result="effect1_dropShadow_0_1"/>
      <feBlend mode="normal" in="SourceGraphic" in2="effect1_dropShadow_0_1" result="shape"/>
    </filter>
    <filter id="deviceShadow" x="786" y="326" width="490" height="392" filterUnits="userSpaceOnUse" color-interpolation-filters="sRGB">
      <feFlood flood-opacity="0" result="BackgroundImageFix"/>
      <feColorMatrix in="SourceAlpha" type="matrix" values="0 0 0 0 0 0 0 0 0 0 0 0 0 0 0 0 0 0 127 0" result="hardAlpha"/>
      <feOffset dx="-8" dy="20"/>
      <feGaussianBlur stdDeviation="16"/>
      <feColorMatrix type="matrix" values="0 0 0 0 0.0588235 0 0 0 0 0.0980392 0 0 0 0 0.188235 0 0 0 0.14 0"/>
      <feBlend mode="normal" in2="BackgroundImageFix" result="effect1_dropShadow_0_1"/>
      <feBlend mode="normal" in="SourceGraphic" in2="effect1_dropShadow_0_1" result="shape"/>
    </filter>
    <filter id="flowShadow" x="582" y="480" width="266" height="124" filterUnits="userSpaceOnUse" color-interpolation-filters="sRGB">
      <feFlood flood-opacity="0" result="BackgroundImageFix"/>
      <feColorMatrix in="SourceAlpha" type="matrix" values="0 0 0 0 0 0 0 0 0 0 0 0 0 0 0 0 0 0 127 0" result="hardAlpha"/>
      <feOffset dy="10"/>
      <feGaussianBlur stdDeviation="12"/>
      <feColorMatrix type="matrix" values="0 0 0 0 0.0588235 0 0 0 0 0.0980392 0 0 0 0 0.188235 0 0 0 0.12 0"/>
      <feBlend mode="normal" in2="BackgroundImageFix" result="effect1_dropShadow_0_1"/>
      <feBlend mode="normal" in="SourceGraphic" in2="effect1_dropShadow_0_1" result="shape"/>
    </filter>
  </defs>
</svg>
