<?xml version="1.0" encoding="UTF-8"?>
<svg id="Layer_1" xmlns="http://www.w3.org/2000/svg" xmlns:xlink="http://www.w3.org/1999/xlink" version="1.1" viewBox="0 0 1440 1080">
  <!-- Generator: Adobe Illustrator 30.2.1, SVG Export Plug-In . SVG Version: 2.1.1 Build 1)  -->
  <defs>
    <style>
      .st0 {
        fill: #0f172a;
        fill-opacity: .4;
      }

      .st1 {
        fill: url(#linear-gradient2);
      }

      .st2 {
        fill: url(#linear-gradient1);
      }

      .st3 {
        fill: url(#linear-gradient3);
      }

      .st4 {
        stroke: #334155;
        stroke-width: 18px;
      }

      .st4, .st5, .st6 {
        fill: none;
        stroke-linecap: round;
      }

      .st4, .st6 {
        stroke-linejoin: round;
      }

      .st7 {
        fill: #facc15;
      }

      .st8 {
        fill-opacity: .3;
      }

      .st8, .st9 {
        fill: #f8fafc;
      }

      .st9 {
        fill-opacity: .5;
      }

      .st10 {
        fill: url(#linear-gradient);
      }

      .st11 {
        fill-opacity: .7;
      }

      .st11, .st12, .st13, .st14 {
        fill: #cbd5e1;
      }

      .st12 {
        fill-opacity: .7;
      }

      .st15 {
        fill: #fff1b8;
      }

      .st13 {
        fill-opacity: .4;
      }

      .st5 {
        stroke: url(#linear-gradient4);
      }

      .st5, .st6 {
        stroke-width: 16px;
      }

      .st16 {
        opacity: .9;
      }

      .st6 {
        stroke: #facc15;
      }
    </style>
    <linearGradient id="linear-gradient" x1="-1.1" y1="539.5" x2="1440.2" y2="539.5" gradientUnits="userSpaceOnUse">
      <stop offset="0" stop-color="#111827"/>
      <stop offset=".4" stop-color="#364152"/>
      <stop offset="1" stop-color="#969eaa"/>
    </linearGradient>
    <linearGradient id="linear-gradient1" x1="-1.8" y1="219.1" x2="1439.3" y2="7.9" gradientTransform="translate(0 1080) scale(1 -1)" gradientUnits="userSpaceOnUse">
      <stop offset="0" stop-color="#dbe4ef" stop-opacity=".1"/>
      <stop offset="1" stop-color="#94a3b8" stop-opacity=".2"/>
    </linearGradient>
    <linearGradient id="linear-gradient2" x1="227" y1="766.8" x2="593" y2="316.8" gradientTransform="translate(0 1080) scale(1 -1)" gradientUnits="userSpaceOnUse">
      <stop offset="0" stop-color="#d6dee8"/>
      <stop offset=".5" stop-color="#7a8698"/>
      <stop offset="1" stop-color="#334155"/>
    </linearGradient>
    <linearGradient id="linear-gradient3" x1="850" y1="709.2" x2="1202" y2="435.2" xlink:href="#linear-gradient2"/>
    <linearGradient id="linear-gradient4" x1="606" y1="538" x2="820" y2="538" gradientTransform="translate(0 1080) scale(1 -1)" gradientUnits="userSpaceOnUse">
      <stop offset="0" stop-color="#cbd5e1" stop-opacity=".4"/>
      <stop offset=".5" stop-color="#facc15" stop-opacity=".8"/>
      <stop offset="1" stop-color="#cbd5e1" stop-opacity=".4"/>
    </linearGradient>
  </defs>
  <rect class="st10" x="-1.1" y="-1" width="1441.3" height="1081"/>
  <path class="st2" d="M-1.1,856.4c280.8-91.9,698.2-104.4,1172.8-42.2,131.7,17.4,218.7,42.2,268.4,62.1v203.7H-1.1v-223.6Z"/>
  <g>
    <rect class="st1" x="208" y="294" width="402" height="486" rx="38" ry="38"/>
    <path class="st14" d="M269,356h270c5,0,9,4,9,9h0c0,5-4,9-9,9h-270c-5,0-9-4-9-9h0c0-5,4-9,9-9Z"/>
    <path class="st12" d="M267,410h200c3.9,0,7,3.1,7,7h0c0,3.9-3.1,7-7,7h-200c-3.9,0-7-3.1-7-7h0c0-3.9,3.1-7,7-7Z"/>
    <rect class="st9" x="260" y="496" width="114" height="114" rx="28" ry="28"/>
    <path class="st4" d="M316,534l28,28,50-50"/>
    <path class="st11" d="M267,650h228c3.9,0,7,3.1,7,7h0c0,3.9-3.1,7-7,7h-228c-3.9,0-7-3.1-7-7h0c0-3.9,3.1-7,7-7Z"/>
    <path class="st13" d="M267,692h160c3.9,0,7,3.1,7,7h0c0,3.9-3.1,7-7,7h-160c-3.9,0-7-3.1-7-7h0c0-3.9,3.1-7,7-7Z"/>
  </g>
  <g>
    <rect class="st3" x="826" y="356" width="398" height="302" rx="42" ry="42"/>
    <path class="st9" d="M881,400h268c5,0,9,4,9,9h0c0,5-4,9-9,9h-268c-5,0-9-4-9-9h0c0-5,4-9,9-9Z"/>
    <path class="st8" d="M879,452h190c3.9,0,7,3.1,7,7h0c0,3.9-3.1,7-7,7h-190c-3.9,0-7-3.1-7-7h0c0-3.9,3.1-7,7-7Z"/>
    <g class="st16">
      <path class="st0" d="M895,556h44c6.1,0,11,4.9,11,11h0c0,6.1-4.9,11-11,11h-44c-6.1,0-11-4.9-11-11h0c0-6.1,4.9-11,11-11Z"/>
      <path class="st0" d="M977,556h70c6.1,0,11,4.9,11,11h0c0,6.1-4.9,11-11,11h-70c-6.1,0-11-4.9-11-11h0c0-6.1,4.9-11,11-11Z"/>
      <path class="st0" d="M1085,556h28c6.1,0,11,4.9,11,11h0c0,6.1-4.9,11-11,11h-28c-6.1,0-11-4.9-11-11h0c0-6.1,4.9-11,11-11Z"/>
      <path class="st0" d="M1151,556h28c6.1,0,11,4.9,11,11h0c0,6.1-4.9,11-11,11h-28c-6.1,0-11-4.9-11-11h0c0-6.1,4.9-11,11-11Z"/>
    </g>
  </g>
  <g>
    <path class="st5" d="M606,542h214"/>
    <path class="st6" d="M782,504l42,38-42,38"/>
  </g>
  <circle class="st7" cx="1208" cy="240" r="12"/>
  <circle class="st15" cx="758" cy="690" r="8"/>
</svg>