<svg width="1440" height="1080" viewBox="0 0 1440 1080" fill="none" xmlns="http://www.w3.org/2000/svg">
  <rect width="1440" height="1080" rx="56" fill="#F5F8FC"/>
  <rect width="1440" height="1080" rx="56" fill="url(#bg)"/>
  <ellipse cx="1170" cy="162" rx="332" ry="204" fill="url(#glow)"/>
  <ellipse cx="260" cy="924" rx="292" ry="170" fill="url(#amber)"/>
  <path d="M156 826C394 754 744 744 1118 792C1204 804 1270 818 1310 832V1000H156V826Z" fill="url(#desk)"/>
  <g filter="url(#bookShadow)">
    <path d="M266 332C266 300 292 274 324 274H590C656 274 710 328 710 394V782C710 846 658 898 594 898H324C292 898 266 872 266 840V332Z" fill="url(#bookCover)"/>
    <path d="M710 394C710 328 764 274 830 274H1096C1128 274 1154 300 1154 332V840C1154 872 1128 898 1096 898H826C762 898 710 846 710 782V394Z" fill="url(#bookOpen)"/>
    <path d="M710 322V848" stroke="#D7DEE8" stroke-width="18"/>
    <rect x="352" y="376" width="258" height="16" rx="8" fill="#F8FAFC" fill-opacity="0.52"/>
    <rect x="352" y="430" width="188" height="14" rx="7" fill="#F8FAFC" fill-opacity="0.28"/>
    <rect x="802" y="374" width="258" height="16" rx="8" fill="#94A3B8" fill-opacity="0.34"/>
    <rect x="802" y="428" width="198" height="14" rx="7" fill="#94A3B8" fill-opacity="0.2"/>
    <rect x="352" y="516" width="218" height="12" rx="6" fill="#F8FAFC" fill-opacity="0.28"/>
    <rect x="802" y="516" width="218" height="12" rx="6" fill="#CBD5E1"/>
    <rect x="352" y="572" width="236" height="12" rx="6" fill="#F8FAFC" fill-opacity="0.28"/>
    <rect x="802" y="572" width="236" height="12" rx="6" fill="#CBD5E1"/>
    <rect x="352" y="628" width="190" height="12" rx="6" fill="#F8FAFC" fill-opacity="0.28"/>
    <rect x="802" y="628" width="190" height="12" rx="6" fill="#CBD5E1"/>
  </g>
  <g filter="url(#deviceShadow)">
    <rect x="928" y="718" width="264" height="146" rx="28" fill="url(#device)"/>
    <rect x="962" y="744" width="172" height="10" rx="5" fill="#F8FAFC" fill-opacity="0.44"/>
    <g opacity="0.86">
      <rect x="976" y="810" width="54" height="18" rx="9" fill="#0F172A" fill-opacity="0.34"/>
      <rect x="1044" y="810" width="54" height="18" rx="9" fill="#0F172A" fill-opacity="0.34"/>
      <rect x="1112" y="810" width="40" height="18" rx="9" fill="#0F172A" fill-opacity="0.34"/>
    </g>
  </g>
  <circle cx="1220" cy="216" r="12" fill="#FACC15"/>
  <circle cx="786" cy="236" r="8" fill="#FFF5CA"/>
  <defs>
    <linearGradient id="bg" x1="166" y1="120" x2="1270" y2="998" gradientUnits="userSpaceOnUse">
      <stop stop-color="#FFFFFF"/>
      <stop offset="0.58" stop-color="#EEF2F8"/>
      <stop offset="1" stop-color="#E2E8F0"/>
    </linearGradient>
    <radialGradient id="glow" cx="0" cy="0" r="1" gradientUnits="userSpaceOnUse" gradientTransform="translate(1170 162) rotate(136.678) scale(397.278 265.203)">
      <stop stop-color="#FFFFFF"/>
      <stop offset="1" stop-color="#FFFFFF" stop-opacity="0"/>
    </radialGradient>
    <radialGradient id="amber" cx="0" cy="0" r="1" gradientUnits="userSpaceOnUse" gradientTransform="translate(260 924) rotate(90) scale(170 292)">
      <stop stop-color="#FACC15" stop-opacity="0.16"/>
      <stop offset="1" stop-color="#FACC15" stop-opacity="0"/>
    </radialGradient>
    <linearGradient id="desk" x1="156" y1="826" x2="1310" y2="990" gradientUnits="userSpaceOnUse">
      <stop stop-color="#DBE4EF" stop-opacity="0.14"/>
      <stop offset="1" stop-color="#94A3B8" stop-opacity="0.18"/>
    </linearGradient>
    <linearGradient id="bookCover" x1="286" y1="292" x2="726" y2="888" gradientUnits="userSpaceOnUse">
      <stop stop-color="#CBD5E1"/>
      <stop offset="0.56" stop-color="#64748B"/>
      <stop offset="1" stop-color="#334155"/>
    </linearGradient>
    <linearGradient id="bookOpen" x1="732" y1="292" x2="1138" y2="884" gradientUnits="userSpaceOnUse">
      <stop stop-color="#F8FAFC"/>
      <stop offset="0.5" stop-color="#E2E8F0"/>
      <stop offset="1" stop-color="#CBD5E1"/>
    </linearGradient>
    <linearGradient id="device" x1="940" y1="730" x2="1190" y2="860" gradientUnits="userSpaceOnUse">
      <stop stop-color="#D6DEE8"/>
      <stop offset="0.56" stop-color="#7A8698"/>
      <stop offset="1" stop-color="#334155"/>
    </linearGradient>
    <filter id="bookShadow" x="226" y="234" width="968" height="724" filterUnits="userSpaceOnUse" color-interpolation-filters="sRGB">
      <feFlood flood-opacity="0" result="BackgroundImageFix"/>
      <feColorMatrix in="SourceAlpha" type="matrix" values="0 0 0 0 0 0 0 0 0 0 0 0 0 0 0 0 0 0 127 0" result="hardAlpha"/>
      <feOffset dy="24"/>
      <feGaussianBlur stdDeviation="20"/>
      <feColorMatrix type="matrix" values="0 0 0 0 0.0588235 0 0 0 0 0.0980392 0 0 0 0 0.188235 0 0 0 0.14 0"/>
      <feBlend mode="normal" in2="BackgroundImageFix" result="effect1_dropShadow_0_1"/>
      <feBlend mode="normal" in="SourceGraphic" in2="effect1_dropShadow_0_1" result="shape"/>
    </filter>
    <filter id="deviceShadow" x="892" y="690" width="340" height="218" filterUnits="userSpaceOnUse" color-interpolation-filters="sRGB">
      <feFlood flood-opacity="0" result="BackgroundImageFix"/>
      <feColorMatrix in="SourceAlpha" type="matrix" values="0 0 0 0 0 0 0 0 0 0 0 0 0 0 0 0 0 0 127 0" result="hardAlpha"/>
      <feOffset dx="-8" dy="16"/>
      <feGaussianBlur stdDeviation="14"/>
      <feColorMatrix type="matrix" values="0 0 0 0 0.0588235 0 0 0 0 0.0980392 0 0 0 0 0.188235 0 0 0 0.12 0"/>
      <feBlend mode="normal" in2="BackgroundImageFix" result="effect1_dropShadow_0_1"/>
      <feBlend mode="normal" in="SourceGraphic" in2="effect1_dropShadow_0_1" result="shape"/>
    </filter>
  </defs>
</svg>
