<?xml version="1.0" encoding="UTF-8"?>
<svg id="Layer_1" xmlns="http://www.w3.org/2000/svg" xmlns:xlink="http://www.w3.org/1999/xlink" version="1.1" viewBox="0 0 1440 1080">
  <!-- Generator: Adobe Illustrator 30.2.1, SVG Export Plug-In . SVG Version: 2.1.1 Build 1)  -->
  <defs>
    <style>
      .st0 {
        fill: url(#linear-gradient2);
      }

      .st1 {
        fill: url(#linear-gradient1);
      }

      .st2 {
        fill: url(#linear-gradient3);
      }

      .st3, .st4 {
        fill: #facc15;
      }

      .st5 {
        fill-opacity: .2;
      }

      .st5, .st6, .st7 {
        fill: #f8fafc;
      }

      .st6 {
        fill-opacity: .3;
      }

      .st7 {
        fill-opacity: .5;
      }

      .st8 {
        fill: url(#linear-gradient);
      }

      .st9 {
        fill-opacity: .8;
      }

      .st9, .st10, .st11 {
        fill: #cbd5e1;
      }

      .st10 {
        fill-opacity: .5;
      }

      .st4 {
        fill-opacity: .2;
      }

      .st12 {
        fill: none;
        stroke: url(#linear-gradient4);
        stroke-linecap: round;
        stroke-width: 12px;
      }

      .st13 {
        fill: #fff5ca;
      }
    </style>
    <linearGradient id="linear-gradient" x1="1.3" y1="540.5" x2="1439.8" y2="540.5" gradientUnits="userSpaceOnUse">
      <stop offset="0" stop-color="#111827"/>
      <stop offset=".4" stop-color="#364152"/>
      <stop offset="1" stop-color="#969eaa"/>
    </linearGradient>
    <linearGradient id="linear-gradient1" x1=".5" y1="216" x2="1439.2" y2="6.9" gradientTransform="translate(0 1080) scale(1 -1)" gradientUnits="userSpaceOnUse">
      <stop offset="0" stop-color="#dbe4ef" stop-opacity=".1"/>
      <stop offset="1" stop-color="#94a3b8" stop-opacity=".2"/>
    </linearGradient>
    <linearGradient id="linear-gradient2" x1="248.7" y1="787.4" x2="754.7" y2="387.4" gradientTransform="translate(0 1080) scale(1 -1)" gradientUnits="userSpaceOnUse">
      <stop offset="0" stop-color="#d6dee8"/>
      <stop offset=".5" stop-color="#7a8698"/>
      <stop offset="1" stop-color="#334155"/>
    </linearGradient>
    <linearGradient id="linear-gradient3" x1="881" y1="705.8" x2="1191" y2="457.8" xlink:href="#linear-gradient2"/>
    <linearGradient id="linear-gradient4" x1="1038.8" y1="474" x2="1198.8" y2="566" gradientTransform="translate(0 1080) scale(1 -1)" gradientUnits="userSpaceOnUse">
      <stop offset="0" stop-color="#cbd5e1" stop-opacity=".4"/>
      <stop offset=".5" stop-color="#facc15" stop-opacity=".8"/>
      <stop offset="1" stop-color="#cbd5e1" stop-opacity=".4"/>
    </linearGradient>
  </defs>
  <rect class="st8" x="1.3" y="1.1" width="1438.6" height="1078.9"/>
  <path class="st1" d="M1.3,858.5c278.8-92.1,724.3-99.6,1172.4-39.8,124.5,17.4,214.1,39.8,266.3,59.7v201.6H1.3v-221.5Z"/>
  <g>
    <path class="st0" d="M224,338c0-35.3,28.7-64,64-64h418c35.3,0,64,28.7,64,64v270c0,35.3-28.7,64-64,64h-244l-110,100v-100h-64c-35.3,0-64-28.7-64-64v-270Z"/>
    <path class="st11" d="M317,358h126c5,0,9,4,9,9h0c0,5-4,9-9,9h-126c-5,0-9-4-9-9h0c0-5,4-9,9-9Z"/>
    <path class="st9" d="M316,418h284c4.4,0,8,3.6,8,8h0c0,4.4-3.6,8-8,8h-284c-4.4,0-8-3.6-8-8h0c0-4.4,3.6-8,8-8Z"/>
    <path class="st10" d="M315,470h214c3.9,0,7,3.1,7,7h0c0,3.9-3.1,7-7,7h-214c-3.9,0-7-3.1-7-7h0c0-3.9,3.1-7,7-7Z"/>
    <circle class="st4" cx="332" cy="562" r="22"/>
  </g>
  <g>
    <rect class="st2" x="860" y="362" width="344" height="266" rx="34" ry="34"/>
    <path class="st7" d="M918,414h102c4.4,0,8,3.6,8,8h0c0,4.4-3.6,8-8,8h-102c-4.4,0-8-3.6-8-8h0c0-4.4,3.6-8,8-8Z"/>
    <path class="st6" d="M917,464h204c3.9,0,7,3.1,7,7h0c0,3.9-3.1,7-7,7h-204c-3.9,0-7-3.1-7-7h0c0-3.9,3.1-7,7-7Z"/>
    <path class="st5" d="M917,520h166c3.9,0,7,3.1,7,7h0c0,3.9-3.1,7-7,7h-166c-3.9,0-7-3.1-7-7h0c0-3.9,3.1-7,7-7Z"/>
    <path class="st12" d="M1040,608c52-36,104-68,160-92"/>
  </g>
  <circle class="st3" cx="1210" cy="230" r="12"/>
  <circle class="st13" cx="814" cy="310" r="8"/>
</svg>