<?xml version="1.0" encoding="UTF-8"?>
<svg id="Layer_1" xmlns="http://www.w3.org/2000/svg" xmlns:xlink="http://www.w3.org/1999/xlink" version="1.1" viewBox="0 0 1440 1080">
  <!-- Generator: Adobe Illustrator 30.2.1, SVG Export Plug-In . SVG Version: 2.1.1 Build 1)  -->
  <defs>
    <style>
      .st0 {
        fill: url(#linear-gradient1);
      }

      .st1 {
        fill: url(#linear-gradient3);
      }

      .st2 {
        fill: url(#linear-gradient6);
      }

      .st3 {
        fill: url(#linear-gradient5);
      }

      .st4 {
        fill: url(#linear-gradient4);
      }

      .st5 {
        fill: #facc15;
      }

      .st6 {
        fill-opacity: .3;
      }

      .st6, .st7 {
        fill: #f8fafc;
      }

      .st7 {
        fill-opacity: .5;
      }

      .st8 {
        fill-opacity: .3;
      }

      .st8, .st9, .st10 {
        fill: #64748b;
      }

      .st9 {
        fill-opacity: .2;
      }

      .st10 {
        fill-opacity: .2;
      }

      .st11 {
        fill: url(#linear-gradient);
      }

      .st12 {
        fill: #fff7d1;
      }

      .st13 {
        fill: #cbd5e1;
      }

      .st14 {
        fill: #8a95a9;
      }

      .st15 {
        fill: #fde68a;
      }

      .st16 {
        fill: none;
        stroke: url(#linear-gradient2);
        stroke-linecap: round;
        stroke-width: 4px;
      }

      .st17 {
        opacity: .9;
      }

      .st18 {
        opacity: .9;
      }

      .st19 {
        fill: #111827;
        fill-opacity: .4;
      }
    </style>
    <linearGradient id="linear-gradient" x1="0" y1="540" x2="1440" y2="540" gradientUnits="userSpaceOnUse">
      <stop offset="0" stop-color="#111827"/>
      <stop offset=".4" stop-color="#364152"/>
      <stop offset="1" stop-color="#969eaa"/>
    </linearGradient>
    <linearGradient id="linear-gradient1" x1="-3.1" y1="222.6" x2="1436.9" y2="-4.5" gradientTransform="translate(0 1080) scale(1 -1)" gradientUnits="userSpaceOnUse">
      <stop offset="0" stop-color="#dbe4ef" stop-opacity=".1"/>
      <stop offset="1" stop-color="#94a3b8" stop-opacity=".2"/>
    </linearGradient>
    <linearGradient id="linear-gradient2" x1="168" y1="274" x2="1272" y2="274" gradientTransform="translate(0 1080) scale(1 -1)" gradientUnits="userSpaceOnUse">
      <stop offset="0" stop-color="#facc15" stop-opacity="0"/>
      <stop offset=".5" stop-color="#facc15" stop-opacity=".4"/>
      <stop offset="1" stop-color="#cbd5e1" stop-opacity=".3"/>
    </linearGradient>
    <linearGradient id="linear-gradient3" x1="741.1" y1="851" x2="1165.1" y2="473" gradientTransform="translate(0 1080) scale(1 -1)" gradientUnits="userSpaceOnUse">
      <stop offset="0" stop-color="#cbd5e1"/>
      <stop offset=".6" stop-color="#64748b"/>
      <stop offset="1" stop-color="#334155"/>
    </linearGradient>
    <linearGradient id="linear-gradient4" x1="748" y1="828" x2="1138" y2="574" gradientTransform="translate(0 1080) scale(1 -1)" gradientUnits="userSpaceOnUse">
      <stop offset="0" stop-color="#f8fafc"/>
      <stop offset=".5" stop-color="#cbd5e1"/>
      <stop offset="1" stop-color="#94a3b8"/>
    </linearGradient>
    <linearGradient id="linear-gradient5" x1="593.6" y1="524.2" x2="1083.6" y2="334.2" gradientTransform="translate(0 1080) scale(1 -1)" gradientUnits="userSpaceOnUse">
      <stop offset="0" stop-color="#d6dee8"/>
      <stop offset=".6" stop-color="#7a8698"/>
      <stop offset="1" stop-color="#334155"/>
    </linearGradient>
    <linearGradient id="linear-gradient6" x1="213.7" y1="762.9" x2="479.7" y2="432.9" xlink:href="#linear-gradient3"/>
  </defs>
  <rect class="st11" width="1440" height="1080"/>
  <path class="st0" d="M0,837.9c264.5-84.9,663.8-97.3,1028.2-39.9,162.2,25,307,69.9,411.8,122.3v159.7H0v-242.1Z"/>
  <path class="st16" d="M168,806h1104"/>
  <g>
    <rect class="st1" x="706" y="212" width="474" height="394" rx="42" ry="42"/>
    <rect class="st4" x="748" y="252" width="390" height="254" rx="28" ry="28"/>
    <path class="st14" d="M821,642h244c8.3,0,15,6.7,15,15h0c0,8.3-6.7,15-15,15h-244c-8.3,0-15-6.7-15-15h0c0-8.3,6.7-15,15-15Z"/>
    <path class="st13" d="M772,670h342c5.5,0,10,4.5,10,10h0c0,5.5-4.5,10-10,10h-342c-5.5,0-10-4.5-10-10h0c0-5.5,4.5-10,10-10Z"/>
  </g>
  <g>
    <rect class="st3" x="574" y="548" width="520" height="202" rx="36" ry="36"/>
    <path class="st7" d="M624,590h296c4.4,0,8,3.6,8,8h0c0,4.4-3.6,8-8,8h-296c-4.4,0-8-3.6-8-8h0c0-4.4,3.6-8,8-8Z"/>
    <path class="st6" d="M622,634h206c3.3,0,6,2.7,6,6h0c0,3.3-2.7,6-6,6h-206c-3.3,0-6-2.7-6-6h0c0-3.3,2.7-6,6-6Z"/>
    <g class="st18">
      <path class="st19" d="M643,694h48c6.1,0,11,4.9,11,11h0c0,6.1-4.9,11-11,11h-48c-6.1,0-11-4.9-11-11h0c0-6.1,4.9-11,11-11Z"/>
      <path class="st19" d="M729,694h70c6.1,0,11,4.9,11,11h0c0,6.1-4.9,11-11,11h-70c-6.1,0-11-4.9-11-11h0c0-6.1,4.9-11,11-11Z"/>
      <path class="st19" d="M837,694h32c6.1,0,11,4.9,11,11h0c0,6.1-4.9,11-11,11h-32c-6.1,0-11-4.9-11-11h0c0-6.1,4.9-11,11-11Z"/>
      <path class="st19" d="M907,694h32c6.1,0,11,4.9,11,11h0c0,6.1-4.9,11-11,11h-32c-6.1,0-11-4.9-11-11h0c0-6.1,4.9-11,11-11Z"/>
    </g>
  </g>
  <g>
    <rect class="st2" x="196" y="306" width="298" height="348" rx="34" ry="34"/>
    <path class="st8" d="M242,350h206c4.4,0,8,3.6,8,8h0c0,4.4-3.6,8-8,8h-206c-4.4,0-8-3.6-8-8h0c0-4.4,3.6-8,8-8Z"/>
    <path class="st10" d="M241,398h148c3.9,0,7,3.1,7,7h0c0,3.9-3.1,7-7,7h-148c-3.9,0-7-3.1-7-7h0c0-3.9,3.1-7,7-7Z"/>
    <path class="st9" d="M241,622h154c3.9,0,7,3.1,7,7h0c0,3.9-3.1,7-7,7h-154c-3.9,0-7-3.1-7-7h0c0-3.9,3.1-7,7-7Z"/>
  </g>
  <g class="st17">
    <circle class="st5" cx="1132" cy="206" r="12"/>
    <circle class="st15" cx="576" cy="828" r="8"/>
    <circle class="st12" cx="182" cy="770" r="10"/>
  </g>
</svg>