<svg width="1440" height="1080" viewBox="0 0 1440 1080" fill="none" xmlns="http://www.w3.org/2000/svg">
  <rect width="1440" height="1080" rx="56" fill="#F5F8FC"/>
  <rect width="1440" height="1080" rx="56" fill="url(#bg)"/>
  <ellipse cx="1150" cy="146" rx="320" ry="188" fill="url(#glow)"/>
  <ellipse cx="278" cy="914" rx="312" ry="176" fill="url(#amber)"/>
  <path d="M170 810C428 734 778 728 1118 778C1190 788 1256 802 1312 826V1000H170V810Z" fill="url(#desk)"/>
  <g filter="url(#shadow)">
    <rect x="252" y="298" width="426" height="500" rx="40" fill="url(#panel)"/>
    <rect x="304" y="360" width="322" height="20" rx="10" fill="#CBD5E1"/>
    <rect x="304" y="414" width="252" height="16" rx="8" fill="#CBD5E1" fill-opacity="0.72"/>
    <rect x="304" y="500" width="112" height="112" rx="24" fill="#FFFFFF"/>
    <path d="M360 520V588" stroke="#94A3B8" stroke-width="18" stroke-linecap="round"/>
    <path d="M328 556L360 590L392 556" stroke="#334155" stroke-width="18" stroke-linecap="round" stroke-linejoin="round"/>
    <rect x="304" y="648" width="270" height="16" rx="8" fill="#CBD5E1" fill-opacity="0.66"/>
    <rect x="304" y="690" width="194" height="14" rx="7" fill="#CBD5E1" fill-opacity="0.44"/>
  </g>
  <g filter="url(#shadowSoft)">
    <rect x="788" y="330" width="430" height="356" rx="38" fill="url(#module)"/>
    <rect x="836" y="380" width="320" height="18" rx="9" fill="#F8FAFC" fill-opacity="0.48"/>
    <rect x="836" y="430" width="236" height="14" rx="7" fill="#F8FAFC" fill-opacity="0.28"/>
    <g opacity="0.88">
      <rect x="848" y="550" width="82" height="24" rx="12" fill="#0F172A" fill-opacity="0.34"/>
      <rect x="946" y="550" width="114" height="24" rx="12" fill="#0F172A" fill-opacity="0.34"/>
      <rect x="1076" y="550" width="62" height="24" rx="12" fill="#0F172A" fill-opacity="0.34"/>
    </g>
    <path d="M986 662C1062 644 1164 648 1246 680" stroke="url(#cable)" stroke-width="14" stroke-linecap="round"/>
  </g>
  <circle cx="1220" cy="244" r="12" fill="#FACC15"/>
  <circle cx="734" cy="764" r="8" fill="#FFF1B8"/>
  <defs>
    <linearGradient id="bg" x1="160" y1="120" x2="1278" y2="998" gradientUnits="userSpaceOnUse">
      <stop stop-color="#FFFFFF"/>
      <stop offset="0.58" stop-color="#EEF2F8"/>
      <stop offset="1" stop-color="#E2E8F0"/>
    </linearGradient>
    <radialGradient id="glow" cx="0" cy="0" r="1" gradientUnits="userSpaceOnUse" gradientTransform="translate(1150 146) rotate(135.359) scale(386.174 252.262)">
      <stop stop-color="#FFFFFF"/>
      <stop offset="1" stop-color="#FFFFFF" stop-opacity="0"/>
    </radialGradient>
    <radialGradient id="amber" cx="0" cy="0" r="1" gradientUnits="userSpaceOnUse" gradientTransform="translate(278 914) rotate(90) scale(176 312)">
      <stop stop-color="#FACC15" stop-opacity="0.16"/>
      <stop offset="1" stop-color="#FACC15" stop-opacity="0"/>
    </radialGradient>
    <linearGradient id="desk" x1="170" y1="810" x2="1312" y2="990" gradientUnits="userSpaceOnUse">
      <stop stop-color="#DBE4EF" stop-opacity="0.14"/>
      <stop offset="1" stop-color="#94A3B8" stop-opacity="0.18"/>
    </linearGradient>
    <linearGradient id="panel" x1="272" y1="320" x2="646" y2="786" gradientUnits="userSpaceOnUse">
      <stop stop-color="#FFFFFF"/>
      <stop offset="1" stop-color="#EEF2F8"/>
    </linearGradient>
    <linearGradient id="module" x1="806" y1="346" x2="1194" y2="686" gradientUnits="userSpaceOnUse">
      <stop stop-color="#D6DEE8"/>
      <stop offset="0.52" stop-color="#7A8698"/>
      <stop offset="1" stop-color="#334155"/>
    </linearGradient>
    <linearGradient id="cable" x1="986" y1="664" x2="1246" y2="680" gradientUnits="userSpaceOnUse">
      <stop stop-color="#FACC15" stop-opacity="0.64"/>
      <stop offset="1" stop-color="#CBD5E1" stop-opacity="0.24"/>
    </linearGradient>
    <filter id="shadow" x="216" y="268" width="498" height="582" filterUnits="userSpaceOnUse" color-interpolation-filters="sRGB">
      <feFlood flood-opacity="0" result="BackgroundImageFix"/>
      <feColorMatrix in="SourceAlpha" type="matrix" values="0 0 0 0 0 0 0 0 0 0 0 0 0 0 0 0 0 0 127 0" result="hardAlpha"/>
      <feOffset dy="18"/>
      <feGaussianBlur stdDeviation="18"/>
      <feColorMatrix type="matrix" values="0 0 0 0 0.0588235 0 0 0 0 0.0980392 0 0 0 0 0.188235 0 0 0 0.12 0"/>
      <feBlend mode="normal" in2="BackgroundImageFix" result="effect1_dropShadow_0_1"/>
      <feBlend mode="normal" in="SourceGraphic" in2="effect1_dropShadow_0_1" result="shape"/>
    </filter>
    <filter id="shadowSoft" x="748" y="300" width="518" height="446" filterUnits="userSpaceOnUse" color-interpolation-filters="sRGB">
      <feFlood flood-opacity="0" result="BackgroundImageFix"/>
      <feColorMatrix in="SourceAlpha" type="matrix" values="0 0 0 0 0 0 0 0 0 0 0 0 0 0 0 0 0 0 127 0" result="hardAlpha"/>
      <feOffset dx="-8" dy="20"/>
      <feGaussianBlur stdDeviation="16"/>
      <feColorMatrix type="matrix" values="0 0 0 0 0.0588235 0 0 0 0 0.0980392 0 0 0 0 0.188235 0 0 0 0.14 0"/>
      <feBlend mode="normal" in2="BackgroundImageFix" result="effect1_dropShadow_0_1"/>
      <feBlend mode="normal" in="SourceGraphic" in2="effect1_dropShadow_0_1" result="shape"/>
    </filter>
  </defs>
</svg>
